<svg width="200" height="124" viewBox="0 0 200 124" fill="none" xmlns="http://www.w3.org/2000/svg">
<g clip-path="url(#clip0_17_140)">
<path d="M0 0C7.21288 8.69946 13.0367 21.7123 25.7623 18.4809C35.7678 15.9393 38.3939 13.6955 45.2812 5.94729C52.6316 -2.33099 65.5091 -0.609979 72.1794 7.83532C80.1519 17.9435 90.0199 16.3823 102.608 8.48887C109.85 3.95034 115.334 -3.2387 122.163 7.12368C126.113 13.1073 126.294 25.365 124.659 32.2345C123.364 37.6589 120.275 42.2193 123.357 47.8035C128.067 56.3504 138.607 49.6044 138.036 42.0377C137.696 37.4992 134.513 31.0871 133.594 26.2509C132.284 19.3886 134.31 11.684 140.611 7.98056C149.141 2.97002 152.664 12.5917 158.691 16.2443C162.279 18.4228 166.106 19.011 170.273 18.6625C173.637 18.3865 176.647 16.68 179.338 14.7412C181.393 13.2598 183.758 12.1415 185.726 10.5439C187.383 9.19325 188.598 7.26165 190.212 5.80206C193.04 3.23144 196.39 1.24174 200 0H0Z" fill="white"/>
<path d="M124.977 113.659C124.977 119.374 127.792 124 131.264 124C134.737 124 137.551 119.367 137.551 113.659C137.551 107.952 132.48 102.426 132.48 98.94C132.48 94.0602 124.985 107.944 124.985 113.659H124.977Z" fill="white"/>
</g>
<defs>
<clipPath id="clip0_17_140">
<rect width="200" height="124" fill="white" transform="matrix(-1 0 0 1 200 0)"/>
</clipPath>
</defs>
</svg>
