<svg width="18" height="18" viewBox="0 0 18 18" fill="none" xmlns="http://www.w3.org/2000/svg">
<path d="M9.001 6.55C9.918 5.613 11.112 5 12.501 5C13.9597 5 15.3586 5.57946 16.3901 6.61091C17.4215 7.64236 18.001 9.04131 18.001 10.5V18H16.001V10.5C16.001 9.57174 15.6323 8.6815 14.9759 8.02513C14.3195 7.36875 13.4293 7 12.501 7C11.5727 7 10.6825 7.36875 10.0261 8.02513C9.36975 8.6815 9.001 9.57174 9.001 10.5V18H7.001V5.5H9.001V6.55ZM2.001 3.5C1.60317 3.5 1.22164 3.34196 0.940339 3.06066C0.659035 2.77936 0.500999 2.39782 0.500999 2C0.500999 1.60218 0.659035 1.22064 0.940339 0.93934C1.22164 0.658035 1.60317 0.5 2.001 0.5C2.39882 0.5 2.78036 0.658035 3.06166 0.93934C3.34296 1.22064 3.501 1.60218 3.501 2C3.501 2.39782 3.34296 2.77936 3.06166 3.06066C2.78036 3.34196 2.39882 3.5 2.001 3.5ZM1.001 5.5H3.001V18H1.001V5.5Z" fill="black"/>
</svg>
