<?xml version="1.0" encoding="UTF-8"?>
<svg id="Layer_1" data-name="Layer 1" xmlns="http://www.w3.org/2000/svg" viewBox="0 0 500 500">
  <defs>
    <style>
      .cls-1 {
        fill: #fff;
      }
    </style>
  </defs>
  <g>
    <path class="cls-1" d="M112.28,139.81v30.38h22.32v17.82l-22.32-9.32-.11,28.4,9.72,14.46h-37.23l9.72-14.46v-59.57l-9.72-14.35h57.56v19.16l-29.94-12.54Z"/>
    <path class="cls-1" d="M232.73,177.26c0,6.63-1.07,12.72-3.2,18.28-2.14,5.56-5.06,10.38-8.78,14.47-3.72,4.09-8.06,7.27-13.04,9.56-4.97,2.28-10.29,3.42-15.96,3.42s-11.01-1.07-16.02-3.2c-5.01-2.14-9.37-5.15-13.09-9.06-3.72-3.9-6.65-8.58-8.78-14.03-2.14-5.45-3.2-11.49-3.2-18.12s1.07-12.8,3.2-18.5c2.13-5.71,5.06-10.66,8.78-14.86,3.72-4.2,8.08-7.49,13.09-9.89,5.01-2.39,10.35-3.59,16.02-3.59s10.99,1.12,15.96,3.37c4.97,2.25,9.32,5.4,13.04,9.45,3.72,4.05,6.65,8.86,8.78,14.42,2.14,5.56,3.2,11.65,3.2,18.28ZM217.27,187.64c0-6.04-1.05-11.73-3.15-17.07-2.1-5.34-5.12-9.96-9.06-13.86-3.94-3.9-8.73-7-14.36-9.28-5.63-2.28-12.02-3.42-19.17-3.42-1.7,4.05-2.97,8.05-3.81,11.99-.85,3.94-1.27,7.79-1.27,11.54,0,6.11,1.05,11.82,3.15,17.12,2.1,5.3,5.12,9.93,9.06,13.86,3.94,3.94,8.73,7.05,14.36,9.34,5.63,2.28,12.02,3.42,19.17,3.42,3.39-7.95,5.08-15.83,5.08-23.64Z"/>
    <path class="cls-1" d="M416.29,179.25c0,5.38-.88,10.61-2.65,15.69-1.77,5.08-4.4,9.59-7.9,13.53-3.5,3.94-7.88,7.11-13.15,9.5-5.27,2.39-11.43,3.59-18.5,3.59h-32.92l9.72-14.4v-59.57l-9.72-14.4h31.82c6.92,0,13.07,1.34,18.45,4.03,5.38,2.69,9.9,6.21,13.59,10.55,3.68,4.35,6.48,9.26,8.4,14.75,1.91,5.49,2.87,11.07,2.87,16.74ZM399.72,187.64c0-4.64-.66-9.17-1.99-13.59-1.33-4.42-3.3-8.45-5.91-12.1-2.62-3.65-5.86-6.79-9.72-9.45-3.87-2.65-8.34-4.6-13.42-5.86v55.01l24.52,10.72c2.21-3.98,3.85-8.05,4.92-12.21,1.07-4.16,1.6-8.34,1.6-12.54Z"/>
    <path class="cls-1" d="M338.16,177.43c0,26.88-23.07,45.56-47.76,45.56s-47.75-18.57-47.75-45.68,23.07-45.68,47.75-45.68,47.76,18.69,47.76,45.79ZM262.72,173.62c0,26.76,12,42.33,28.61,42.33,12.23,0,26.76-8.42,26.76-34.84s-12-42.45-28.61-42.45c-12.23,0-26.76,8.54-26.76,34.95Z"/>
    <g>
      <path class="cls-1" d="M326.82,305.68l8.08-11.9v-49.64l-8.08-11.95h47.86v14.61l-24.89-10.46v26.62h18.56v13.63l-18.56-7.84v31.42l24.89-9.19v14.7h-47.86Z"/>
      <path class="cls-1" d="M445.57,241.84v49.7l5.79,5.79-13.23,10.66-35.09-53.55v41.61l8.08,9.65h-24.62l8.08-9.65v-54.38l-6.06-9.46h17.82l30.68,46.85v-37.2l-8.18-9.65h24.8l-8.08,9.65Z"/>
      <path class="cls-1" d="M156.83,232.24l-22.81,58.22c-3.38,8.63-4.06,9.56-7.27,9.97l-2.87.44v4.83h22.06v-4.83l-2.87-.44c-1.51-.19-2.29-.53-2.67-1.18-.82-1.37-.21-4.56,1.92-10.05l2.96-7.57h22.35l5.9,14.66c.53,1.26.61,2.16.27,2.76-.4.7-1.52,1.15-3.41,1.39l-2.87.44v4.83h30.42v-4.83l-2.87-.44c-3.36-.42-4.13-1.61-5.35-4.65l-26.11-63.53h-6.77ZM164.52,273.96h-16.34l7.96-20.61,8.38,20.61Z"/>
      <g>
        <path class="cls-1" d="M206.02,305.68l8.08-11.9v-49.64l-8.08-11.95h30.96l-8.08,11.95v56.03l24.99-9.19v14.7h-47.86Z"/>
        <path class="cls-1" d="M319.55,291c-4.78,7.97-8.63,9.13-20.74,9.13h-.08s-4.81.01-4.81.01c-7.51,0-7.28-9.19-7.28-9.19v-49.22c0-3.49,1.1-4.59,4.78-5.05l3.12-.37v-4.11h-30.5v4.11l3.12.37c3.67.46,4.78,1.56,4.78,5.05v53.25c0,3.49-1.1,4.59-4.78,5.05l-3.12.13v5.49h53.51l3.83-14.68-1.84.02Z"/>
      </g>
      <path class="cls-1" d="M84.47,305.71l8.08-11.92v-19.78h-23.33v19.78l8.08,11.92h-30.96l8.08-11.92v-49.64l-8.08-11.92h30.96l-8.08,11.92v22.21h23.33v-22.21l-8.08-11.92h30.96l-8.08,11.93v49.63l8.08,11.92h-30.96Z"/>
    </g>
  </g>
  <g>
    <path class="cls-1" d="M104.92,367.06l.98-.13c1.04-.13,1.28-.61,2.18-2.93l6.65-17.03h1.38l7.5,18.33c.43,1.01.67,1.49,1.7,1.62l.98.13v.96h-8.51v-.96l.98-.13c1.04-.13,1.41-.48,1.01-1.46l-1.92-4.74h-6.78l-1.17,3.01c-1.04,2.66-.61,3.06.43,3.19l.98.13v.96h-6.41v-.96ZM117.21,359.08l-2.82-6.92-2.66,6.92h5.48Z"/>
    <path class="cls-1" d="M142.53,351.79l-.43,10.59c-.16,4.12-.19,4.39,1.12,4.55l1.01.13v.96h-6.28v-.96l.98-.13c1.3-.19,1.3-.43,1.49-4.55l.56-11.97c.05-1.04-.27-1.33-1.3-1.46l-.98-.13v-.96h6.01l6.54,14.39,6.23-14.39h6.09v.96l-1.01.13c-1.01.13-1.36.43-1.3,1.46l.74,15.06c.05,1.04.32,1.33,1.33,1.46l1.01.13v.96h-8.38v-.96l.98-.13c1.04-.13,1.3-.43,1.25-1.46l-.67-13.68-7.08,16.44h-.48l-7.45-16.44Z"/>
    <path class="cls-1" d="M178.73,367.09l-.82-6.01h.96l.91,2.37c1.09,2.85,2.74,3.49,5.29,3.49s4.55-1.2,4.55-3.35c0-1.84-1.14-3.17-4.23-4.04l-1.57-.45c-3.43-.98-5.43-3.14-5.43-6.15,0-3.62,3.41-5.61,7.64-5.61,1.28,0,3.51.37,5.03.9l.8,5.37h-.96l-.85-2.05c-.88-2.1-2.16-2.85-4.36-2.85s-3.94,1.17-3.94,3.14c0,1.7,1.01,2.95,3.35,3.67l1.54.48c3.99,1.22,6.41,2.53,6.41,6.23,0,4.04-4.04,6.15-7.77,6.15-2.42,0-4.92-.48-6.55-1.28Z"/>
    <path class="cls-1" d="M210.31,367.01l1.81-.13c1.01-.08,1.28-.37,1.28-1.41v-16.23h-.43c-4.23,0-5.19.21-5.85,2.37l-.45,1.46h-.96l.35-5.27,7.1.05h4.31l7.08-.05.37,5.27h-.96l-.48-1.46c-.69-2.16-1.62-2.37-5.83-2.37h-.45v16.23c0,1.04.27,1.33,1.3,1.41l1.78.13v1.01h-9.98v-1.01Z"/>
    <path class="cls-1" d="M245.93,347.85l8.12-.05.5,5.27h-.96l-.61-1.41c-.9-2.1-1.62-2.42-5.85-2.42h-2.61c-.4,0-.53.16-.53.53v7.29h3.14c1.65,0,2.31-.16,2.69-1.86l.24-1.09h.96v7.48h-.96l-.24-1.09c-.37-1.73-1.04-1.86-2.69-1.86h-3.14v5.77c0,2.02.43,2.23,2.39,2.23h1.2c4.5,0,4.95-.37,6.23-2.42l1.12-1.81h.96l-1.46,5.61h-16.5v-.96l.98-.13c1.04-.13,1.3-.43,1.3-1.46v-15.06c0-1.04-.27-1.33-1.3-1.46l-.98-.13v-.96h8.01Z"/>
    <path class="cls-1" d="M281.68,362.75c-.61-3.72-2.34-4.34-4.18-4.34h-2.34v7.05c0,1.04.29,1.33,1.3,1.46l.98.13v.96h-8.35v-.96l.98-.13c1.04-.13,1.3-.43,1.3-1.46v-15.06c0-1.04-.27-1.33-1.3-1.46l-.98-.13v-.96h8.89c5.06,0,8.54,1.25,8.54,4.82,0,2.71-2.05,4.34-5.85,4.87v.05c2.63.19,4.44,1.7,5.16,4.52l.37,1.44c.72,2.77,1.44,3.59,3.41,3.43l.13.88c-.93.32-1.65.51-2.63.51-2.77,0-4.68-1.14-5.43-5.61ZM277.85,357.14c3.54,0,4.55-1.81,4.55-3.96,0-2.34-1.2-4.04-4.63-4.04h-1.09c-1.36,0-1.52.11-1.52.61v7.37c.96.03,1.49.03,2.69.03Z"/>
    <path class="cls-1" d="M310.44,347.85c7.08,0,12.24,3.62,12.24,9.92s-5.24,10.24-12.08,10.24h-8.57v-.96l.98-.13c1.04-.13,1.3-.43,1.3-1.46v-15.06c0-1.04-.27-1.33-1.3-1.46l-.98-.13v-.96h8.41ZM310.44,366.71c4.63,0,8.04-2.05,8.04-8.12,0-6.52-2.58-9.45-8.3-9.45-1.94,0-2.08.08-2.08.59v15.11c0,1.54.32,1.86,2,1.86h.35Z"/>
    <path class="cls-1" d="M333.74,367.06l.98-.13c1.04-.13,1.28-.61,2.18-2.93l6.65-17.03h1.38l7.5,18.33c.43,1.01.67,1.49,1.7,1.62l.98.13v.96h-8.51v-.96l.98-.13c1.04-.13,1.41-.48,1.01-1.46l-1.92-4.74h-6.78l-1.17,3.01c-1.04,2.66-.61,3.06.43,3.19l.98.13v.96h-6.41v-.96ZM346.03,359.08l-2.82-6.92-2.66,6.92h5.48Z"/>
    <path class="cls-1" d="M371.35,351.79l-.43,10.59c-.16,4.12-.19,4.39,1.12,4.55l1.01.13v.96h-6.28v-.96l.98-.13c1.3-.19,1.3-.43,1.49-4.55l.56-11.97c.05-1.04-.27-1.33-1.3-1.46l-.98-.13v-.96h6.01l6.54,14.39,6.23-14.39h6.09v.96l-1.01.13c-1.01.13-1.36.43-1.3,1.46l.74,15.06c.05,1.04.32,1.33,1.33,1.46l1.01.13v.96h-8.38v-.96l.98-.13c1.04-.13,1.3-.43,1.25-1.46l-.66-13.68-7.08,16.44h-.48l-7.45-16.44Z"/>
  </g>
</svg>