<?xml version="1.0" encoding="UTF-8"?>
<svg id="Layer_1" data-name="Layer 1" xmlns="http://www.w3.org/2000/svg" viewBox="0 0 500 500">
  <defs>
    <style>
      .cls-1 {
        fill: #fff;
      }
    </style>
  </defs>
  <polygon class="cls-1" points="240.9 186.66 241.95 179.31 232.64 181.9 234.31 172.41 242.44 170.14 243.45 163.02 235.59 165.21 236.88 157.89 247.6 154.9 248.58 148.02 229.36 153.13 226.42 169.78 222.57 191.54 240.9 186.66"/>
  <path class="cls-1" d="M222.76,167.15c-.41-2.05-1.23-4.01-2.46-5.71-5.97-8.28-20.86-.12-20.86-.12l-6.77,38.3c7.98-1.71,15.5-4.42,21.47-10.22,5.7-5.53,10.22-14.11,8.62-22.25ZM203.16,187.52l3.82-20.7s7.21-3.75,7.77,3.54c.66,8.64-11.59,17.16-11.59,17.16Z"/>
  <polygon class="cls-1" points="273.98 170.82 264.67 173.41 270.19 142.3 261.39 144.64 254.6 183.04 272.93 178.16 273.98 170.82"/>
  <path class="cls-1" d="M286.96,167.49l6.18-1.64.95,6.65,6.65-1.72-4.98-35.32-3.59.96-16.6,41.02,8.25-2.2,3.14-7.74ZM292.15,153.75l.43,8.15-3.76,1,3.32-9.16Z"/>
  <path class="cls-1" d="M372.04,179.93c-13.96-19.35-48.76-.28-48.76-.28l-20.64,116.74,25-6.62,3.98-25.38s20.23-9.09,30.66-23.55c12.78-17.71,23.5-41.87,9.77-60.91ZM335.61,239l9.26-47.41s11.85-6.85,13.15,10.19c1.54,20.21-22.4,37.22-22.4,37.22Z"/>
  <path class="cls-1" d="M218.09,279.2c13.71-17.96,22.83-42.55,9.77-60.7-13.97-19.41-48.74-.62-48.74-.62l-20.66,116.87,24.53-6.52,4.66-27.05,13.77,22.13,25.33-6.92-22.4-24.38c4.59-3.07,9.47-7.24,13.73-12.82ZM191.43,277.35l9.26-47.41s11.85-6.85,13.15,10.19c1.54,20.21-22.4,37.22-22.4,37.22Z"/>
  <polygon class="cls-1" points="275.98 212.75 308.62 203.66 311.59 182.71 253.09 198.28 232.42 315.17 288.23 300.32 291.4 277.96 263.06 285.85 268.13 257.76 292.89 251.08 295.96 229.4 272 235.86 275.98 212.75"/>
  <path class="cls-1" d="M94.22,384.67c-16.8,7.09-12.87-58.38-2.66-104.79,10.21-46.41,37.54-82.08,45.9-81.15,8.35.93,6.41,23.24-.41,44.95-7.95,25.31-23.66,61.88-23.66,61.88l36.6-9.74s12.47-36.91,15.84-63.28c3.82-29.98-4.65-51.02-26.37-52.81-30.1-2.48-82.79,56.8-90.59,127.07-7.89,71.13,11.32,101.01,43.63,97.47,23.56-2.58,52.9-47.51,60.05-67.79l-32.11,8.55c-8.31,23.22-18.62,36.44-26.21,39.65Z"/>
  <polygon class="cls-1" points="449.93 165.93 452.91 144.98 394.4 160.55 373.74 277.44 429.55 262.59 432.72 240.23 404.38 248.12 409.45 220.03 434.21 213.35 437.28 191.67 413.32 198.13 417.3 175.02 449.93 165.93"/>
</svg>