<?xml version="1.0" encoding="UTF-8"?>
<svg id="Layer_1" data-name="Layer 1" xmlns="http://www.w3.org/2000/svg" viewBox="0 0 500 500">
  <defs>
    <style>
      .cls-1 {
        fill: #fff;
      }
    </style>
  </defs>
  <g>
    <path class="cls-1" d="M158.68,257.36c-1.34,3.81-5.02,7.2-7.39,10.1l-1.16.48-5.94-1.37c.22-.7,1.92-1.58,2.22-2.05,2.29-2.74,5.21-5.27,6.4-8.61.37-1.24.88-3.57.8-8.21-.06-3.4-.71-5.33-2.3-7.16-1.27-1.53-3.7-2.72-5.42-2.7-1.95.03-3.43-.33-7.92,5.7-4.11,5.48-3.51,13.75-13.61,20.1-1.85,1.11-3.79,1.76-5.58,1.79-4.75.08-7.5-1.74-9.21-6.04-1.3-3.54-2.06-6.85-2.11-10.1-.07-4.41,1.81-10.36,4.54-14.66l5.25,2.39c-1.97,3.2-3.63,8.46-3.57,12.17.05,2.78.64,5.71,1.7,8.48,1.22,3.07,1.37,3.15,3.32,3.12.47,0,.78-.09,2.4-1.12,7.4-4.61,5.74-10.61,11.91-18.83,4.88-6.58,10.23-7.59,12.8-7.63,3.58-.06,8.21,1.96,10.27,4.32,2.78,3.28,3.67,5.59,3.74,10.07.07,4.1-.27,7.2-1.16,9.77Z"/>
    <path class="cls-1" d="M173.42,194.52c-3.03,0-6.15-.51-9.21-.88-1.67-.17-3.33-.35-5-.52l.41.22c-.4.75-.59,1.61-1.07,2.68-.26.65-.58,1.27-.95,1.95-.8,1.51-1.77,3.01-2.53,4.44-.36.68-.58,1.27-.77,1.78-.62,1.51-.84,3.58-1.93,5.63-.62,1.16-1.27,2.22-1.84,3.14.61.67,1.16,1.3,1.77,1.97,6.94,7.82,9.15,10.29,9.44,11.41l-5.31,1.07c-.1-.31-7.78-8.88-8.02-9.27-8.43-9.48-19.1-17.25-25.6-29.21l1.37-.59,1.05-5.13c3.19.79,6.7.8,10.63,1.19,4.45.4,8.56,1.77,12.63,2.24,5.1.66,10.42,1.08,15.98,1.72,3.23.38,6.29.75,9.52.79,3.41.04,5.29.14,5.87,2.2.42,1.53-.04,3.56-.04,3.56,0,0-4.02-.38-6.4-.38ZM147.29,207.16c.69-1.3,1.59-2.67,2.29-4.66.33-.79.66-1.58,1.1-2.4.83-1.57,1.81-3.08,2.53-4.44l.76-1.44c.18-.52.37-1.03.55-1.55-2.08-.22-4.13-.5-6.29-.75-4.38-.54-8.42-1.87-12.45-2.23-2.12-.15-4.38-.2-6.78-.49,4.68,7.43,11.24,13.31,17.65,19.81.19-.69.34-1.31.63-1.86Z"/>
    <path class="cls-1" d="M236.58,127.48c-.2-3.94,0-7.61-.1-11.33l-.31.03c-5.69.98-11.27,2.42-17,2.93l-.56-6.16c5.43-.49,10.92-1.92,16.54-2.82,6.23-1.11,13.03-1.95,20.78-2.65l.56,6.16c-5.27.48-10.15.99-14.62,1.63.15,4.18-.03,8.16.16,11.94.61,10.12,1.61,21.83,2.54,32l-5.43.49c-.94-10.24-1.94-22.03-2.56-32.23Z"/>
    <path class="cls-1" d="M267.77,129.35c.1-.93.3-1.99.48-2.9,1.05-5.47,2.66-10.99,3.65-16.16l5.35,1.01c-1.03,5.39-2.66,10.99-3.65,16.16-.19.99-.35,1.82-.43,2.67-1.61,10.87-3.39,21.4-5.17,30.67l-5.35-1.01c1.78-9.27,3.53-19.64,5.12-30.44Z"/>
    <path class="cls-1" d="M311.62,179.97c.57-3.26,1.65-8.05,2.31-11.04.33-1.63.66-3.27.98-4.9l-.26.39c-.72-.46-1.56-.73-2.58-1.3-.63-.31-1.22-.69-1.87-1.12-1.44-.93-2.85-2.03-4.22-2.92-.65-.42-1.22-.69-1.72-.93-1.45-.76-3.51-1.16-5.47-2.43-1.11-.72-2.11-1.46-2.98-2.11-.73.54-1.41,1.02-2.14,1.57-8.48,6.14-11.16,8.1-12.3,8.28l-.58-5.36c.32-.07,9.62-6.88,10.03-7.08,10.28-7.47,19.05-17.3,31.64-22.63l2.27,1.95,3.24.97c-1.09,3.08-1.42,6.56-2.17,10.41-.82,4.36-2.57,8.31-3.41,12.29-1.13,4.99-2.05,10.21-3.2,15.65-.68,3.16-2.67,9.32-3,12.52l-4.58-2.22ZM301.95,150.94c1.24.8,2.52,1.82,4.45,2.7.76.4,1.52.8,2.3,1.31,1.5.97,2.92,2.07,4.22,2.92l1.37.89c.5.23,1,.46,1.5.69.41-2.04.88-4.04,1.34-6.15.95-4.28,2.65-8.16,3.39-12.11.34-2.08.6-4.32,1.11-6.66-7.88,3.95-14.38,9.89-21.48,15.63.67.25,1.28.46,1.8.8Z"/>
    <path class="cls-1" d="M324.5,192.9c2.77-4.19,5.08-9.64,8.92-12.3,1.1-.73,1.65-1.49,2.73-2.56.72-.77,1.76-1.46,2.97-2.16,1.01-.58,2.06-1.1,3.04-1.58,2.77-1.42,5.99-1.31,8.74-1.83,3.96-.77,8.83-1.52,13.09-.4,4.04,1.06,8.59,5.15,10.55,8.49,2.35,4.01,2.89,9.25,1.42,14.74l-5.72-1.17c.99-3.7.56-7.66-1.08-10.47-1.25-2.14-4.7-5.42-7.04-6.04-2.91-.82-6.24-.51-10.44.31-3.59.64-5.86.61-7.04,1.2-1.05.52-1.96.95-2.77,1.42-.87.5-1.17.77-1.6,1.11.16-.18-1.44,1.55-2.21,2.08-3.79,2.9-5.84,7.4-8.06,11,.22.23.45,1.08,1.51,2.89.66,1.14,3.42,5.54,4.03,6.44,1.07,1.53,1.69,1.97,2.8,2.32,2.39.86,11.26-1.22,14.08-2.85l.96.88c-.31-.53-.73-1.1-1.08-1.7-2.16-3.23-3.78-5.24-4.42-5.41l.12-5.34c3.33,1.39,5.06,3.43,8.19,8.15,3.2,4.86,5.29,8.13,7.99,12.74l-4.04,2.33c-1.17-2.01-2.15-3.68-3.2-5.31l-4.01-.55c-4.9,1.93-13.4,3.71-16.89,2.51-2.46-.82-3.96-2-5.53-4.23-.72-.93-3.59-5.53-4.38-6.87-2.39-4.08-2.73-6.21-1.61-7.84Z"/>
    <path class="cls-1" d="M344.69,233.78c2.44-3.57,6.08-4.09,9.55-5.07,3.7-.99,7.41-1.74,11.2-2.5.39-.09,1.76-.92,2.93-.73,7.68,1.27,22.82,8.3,24,17.08.1.54.12,1.08.13,1.47.16,4.41-1.58,12.05-4.63,15.96-2.01,2.55-3.12,3.98-4.05,4.1.38,1.77-4.45,1.87-4.6,1.95-4.48.94-8.98,1.41-13.19,1.26-7.09-.2-20.4-4.05-23.71-11.28-.77-1.91-1.54-7.99-1.67-11.55-.12-3.32,1.16-6.54,4.04-10.67ZM348.08,253.78c1.78,3.96,10.5,7.9,18.21,8.08,3.75.17,7.47-.2,11.64-1.12l5.07-4.06c2.08-2.71,3.4-9.18,3.28-12.43l-.03-.85c-.63-4.47-9.5-10.41-17.36-12.29-.46.09-1.16.2-2.24.39-3.63.75-7.19,1.42-10.81,2.41-4.86,1.34-5.01,1.34-6.05,2.85-2.07,3.09-3,5.3-2.92,7.46.11,2.86.7,8.49,1.21,9.55Z"/>
    <path class="cls-1" d="M170.77,327.11c2.84-2.76,5.74-5.04,8.47-7.58l-.23-.21c-4.51-3.59-9.29-6.78-13.48-10.71l4.27-4.5c3.96,3.71,8.68,6.85,13.09,10.44,4.96,3.9,10.11,8.4,15.77,13.7l-4.27,4.5c-3.85-3.61-7.47-6.89-10.92-9.8-3.05,2.88-6.17,5.38-8.9,8.03-7.22,7.16-15.39,15.66-22.43,23.09l-3.97-3.71c7.1-7.49,15.32-16.05,22.59-23.26Z"/>
    <path class="cls-1" d="M215.78,388.56l-5.65-2.58c0-1.97.23-8.39.27-11.45,0-1.67-.01-3.33-.02-5l-.17.43c-.8-.31-1.68-.41-2.79-.76-.68-.18-1.33-.44-2.06-.72-1.59-.63-3.2-1.42-4.72-2.02-.72-.28-1.33-.44-1.87-.57-1.58-.45-3.67-.44-5.84-1.3-1.23-.48-2.36-1.01-3.34-1.48-.6.68-1.18,1.28-1.78,1.96-7.08,7.7-9.31,10.15-10.39,10.55l-1.64-5.13c.3-.13,8.04-8.65,8.4-8.92,8.57-9.36,16.67-21.37,27.94-29.09l1.25,2.17,3.26.25c-.45,3.23-.07,6.71-.04,10.63.08,4.44-.85,8.65-.87,12.71-.11,5.11.04,10.41,0,15.97-.03,3.23-.08,6.29.24,9.49,0,.08-.18,4.86-.18,4.86ZM195.05,359.27c1.38.54,2.84,1.28,4.91,1.76.82.24,1.65.48,2.52.82,1.66.65,3.27,1.45,4.72,2.02l1.52.6c.54.13,1.07.25,1.61.38,0-2.08.06-4.14.08-6.29.07-4.38.96-8.52.89-12.54-.08-2.11-.28-4.35-.24-6.75-6.93,5.43-12.1,12.54-17.91,19.57.71.11,1.34.2,1.92.42Z"/>
    <path class="cls-1" d="M236.05,382.4l-.09-5.72c-.04-2.17-.06-3.79-.17-5.33-.5-6.8-.69-13.53-1.34-20.24l.25-8.44,10.5-.79c1.4-.1,2.63-.74,3.8-.76,9.65-.16,14.74,1.54,18.71,6.58,1.67,2.14,2.98,6.45,3.06,11.01.1,6.11-4.78,12.53-9.73,14.08-3.41,1.14-10.96,1.18-14.07,1.23l-.79-5.4c3.19-.05,10.66-.09,13.14-.91,2.87-.9,6.06-5.43,6-8.91-.06-3.48-.88-5.94-1.91-7.24-2.47-3.21-6.46-5-14.32-4.87-1.09.02-2.24.81-3.41.75-2.26-.04-4.28.38-5.75.71-.07.7-.13,1.55-.04,2.4.66,6.8.77,13.6,1.34,20.32.1,1.62.13,3.4.17,5.72l.09,5.72c.06,3.94.26,6.65.69,9.19l-5.43,1.02c-.52-3.32-.66-6.8-.71-10.12Z"/>
    <path class="cls-1" d="M318.94,371.71c-.35-.78-.39-1.44-.26-1.92-2.32-1.94-4.52-4.18-6.68-6.36-1.2-1.16-3.49-3.4-4.69-4.56l.49,1.85c-.78.35-.69.56-1.72,1.1-.61.35-1.25.64-1.96.95-1.56.69-3.26,1.27-4.76,1.94-.71.31-1.25.64-1.71.93-1.43.8-2.89,2.29-5.02,3.24-1.21.53-2.38.97-3.41,1.34.06.9.1,1.74.16,2.64.58,10.41.78,13.71.31,14.76l-4.84-2.43c.12-.31-.59-11.76-.53-12.21-.72-12.63-4.26-25.29-1.92-38.68l1.45.38,4.02-3.39c2.01,2.58,4.77,4.75,7.61,7.47,3.24,3.05,5.62,6.65,8.53,9.52,3.6,3.66,7.51,7.26,11.48,11.17,2.3,2.28,4.47,4.46,6.99,6.47,2.66,2.13,4.06,3.37,3.24,5.34-.62,1.46-1.33,2.36-2.25,2.77-1.71.76-3.61-.26-4.53-2.31ZM290.28,363.66c1.35-.6,2.91-1.12,4.7-2.25.75-.42,1.5-.83,2.35-1.21,1.64-.72,3.33-1.31,4.76-1.94l1.49-.66c.47-.29.93-.58,1.4-.87-1.5-1.45-2.93-2.93-4.47-4.46-3.1-3.11-5.45-6.65-8.39-9.41-1.57-1.42-3.32-2.85-5.02-4.55-.95,8.72.54,17.37,1.53,26.41.58-.42,1.08-.82,1.65-1.07Z"/>
    <path class="cls-1" d="M346.39,353.4c-3.68,1.72-8.69,1.47-12.43,1.82l-3.99.07-.34-5.73c.66-.33,2.48.26,3.03.15,3.58-.29,7.43.01,10.67-1.48,1.15-.61,3.18-1.88,6.46-5.18,2.41-2.42,3.33-4.23,3.54-6.64.21-1.97-.63-4.54-1.85-5.73-1.38-1.36-2.16-2.67-9.64-1.64-6.82.91-12.34,7.12-23.97,4.4-2.09-.54-3.92-1.45-5.19-2.71-3.38-3.32-4-6.54-2.1-10.76,1.63-3.4,3.49-6.25,5.79-8.56,3.12-3.13,6.52-4.9,11.52-5.97l1.96,5.4c-3.68.84-6.43,2.28-9.05,4.92-1.97,1.98-3.66,4.45-4.91,7.14-1.36,3.02-1.3,3.18.08,4.54.33.33.61.49,2.48.92,8.49,2.03,11.65-3.35,21.88-4.72,8.14-1.14,12.61,1.95,14.44,3.75,2.55,2.5,4.33,7.19,4.08,10.31-.42,4.27-1.45,6.52-4.62,9.71-2.9,2.91-5.37,4.84-7.84,6.01Z"/>
    <path class="cls-1" d="M225.58,159.03c-.59.05-1.44-.09-2.43-.32-1.23-1.97-2.67-3.54-3.6-4.88-2.98-4.17-5.72-8.4-8.57-12.65l-1.69-2.69c-2.63-4.2-5.15-8.66-7.9-13.05-1.69-2.69-3.99-5.64-5.16-7.65l-4.72,2.56c1.39,2.51,3.82,5.65,5.26,7.95,2.67,4.27,5.19,8.72,7.9,13.05l1.77,2.82c2.56,3.79,5.09,7.69,7.76,11.51-.47-.16-.9-.26-1.26-.4-5.37-1.69-10.2-2.53-14.24-3.85-4.9-1.52-9.17-3.8-13.83-5.83-4.9-2.25-9.98-4.66-14.76-6.44-1.88-.66-3.29-1.15-4.34-1.51-.83-.3-1.34-.54-1.71-.68l-6.24,6.14c.62.98,1.19,2.63,2.43,4.6,4.4,7.02,9.12,13.67,13.44,20.56,3.41,5.45,7.14,10.52,10.39,15.71l4.62-2.86c-3.29-5.25-7.1-10.46-10.39-15.71-4.4-7.02-9.12-13.67-13.44-20.56-.37-.59-.63-1.16-.94-1.79.04.07.11.03.15.09,1.56.58,3.03,1.04,4.38,1.57,4.95,1.76,9.68,4.03,14.38,6.13,4.71,2.1,9.55,4.57,14.43,6.2,4.83,1.57,9.73,2.36,14.31,3.81,1.87.56,7.78,2.48,11.36,3.54l2.64-5.37Z"/>
  </g>
  <g>
    <path class="cls-1" d="M244.37,311.37c-.07-2.31-.25-4.62-.44-7.06-.27-3.44-.55-6.99-.5-10.61.07-4.25.28-8.63.48-12.86.08-1.59.15-3.18.22-4.78.12-2.67.05-5.33-.03-8.15-.08-3.1-.17-6.3.02-9.5.17-3.01.43-6.06.68-9.02.24-2.8.48-5.69.65-8.53.15-2.47.32-4.94.5-7.41.23-3.32.47-6.75.65-10.12.29-5.54.53-11.26.73-17.51.09-2.67.31-5.33.52-7.91.28-3.31.54-6.44.54-9.58h4.88c0,3.34-.28,6.72-.55,9.98-.21,2.52-.43,5.12-.51,7.67-.2,6.28-.44,12.04-.73,17.61-.18,3.41-.42,6.87-.65,10.21-.17,2.46-.34,4.91-.49,7.37-.18,2.9-.42,5.82-.66,8.65-.25,2.92-.5,5.94-.67,8.89-.17,3-.09,6.1-.01,9.09.07,2.78.15,5.66.03,8.49-.07,1.61-.15,3.21-.23,4.8-.21,4.39-.41,8.54-.48,12.71-.05,3.39.22,6.83.48,10.16.19,2.4.39,4.87.46,7.3l-4.88.14Z"/>
    <path class="cls-1" d="M311.22,251.65s-.09,0-.13,0c-2.51-.12-5.03-.32-7.47-.51-2.4-.19-4.89-.38-7.32-.5-2.98-.14-5.96-.26-8.94-.38-2.26-.09-4.52-.18-6.77-.28-2.44-.11-4.94.21-7.58.54-2.65.34-5.4.68-8.18.59-2.54-.09-5.09-.33-7.54-.56-2.67-.25-5.43-.51-8.11-.56-3.09-.06-6.26,0-9.33.05-2.08.04-4.22.08-6.34.08-2.81-.01-5.64-.14-8.38-.27-2.2-.11-4.48-.22-6.7-.25-3.27-.05-6.44-.6-9.52-1.13-1.93-.33-3.76-.65-5.61-.85-1.67-.18-3.35-.24-5.13-.31-3.36-.12-6.83-.25-10.25-1.24l1.36-4.66c2.84.82,5.87.93,9.07,1.05,1.79.07,3.64.13,5.48.33,2,.22,3.99.56,5.92.89,3.02.52,5.87,1.02,8.75,1.06,2.3.04,4.62.15,6.86.26,2.68.13,5.46.28,8.14.26,2.08,0,4.21-.04,6.26-.08,3.11-.06,6.33-.11,9.51-.05,2.86.06,5.71.32,8.47.58,2.39.22,4.86.45,7.26.54,2.39.09,4.82-.23,7.39-.55,2.73-.35,5.55-.7,8.42-.58,2.25.1,4.5.19,6.75.28,2.99.12,5.98.24,8.97.38,2.51.12,5.03.32,7.48.51,2.07.16,4.19.33,6.29.45.47-.33.98-.47,1.55-.45h0c2.1.58,2.04,2.92,1.64,4.03-.42,1.1-1.38,1.31-2.27,1.31Z"/>
    <path class="cls-1" d="M303.25,279.17c-2.95-1.27-5.79-2.81-8.54-4.3-2-1.08-4.06-2.19-6.12-3.18-2.14-1.02-4.34-1.88-6.68-2.78-2.81-1.09-5.72-2.21-8.48-3.66-2.72-1.42-5.23-3.16-7.66-4.84-2.11-1.46-4.1-2.83-6.2-4.02-2.77-1.55-5.43-3.29-8.01-4.97-1.92-1.25-3.9-2.54-5.88-3.72-2.11-1.26-4.39-2.25-6.81-3.29-2.67-1.15-5.43-2.35-7.98-3.96-2.61-1.65-5.12-3.47-7.55-5.23-1.92-1.4-3.91-2.84-5.9-4.15-.96-.63-2.04-1.33-3.21-2.07-5.5-3.52-12.34-7.89-15.84-12.23l3.81-3.04c3,3.72,9.75,8.03,14.67,11.18,1.19.76,2.29,1.47,3.27,2.11,2.07,1.37,4.1,2.84,6.07,4.27,2.36,1.72,4.81,3.49,7.29,5.06,2.23,1.41,4.7,2.47,7.31,3.6,2.46,1.06,5,2.16,7.39,3.59,2.06,1.23,4.08,2.55,6.04,3.82,2.51,1.64,5.12,3.33,7.74,4.81,2.31,1.3,4.48,2.8,6.59,4.26,2.42,1.67,4.7,3.25,7.15,4.53,2.52,1.32,5.18,2.34,7.98,3.43,2.32.9,4.72,1.83,7.03,2.93,2.16,1.04,4.28,2.18,6.33,3.29,2.78,1.5,5.4,2.92,8.16,4.11l-1.95,4.45Z"/>
    <path class="cls-1" d="M218.76,299.66l-4.41-2.07c2.16-4.54,4.54-9.24,7.27-14.38,1.43-2.69,2.98-5.36,4.47-7.93,1.14-1.97,2.32-4.01,3.43-6.02.99-1.8,1.94-3.69,2.85-5.51,1.62-3.23,3.29-6.56,5.32-9.68,4.41-6.77,8.5-12.56,12.51-17.71,1.66-2.13,3.45-4.17,5.19-6.14,1.84-2.1,3.75-4.27,5.44-6.49,1.63-2.14,3.39-4.2,5.1-6.2,1.82-2.13,3.7-4.33,5.37-6.58,1.53-2.06,3.15-4.1,4.71-6.07,1.8-2.28,3.67-4.63,5.38-6.99l3.96,2.84c-1.78,2.45-3.67,4.84-5.51,7.15-1.54,1.94-3.13,3.95-4.62,5.95-1.77,2.38-3.7,4.64-5.57,6.83-1.66,1.94-3.38,3.95-4.93,5.99-1.79,2.36-3.76,4.59-5.66,6.75-1.69,1.92-3.43,3.91-5.01,5.93-3.93,5.03-7.94,10.71-12.27,17.37-1.88,2.89-3.5,6.11-5.05,9.21-.94,1.87-1.91,3.8-2.94,5.68-1.14,2.06-2.33,4.12-3.49,6.12-1.47,2.54-2.99,5.16-4.38,7.78-2.7,5.07-5.04,9.71-7.17,14.19Z"/>
    <path class="cls-1" d="M272.93,302.88c-1.6-2.72-2.94-5.66-4.23-8.5-1.05-2.3-2.13-4.68-3.34-6.93-2.38-4.4-5.19-9.64-8-15.13-1.19-2.33-2.57-4.67-3.89-6.94-1.51-2.58-3.08-5.25-4.45-8.01-1.32-2.66-2.45-5.42-3.54-8.09-1.03-2.52-2.1-5.13-3.3-7.56-1.11-2.26-2.21-4.52-3.29-6.78-1.36-2.82-2.77-5.74-4.17-8.55-1.37-2.75-2.94-5.45-4.45-8.07-1.29-2.22-2.62-4.52-3.81-6.82-1.24-2.39-2.35-4.8-3.41-7.13-1.32-2.88-2.57-5.6-4-8.16l4.26-2.36c1.53,2.72,2.88,5.66,4.18,8.5,1.04,2.28,2.12,4.63,3.31,6.91,1.14,2.2,2.39,4.35,3.71,6.63,1.55,2.68,3.15,5.44,4.59,8.33,1.42,2.84,2.83,5.77,4.2,8.6,1.08,2.24,2.17,4.49,3.28,6.74,1.27,2.58,2.37,5.27,3.43,7.86,1.06,2.59,2.16,5.27,3.4,7.77,1.3,2.61,2.82,5.2,4.29,7.71,1.36,2.33,2.78,4.73,4.03,7.18,2.79,5.45,5.58,10.66,7.95,15.04,1.29,2.39,2.41,4.85,3.49,7.22,1.3,2.86,2.53,5.56,4,8.06l-4.21,2.45Z"/>
    <path class="cls-1" d="M193.31,276.35l-2.16-4.35c1.7-.84,3.39-1.65,5.07-2.47,3.64-1.76,7.08-3.43,10.51-5.21,2.65-1.38,5.42-2.46,8.1-3.51,2.8-1.09,5.44-2.12,7.92-3.46,2.5-1.34,5.02-2.78,7.46-4.17,2.53-1.44,5.14-2.92,7.78-4.34,2.33-1.25,4.55-2.69,6.9-4.21,2.57-1.67,5.23-3.39,8.07-4.87,2.52-1.31,5.3-2.36,8.24-3.48,2.29-.87,4.66-1.77,6.98-2.82,2.32-1.05,4.6-2.25,7.03-3.51,2.44-1.27,4.97-2.59,7.57-3.77,4.18-1.9,8.3-3.98,12.28-5.99l2.25-1.13,2.2,4.33-2.24,1.13c-4.03,2.03-8.19,4.13-12.46,6.07-2.48,1.13-4.94,2.41-7.33,3.66-2.37,1.24-4.83,2.52-7.27,3.63-2.46,1.12-4.9,2.05-7.26,2.94-2.8,1.06-5.45,2.07-7.72,3.25-2.64,1.37-5.19,3.03-7.67,4.63-2.33,1.51-4.75,3.08-7.25,4.42-2.58,1.38-5.17,2.85-7.66,4.28-2.47,1.4-5.02,2.86-7.57,4.23-2.74,1.47-5.65,2.61-8.45,3.7-2.68,1.05-5.2,2.03-7.62,3.29-3.5,1.82-7.13,3.58-10.64,5.28-1.67.81-3.35,1.62-5.04,2.45Z"/>
  </g>
</svg>