<?xml version="1.0" encoding="UTF-8"?>
<svg id="Layer_1" data-name="Layer 1" xmlns="http://www.w3.org/2000/svg" viewBox="0 0 500 500">
  <defs>
    <style>
      .cls-1 {
        fill: #fff;
      }
    </style>
  </defs>
  <path class="cls-1" d="M6.15,229.79v-1.12h30.15v1.12c-6.25.89-5.58,3.46-4.02,7.48l5.82,14.86c1.76,4.49,8.11,4.53,9.91.05l3.58-8.88c2.68-6.7,1.9-12.62-6.37-13.51v-1.12h20.55v1.12c-3.57.89-8.04,4.36-12.06,14.07l-16.42,39.53h-3.13l-16.86-40.65c-4.02-9.72-6.92-12.06-11.17-12.95Z"/>
  <path class="cls-1" d="M243.62,282.27v1.12h-30.15v-1.12c6.25-.89,5.58-3.46,4.02-7.48l-5.82-14.86c-1.76-4.49-8.11-4.53-9.91-.05l-3.58,8.88c-2.68,6.7-1.9,12.62,6.37,13.51v1.12h-20.55v-1.12c3.57-.89,8.04-4.36,12.06-14.07l16.42-39.53h3.13l16.86,40.65c4.02,9.72,6.92,12.06,11.17,12.95Z"/>
  <path class="cls-1" d="M231.4,229.79v-1.12h30.15v1.12c-6.25.89-5.58,3.46-4.02,7.48l5.82,14.86c1.76,4.49,8.11,4.53,9.91.05l3.58-8.88c2.68-6.7,1.9-12.62-6.37-13.51v-1.12h20.55v1.12c-3.57.89-8.04,4.36-12.06,14.07l-16.42,39.53h-3.13l-16.86-40.65c-4.02-9.72-6.92-12.06-11.17-12.95Z"/>
  <path class="cls-1" d="M493.85,282.27v1.12h-30.15v-1.12c6.25-.89,5.58-3.46,4.02-7.48l-5.82-14.86c-1.76-4.49-8.11-4.53-9.91-.05l-3.58,8.88c-2.68,6.7-1.9,12.62,6.37,13.51v1.12h-20.55v-1.12c3.57-.89,8.04-4.36,12.06-14.07l16.42-39.53h3.13l16.86,40.65c4.02,9.72,6.92,12.06,11.17,12.95Z"/>
  <path class="cls-1" d="M71.04,274.68v-24.12c0-6.7-2.01-11.17-6.25-12.95v-.67c6.7-1.56,15.41-5.58,22.11-9.38h.89c-.67,4.47-.67,14.07-.67,23.01v24.12c0,5.14,1.56,6.03,7.15,6.48v1.12h-30.38v-1.12c5.58-.45,7.15-1.34,7.15-6.48Z"/>
  <path class="cls-1" d="M100.19,281.16l-2.01-15.75h1.12c5.36,9.6,11.17,16.19,16.75,16.19,6.7,0,10.5-3.01,10.5-8.15,0-3.8-2.9-6.7-10.05-9.72l-3.91-1.68c-9.38-4.02-12.62-9.49-12.62-16.42,0-9.83,7.15-18.09,19.66-18.09,5.36,0,9.49.45,13.96,1.56l1.45,14.63h-1.12c-4.91-8.49-9.38-14.41-14.74-14.41-3.91,0-8.04,2.35-8.04,7.48,0,3.91,1.9,6.48,10.16,10.05l3.91,1.68c10.16,4.36,12.51,10.05,12.51,16.3,0,10.72-9.38,18.54-22.11,18.54-6.25,0-11.84-.89-15.41-2.23Z"/>
  <path class="cls-1" d="M148.21,269.99v-32.39h-5.36v-2.68c7.48-4.91,13.74-11.06,18.76-18.32h2.68v12.06h17.64l-1.45,8.93h-16.19v29.93c0,5.36,4.02,7.15,8.71,7.15,3.13,0,6.48-.89,9.49-2.12l.56.67c-6.03,6.59-14.07,10.16-21.22,10.16-7.59,0-13.62-4.02-13.62-13.4Z"/>
  <path class="cls-1" d="M316.17,283.39c-10.5,0-21.67-7.04-27.03-19.32l.89-.56c4.91,6.48,10.72,9.16,16.75,9.16,8.04,0,14.76-5.4,17.76-14.56,1.68-5.11-2.3-10.35-7.68-10.35h-25.05c.22-12.73,9.38-20.21,23.01-20.21,16.19,0,27.7,12.96,27.7,29.71,0,16.3-12.06,26.13-26.36,26.13ZM326.22,245.98c-.33-12.28-6.14-16.42-10.05-16.42-5.14,0-7.15,5.36-7.15,11.84,0,3.57.56,4.58,4.58,4.58h12.62Z"/>
  <path class="cls-1" d="M351.23,274.68v-24.12c0-6.7-2.01-11.17-5.81-12.95v-.67c6.25-1.56,14.96-5.58,21.67-9.38h.89l-.89,13.74c1.34-2.23,2.35-3.91,3.8-5.92,4.16-5.8,7.79-7.74,11.71-7.82,4.52-.08,8.48,3.07,8.9,7.57.5,5.38-3.47,9.4-8.44,9.4s-7.26-5.14-10.39-5.14c-1.68,0-3.46,1-5.36,3.8v31.49c0,5.14,1.9,6.03,8.93,6.48v1.12h-31.72v-1.12c5.14-.45,6.7-1.34,6.7-6.48Z"/>
  <path class="cls-1" d="M395.12,281.16l-2.01-15.75h1.12c5.36,9.6,11.17,16.19,16.75,16.19,6.7,0,10.5-3.01,10.5-8.15,0-3.8-2.9-6.7-10.05-9.72l-3.91-1.68c-9.38-4.02-12.62-9.49-12.62-16.42,0-9.83,7.15-18.09,19.66-18.09,5.36,0,9.49.45,13.96,1.56l1.45,14.63h-1.12c-4.91-8.49-9.38-14.41-14.74-14.41-3.91,0-8.04,2.35-8.04,7.48,0,3.91,1.9,6.48,10.16,10.05l3.91,1.68c10.16,4.36,12.51,10.05,12.51,16.3,0,10.72-9.38,18.54-22.11,18.54-6.25,0-11.84-.89-15.41-2.23Z"/>
</svg>