<?xml version="1.0" encoding="UTF-8"?>
<svg id="Layer_1" data-name="Layer 1" xmlns="http://www.w3.org/2000/svg" viewBox="0 0 500 500">
  <defs>
    <style>
      .cls-1 {
        fill: #fff;
      }
    </style>
  </defs>
  <polygon class="cls-1" points="89.88 185.28 89.88 207.72 89.88 225.47 89.88 270.15 63.15 270.15 63.15 225.47 63.15 207.72 63.15 185.28 40.91 185.28 40.91 328.09 63.15 328.09 63.15 292.39 89.88 292.39 89.88 328.09 112.12 328.09 112.12 185.28 89.88 185.28"/>
  <path class="cls-1" d="M152.94,207.52h26.93v62.64h-26.93v-62.64ZM139.68,185.28l-8.98,8.98v133.84h22.24v-35.7h26.93v35.7h22.24v-133.84l-8.98-8.98h-53.46Z"/>
  <polygon class="cls-1" points="220.71 185.28 220.71 328.09 282.53 328.09 282.53 305.85 242.95 305.85 242.95 185.28 220.71 185.28"/>
  <polygon class="cls-1" points="310.05 185.28 301.1 194.1 301.1 220.98 323.34 220.98 323.34 207.52 350.06 207.52 350.06 220.78 301.1 292.59 301.1 305.65 301.1 328.09 323.34 328.09 354.35 328.09 363.32 328.09 372.3 328.09 372.3 305.85 323.34 305.85 372.3 234.33 372.3 220.84 372.3 194.07 363.35 185.28 310.05 185.28"/>
  <polygon class="cls-1" points="399.8 185.28 390.85 194.1 390.85 220.98 413.09 220.98 413.09 207.52 439.81 207.52 439.81 220.78 390.85 292.59 390.85 305.65 390.85 328.09 413.09 328.09 444.1 328.09 453.07 328.09 462.05 328.09 462.05 305.85 413.09 305.85 462.05 234.33 462.05 194.07 453.1 185.28 399.8 185.28"/>
  <polygon class="cls-1" points="310.05 185.28 301.1 194.1 301.1 220.98 323.34 220.98 323.34 207.52 350.06 207.52 350.06 220.78 301.1 292.59 301.1 305.65 301.1 328.09 323.34 328.09 354.35 328.09 363.32 328.09 372.3 328.09 372.3 305.85 323.34 305.85 372.3 234.33 372.3 220.84 372.3 194.07 363.35 185.28 310.05 185.28"/>
  <polygon class="cls-1" points="399.8 185.28 390.85 194.1 390.85 220.98 413.09 220.98 413.09 207.52 439.81 207.52 439.81 220.78 390.85 292.59 390.85 305.65 390.85 328.09 413.09 328.09 444.1 328.09 453.07 328.09 462.05 328.09 462.05 305.85 413.09 305.85 462.05 234.33 462.05 194.07 453.1 185.28 399.8 185.28"/>
</svg>