<?xml version="1.0" encoding="UTF-8"?>
<svg id="Layer_1" data-name="Layer 1" xmlns="http://www.w3.org/2000/svg" viewBox="0 0 500 500">
  <defs>
    <style>
      .cls-1 {
        fill: #fff;
      }
    </style>
  </defs>
  <g>
    <path class="cls-1" d="M191.98,236.62c1.28,3.98,3.9,3.27,6.1,2.05,6.27-3.48,12.42-7.18,18.51-10.97.96-.6,1.41-2.1,1.97-3.24,1.59-3.21,3.05-6.49,4.73-9.65.39-.73,1.48-1.1,2.25-1.63.48.91,1.3,1.8,1.37,2.75.13,1.75-.18,3.53-.33,5.67,4.19-2.2,8.18-4.2,12.03-6.42.82-.47,1.16-1.78,1.69-2.73,2.12-3.81,4.22-7.63,6.58-11.91,3.81,3.79.04,6.98.45,10.19,4.74-1.96,9.34-4.13,14.12-5.75,3.16-1.07,6.58-1.51,9.91-1.94,1.94-.25,4.01.27,4.51,2.55.5,2.28-1.24,3.57-3.04,4.2-4.8,1.68-9.72,2.98-14.51,4.67-4.51,1.6-8.92,3.46-13.34,5.3-.86.36-1.96.98-2.25,1.75-1.32,3.5-2.39,7.1-3.66,11.01,2.07-1.07,3.63-2.17,5.36-2.7,3-.93,5.12.65,4.77,3.76-.32,2.83-1.34,5.58-2.09,8.36-.89,3.25-1.83,6.5-2.23,9.97,2.26-3.73,4.56-7.45,6.78-11.21,3.28-5.58,6.24-11.36,9.84-16.72,2.35-3.5,5.46-6.53,8.47-9.53,1.54-1.54,3.75-2.03,5.8-.71,1.97,1.27,2.58,3.23,2.12,5.5-1.61,8.07-5.59,14.89-11.28,20.72-.98,1.01-2.54,1.46-4.09,2.31,1.56,1.84,3.26,1.91,4.64.13,2.92-3.77,6-7.5,8.31-11.64,3.75-6.69,6.89-13.72,10.39-20.55,1.05-2.05,2.01-4.44,5.39-4.22-.08,1.61.16,3.19-.28,4.54-4,12.18-8.62,24.01-17.27,33.88-4.46,5.09-12.56,7.54-17.4-1.65-1.87,2.73-3.59,5.35-5.43,7.89-1.34,1.85-2.8,3.63-4.28,5.38-2.05,2.42-5.04,2.06-5.54-1.05-.56-3.52-.03-7.24.27-10.86.12-1.53.86-3,.74-4.73-1.38,3.11-2.79,6.2-4.15,9.32-2.1,4.85-4.17,9.71-6.26,14.56-.2.46-.38.98-.73,1.3-.7.64-1.5,1.16-2.26,1.73-.33-.94-.97-1.9-.92-2.82.15-3.44.53-6.87.89-10.99-2.72,4.69-4.88,8.95-7.56,12.85-2.17,3.16-4.65,6.29-7.58,8.72-3.84,3.18-8.42,1.01-9.24-3.99-1.06-6.48,1.2-12.43,3.21-18.36,1.69-4.97,3.72-9.83,5.81-15.28-2.95,1.51-5.35,3.12-7.99,4-3.53,1.18-7.21,2.17-10.9,2.53-2.71.26-4.45-2.23-3.82-4.49.16-.55.74-.98,1.42-1.84ZM235.68,224.98c-.24-.23-.47-.45-.71-.68-3.04,1.58-6.13,3.06-9.08,4.78-1.01.59-2.01,1.67-2.42,2.76-2.95,7.83-5.85,15.68-8.57,23.59-1.47,4.27-2.57,8.66-3.83,13,.44.18.87.37,1.31.55,9.38-13.8,17.55-28.25,23.29-44ZM273.15,218.84c-5.05,3.38-10.63,14.01-9.6,18.34,4.45-5.51,7.66-11.35,9.6-18.34Z"/>
    <path class="cls-1" d="M269.3,279.72c-1.99,2.47-3.92,4.99-5.98,7.39-.96,1.12-2.08,2.18-3.32,2.95-2.85,1.76-6.09.25-6.44-3.1-.27-2.55-.05-5.16-.05-8.56-2.12,3.26-3.93,5.98-5.68,8.73-.91,1.43-1.63,3-2.64,4.34-.58.78-1.61,1.76-2.38,1.7-.65-.05-1.21-1.43-1.96-2.41-1.07,1.53-2.13,3.41-3.54,4.99-1.43,1.62-2.99,3.33-4.86,4.31-4.22,2.23-8.58-.04-9.63-4.7-.24-1.06-.34-2.14-.67-4.32-2.5,3.03-4.69,5.4-6.54,8.02-2.4,3.4-4.36,7.12-6.84,10.46-1.82,2.44-4.7,3.31-7.54,2.14-2.83-1.16-3.99-3.84-4.08-6.8-.21-6.63,1.67-12.76,5.89-17.79,2.11-2.51,5.2-4.4,8.17-5.93,3.17-1.63,6.53.71,6.85,4.31.12,1.34.02,2.7.02,4.04.33.14.66.28.99.42,1.94-2.91,4.04-5.72,5.76-8.76,1.12-1.97,1.59-4.3,2.54-6.38,1-2.2,3.4-3.1,5.22-2.05,2.09,1.21,1.79,2.94,1.11,4.93-1.6,4.7-3.05,9.46-4.44,14.23-.29.98-.04,2.12-.04,3.19.44.17.89.34,1.33.52,2.24-2.83,4.82-5.46,6.65-8.54,3.97-6.68,7.49-13.63,11.37-20.37.56-.97,2.74-2.18,3.02-1.94,1.15.99,1.86,2.5,2.73,3.81.86-1,2-2.81,3.6-4,1.18-.88,3.35-1.69,4.39-1.16,1.08.54,2.04,2.86,1.8,4.18-.74,4.11-2.07,8.1-3.16,12.15-.24.91-.43,1.84-.3,2.92,6.03-7.49,11.89-15.04,15.59-24.44-3.57,1.16-6.6,2.55-9.76,3.04-2.42.37-5.26.14-7.44-.85-1.31-.6-1.83-3.14-2.45-4.89-.13-.38.83-1.15,1.3-1.74.5.49,1.33.92,1.44,1.49.47,2.33,1.92,2.91,3.96,2.46,6.59-1.47,12.29-4.9,17.26-9.2,2.36-2.04,3.31-5.63,5.15-8.35,1.83-2.72,3.82-5.38,6.07-7.74.77-.81,3.08-1.29,3.77-.75.87.68,1.19,2.61,1.01,3.9-.19,1.39-1.23,2.67-2.25,4.69,2.44-.99,4.25-1.88,6.16-2.47,2.55-.79,5.15-1.72,7.77-1.85,1.27-.07,3.27,1.26,3.75,2.44.35.86-.96,2.96-2.07,3.7-1.87,1.24-4.18,1.81-6.29,2.7-4.68,1.98-9.39,3.89-14,6.03-1.05.49-2.18,1.61-2.53,2.69-2.84,8.6-5.53,17.25-8.18,25.91-.36,1.19-.24,2.53.3,4.14.61-.78,1.37-1.49,1.8-2.35,4.37-8.75,8.64-17.54,13.04-26.27,1.07-2.13,2.5-4.08,3.77-6.11.39.11.79.23,1.18.34.15,1.69.75,3.48.37,5.04-2.72,11.06-5.69,22.07-11.89,31.8-1.44,2.27-3.6,4.37-5.9,5.73-3.78,2.24-8.42.47-10.18-3.71-1.06-2.51-1.38-5.34-2.09-8.27ZM203.32,304.97c.41.15.81.29,1.22.44,1.62-2.43,3.23-4.86,4.65-6.99-1.54-1.87-2.67-3.24-4.37-5.3-.56,4.41-1.02,8.13-1.49,11.85ZM213.33,286.6c-.3-.08-.61-.16-.91-.24-2.59,3.29-3.11,5.74-1.24,8.21.79-2.91,1.47-5.44,2.15-7.97Z"/>
    <path class="cls-1" d="M162.92,340.54c2.61-2.83,5-4.92,6.79-7.43,6.96-9.75,11.57-20.74,15.71-31.85,3.99-10.7,7.2-21.68,11.03-33.37-6.11,3.29-11.16,6.48-16.58,8.79-5.08,2.17-10.51,3.6-15.88,4.97-1.82.46-3.96-.1-5.9-.47-.67-.13-1.16-1.12-1.74-1.72.59-.55,1.15-1.55,1.77-1.59,12.99-.85,22.51-9.1,32.95-15.37,2.31-1.38,4.54-3,7.02-3.94,1.33-.51,3.76-.4,4.55.47,1.42,1.57.63,3.73-1.16,4.88-2.17,1.39-1.73,3.48-2.17,5.47-2.09,9.53-3.99,19.13-6.71,28.48-3.51,12.07-8.06,23.84-14.37,34.75-2.56,4.42-5.65,8.81-9.4,12.22-6.09,5.55-12.83,3.15-14.9-4.88-1.86-7.19-.44-14.28,1.37-21.27,1.74-6.71,4.37-13.05,8.4-18.74.17-.24.28-.55.49-.75,1.42-1.29,2.63-3.57,4.95-2.32,2.05,1.11,1.46,3.25.92,5.11-2.34,8.14-4.85,16.24-7.01,24.44-1.11,4.21-2.09,8.57-.13,14.12Z"/>
    <path class="cls-1" d="M201.52,327.7c-3.47.01-6.53-1.17-8.42-4.4-.49-.84-.49-2.07-.4-3.09.05-.53.74-1.31,1.24-1.4.44-.08,1.23.52,1.53,1.02,1.58,2.63,4.07,3.57,6.65,2.51,5.03-2.07,10.17-4.15,14.7-7.09,11.57-7.51,23.1-15.03,36.26-19.49,3.26-1.1,6.74-1.87,10.16-2.08,1.46-.09,3.73,1.3,4.38,2.63,1.02,2.09-.7,3.91-2.69,4.62-4.4,1.58-8.93,2.79-13.37,4.28-12.1,4.05-23,10.53-33.96,16.88-4.93,2.85-9.99,5.49-16.07,5.62Z"/>
    <path class="cls-1" d="M232.99,265.1c.77-1.19,2.04-3.61,3.77-5.63.59-.69,2.56-.85,3.5-.41.89.42,1.79,1.99,1.74,3-.18,3.47-2.05,6.2-4.97,8.01-2.23,1.38-4.08-.29-4.03-4.97Z"/>
  </g>
  <g>
    <path class="cls-1" d="M105.45,208.16c1.91,4.23,2.09,8.99.52,14.25l-2.95,9.94,14.6,4.34c.53.16.72.5.56,1.03l-5.11,17.22c-.16.53-.5.72-1.03.56l-43.63-12.96c-.53-.16-.72-.5-.56-1.03l8.31-27.94c1.56-5.27,4.3-9.15,8.22-11.66,3.75-2.34,7.72-2.9,11.93-1.65,4.28,1.27,7.33,3.92,9.15,7.92ZM90.79,220.86c-.54.29-.89.7-1.05,1.23l-1.72,5.8,4.15,1.23,1.72-5.79c.16-.53.09-1.06-.2-1.6-.31-.5-.74-.84-1.31-1.01-.57-.17-1.1-.12-1.59.15Z"/>
    <path class="cls-1" d="M129.79,208.06c-.31.46-.69.54-1.15.24l-38.01-25.03c-.46-.3-.54-.69-.24-1.15l9.91-15.05c.3-.46.69-.54,1.15-.24l38.01,25.03c.46.3.54.69.24,1.15l-9.91,15.05Z"/>
    <path class="cls-1" d="M141.52,188.78c-.24.21-.49.28-.77.2-.36-.05-.57-.26-.63-.62l-9.11-32.57-10.45,9.21c-.42.36-.81.34-1.17-.08l-9.12-10.35c-.37-.42-.35-.81.07-1.18l29.35-25.85c.21-.19.46-.25.77-.21.28.08.47.27.59.58l9.86,31.99,9.74-8.58c.41-.37.82-.32,1.21.12l9.09,10.31c.37.42.34.81-.07,1.17l-29.35,25.86Z"/>
    <path class="cls-1" d="M173.86,161.12c-.29.12-.56.1-.79-.07-.32-.16-.45-.43-.38-.8l2.44-33.74-12.95,5.14c-.51.2-.87.05-1.08-.47l-5.09-12.83c-.21-.52-.05-.87.46-1.08l36.36-14.42c.26-.1.52-.08.79.07.23.16.35.41.36.75l-1.53,33.44,12.06-4.78c.52-.2.89-.03,1.1.52l5.07,12.77c.21.52.05.88-.46,1.08l-36.36,14.41Z"/>
    <path class="cls-1" d="M245.19,145.23c-.43,0-.71-.2-.83-.59l-1.7-5.34-13.33-.05c-.2.67-.44,1.44-.72,2.31-.28.87-.64,1.87-1.08,3.01-.12.4-.38.59-.77.59l-14.93-.06c-.32,0-.56-.12-.71-.36-.19-.2-.23-.46-.12-.77l17.07-45.39c.16-.4.44-.59.83-.59l18.02.07c.35,0,.61.2.77.6l16.95,45.52c.08.24.06.5-.06.77-.2.24-.46.35-.77.35l-18.61-.08ZM235.93,119.18c-.32.91-.71,2.06-1.17,3.46-.46,1.4-1.01,3.09-1.65,5.06l5.63.02-2.81-8.54Z"/>
    <path class="cls-1" d="M318.5,168.61c-3.97.73-7.87-.03-11.72-2.3l-25.74-15.16c-.48-.28-.57-.66-.29-1.13l23.1-39.22c.28-.47.66-.57,1.13-.29l25.74,15.16c4.05,2.38,6.75,5.33,8.08,8.82,1.31,3.38,1.14,6.47-.5,9.26-1.35,2.28-3.02,3.95-5.02,5.02-2.13,1.13-4.32,1.61-6.55,1.43,2.76,4.11,2.8,8.44.12,13-1.73,2.93-4.51,4.73-8.34,5.41ZM312.33,148.26l-5.71-3.36-1.47,2.5,5.72,3.37c.85.5,1.52.33,2.01-.5.49-.83.31-1.5-.54-2.01ZM319.1,136.78l-5.72-3.37-1.5,2.55,5.72,3.37c.85.5,1.53.33,2.03-.52.5-.85.32-1.53-.52-2.03Z"/>
    <path class="cls-1" d="M340.97,201.33c-.26-.35-.26-.69-.01-1.02l3.28-4.54-7.88-10.76c-.66.24-1.42.5-2.28.79s-1.89.6-3.07.93c-.39.14-.7.05-.93-.27l-8.83-12.04c-.19-.25-.23-.51-.13-.78.04-.28.23-.46.55-.55l46.64-13.25c.41-.11.74,0,.97.32l10.65,14.53c.21.29.2.61-.02.97l-26.54,40.68c-.14.2-.36.34-.66.41-.31-.02-.55-.15-.74-.41l-11-15.01ZM356.42,178.4c-.92.28-2.08.65-3.48,1.12-1.4.46-3.08,1.03-5.05,1.68l3.33,4.54,5.2-7.34Z"/>
    <path class="cls-1" d="M359.15,248.53c-.06-.27.02-.51.26-.73,1.97-2.16,4.22-3.52,6.72-4.1l8.14-1.87c.96-.22,1.34-.79,1.13-1.72l-1.5-6.53-16.46,3.79c-.54.13-.87-.08-.99-.62l-4.03-17.5c-.12-.54.08-.87.62-1l44.35-10.21c.54-.12.87.08.99.62l6.69,29.05c1.06,4.62.72,8.66-1.04,12.1-1.64,3.26-4.12,5.27-7.43,6.03-5.2,1.2-9.43-.12-12.71-3.95-1.08,4.83-4.19,7.84-9.35,9.03l-3.64.84c-2.04.47-4.24,1.67-6.59,3.59-.27.26-.53.32-.81.19-.3-.05-.49-.26-.56-.6l-3.78-16.41ZM389.02,236.97l-1.5-6.52-3.52.81,1.5,6.53c.08.35.33.63.75.86.45.18.88.22,1.31.12,1.19-.27,1.68-.87,1.47-1.8Z"/>
    <path class="cls-1" d="M369.13,329.05c-1.89-4.25-2.04-9-.45-14.26l3.01-9.92-14.58-4.42c-.53-.16-.71-.5-.55-1.03l5.2-17.19c.16-.53.5-.71,1.03-.56l43.56,13.19c.53.16.72.51.55,1.04l-8.45,27.9c-1.6,5.26-4.36,9.13-8.29,11.61-3.76,2.33-7.74,2.86-11.94,1.59-4.27-1.29-7.31-3.94-9.11-7.96ZM383.86,316.42c.54-.29.89-.7,1.05-1.23l1.75-5.78-4.14-1.26-1.75,5.79c-.16.53-.1,1.06.19,1.6.3.51.73.84,1.3,1.02.57.17,1.1.12,1.59-.14Z"/>
    <path class="cls-1" d="M344.8,329.01c.31-.46.69-.54,1.15-.23l37.88,25.23c.46.31.54.69.23,1.15l-9.99,15c-.3.46-.69.54-1.15.23l-37.88-25.23c-.46-.31-.53-.69-.23-1.15l9.99-14.99Z"/>
    <path class="cls-1" d="M332.89,348.31c.24-.21.49-.28.77-.2.36.05.57.26.63.63l8.91,32.63,10.5-9.15c.42-.36.81-.33,1.17.08l9.06,10.41c.36.42.34.81-.08,1.17l-29.5,25.68c-.21.19-.46.25-.77.2-.28-.08-.47-.27-.59-.59l-9.67-32.05-9.79,8.52c-.42.36-.82.32-1.21-.13l-9.02-10.37c-.37-.42-.34-.81.08-1.17l29.5-25.68Z"/>
    <path class="cls-1" d="M300.45,375.74c.29-.12.56-.09.79.07.32.17.45.44.38.81l-2.62,33.72,12.98-5.07c.52-.2.87-.04,1.07.48l5.02,12.86c.2.52.05.87-.47,1.08l-36.43,14.21c-.26.1-.52.08-.79-.07-.23-.16-.35-.41-.36-.75l1.72-33.43-12.09,4.71c-.51.2-.88.03-1.09-.52l-4.99-12.8c-.2-.52-.05-.88.47-1.08l36.44-14.22Z"/>
    <path class="cls-1" d="M229.05,391.23c.44,0,.71.2.83.6l1.67,5.35,13.33.12c.2-.67.45-1.44.73-2.31.29-.86.65-1.87,1.09-3.01.12-.39.38-.59.78-.59l14.93.14c.32,0,.56.13.71.37.19.2.23.45.11.77l-17.31,45.29c-.16.39-.44.59-.83.58l-18.01-.16c-.36,0-.61-.2-.77-.6l-16.7-45.61c-.08-.24-.06-.5.06-.77.2-.24.46-.35.78-.35l18.61.17ZM238.17,417.33c.32-.9.72-2.06,1.19-3.45.47-1.4,1.03-3.08,1.68-5.05l-5.63-.05,2.76,8.56Z"/>
    <path class="cls-1" d="M155.88,367.47c3.97-.72,7.87.07,11.71,2.35l25.65,15.29c.48.29.57.66.29,1.14l-23.3,39.09c-.28.48-.66.57-1.13.29l-25.66-15.29c-4.03-2.41-6.72-5.36-8.03-8.86-1.29-3.39-1.1-6.48.56-9.26,1.35-2.27,3.04-3.94,5.05-4.99,2.14-1.12,4.33-1.59,6.56-1.4-2.75-4.12-2.76-8.45-.05-13,1.74-2.92,4.53-4.7,8.37-5.36ZM155.11,399.3l5.7,3.4,1.52-2.55-5.7-3.39c-.85-.51-1.52-.33-2.03.51-.51.85-.33,1.53.51,2.03ZM161.94,387.85l5.7,3.4,1.49-2.49-5.7-3.4c-.85-.51-1.52-.34-2.01.49-.5.84-.32,1.51.53,2.01Z"/>
    <path class="cls-1" d="M133.52,334.53c.25.35.25.69,0,1.02l-3.31,4.52,7.81,10.8c.66-.23,1.43-.49,2.29-.78.87-.28,1.89-.59,3.08-.9.39-.14.7-.04.93.28l8.75,12.1c.19.26.23.52.13.78-.05.28-.23.46-.56.55l-46.73,12.96c-.41.11-.73,0-.96-.32l-10.56-14.6c-.21-.29-.2-.62.03-.97l26.79-40.52c.15-.2.37-.34.66-.4.31.02.56.15.74.42l10.91,15.07ZM117.93,357.37c.92-.28,2.09-.64,3.49-1.1,1.4-.45,3.09-1,5.06-1.65l-3.3-4.56-5.25,7.31Z"/>
    <path class="cls-1" d="M115.64,287.29c.06.27-.03.51-.26.72-1.99,2.15-4.23,3.5-6.74,4.06l-8.15,1.83c-.96.22-1.34.79-1.13,1.71l1.47,6.54,16.48-3.7c.54-.12.87.09.99.63l3.93,17.52c.12.54-.09.87-.63.99l-44.41,9.97c-.54.12-.87-.09-.99-.63l-6.53-29.08c-1.04-4.63-.66-8.66,1.11-12.1,1.66-3.24,4.15-5.24,7.46-5.98,5.21-1.17,9.43.17,12.68,4.01,1.1-4.82,4.24-7.81,9.41-8.97l3.64-.82c2.04-.46,4.25-1.64,6.61-3.55.27-.26.54-.32.81-.18.29.05.48.26.56.61l3.69,16.42ZM85.7,298.69l1.47,6.54,3.53-.79-1.47-6.53c-.08-.35-.33-.63-.74-.87-.45-.18-.88-.23-1.3-.13-1.2.27-1.69.86-1.48,1.79Z"/>
  </g>
</svg>