<?xml version="1.0" encoding="UTF-8"?>
<svg id="Layer_1" data-name="Layer 1" xmlns="http://www.w3.org/2000/svg" viewBox="0 0 500 500">
  <defs>
    <style>
      .cls-1 {
        fill: #fff;
      }
    </style>
  </defs>
  <g>
    <g>
      <g id="NTvrsn">
        <g>
          <path class="cls-1" d="M330.79,154.15c-1.63-9.02-6.68-17.25-11.96-24.86-.54-.78-1.12-1.59-1.96-2.05-.98-.53-2.26-.48-3.19.14-2.96,1.96-.28,5.01,1.13,6.96,6.32,8.75,11.18,19.18,10.44,29.94-.15,2.15-.44,4.27.25,6.36.04.12.09.25.19.31.1.07.23.06.35.05,1.3-.08,3.68.31,4.47-1.19.19-.36.24-.78.28-1.18.35-3.49.7-7,.49-10.5-.08-1.34-.25-2.67-.49-3.98Z"/>
          <path class="cls-1" d="M315.7,164.27c-6.68-3.82-14.87-1.55-18.68,5.19-3.64,6.43-1.29,14.88,5.15,18.5,6.47,3.64,14.92,1.34,18.57-5.04,3.75-6.56,1.49-14.91-5.03-18.64Z"/>
          <path class="cls-1" d="M337.09,176.63c-2.78-1.69-5.79-2.21-9-1.81-1.04.13-1.55.45-1.6,1.67-.25,6.36-3.09,11.3-8.52,14.64-1.16.72-.81,1.4-.47,2.26,2.14,5.39,7.73,8.95,13.45,8.56,6.1-.42,11.07-4.62,12.48-10.57,1.36-5.72-1.19-11.65-6.34-14.75Z"/>
          <path class="cls-1" d="M274.07,209.04c-2.87,5.64-2.72,10.71.75,15.39,3.43,4.63,8.24,6.38,13.84,5.14,5.6-1.24,9.04-4.91,10.41-10.51.27-1.12.12-1.91-.95-2.58-2.98-1.87-5-4.57-6.34-7.79-.32-.77-.6-1.18-1.59-1.03-3.83.61-7.49-.06-10.86-1.93-1.12-.62-1.89-.49-2.67.38-.98,1.09-1.94,2.2-2.59,2.93Z"/>
          <path class="cls-1" d="M313.19,193.19c-4.43.9-8.51.49-12.43-1.48-.48-.24-1.54.03-1.99.44-4.52,4.05-5.61,10.99-2.67,16.37,3,5.49,9.44,8.37,15.33,6.72,5.23-1.46,8.65-4.82,9.92-10.16.12-.52-.06-1.47-.42-1.7-3.8-2.42-6.31-5.8-7.72-10.18Z"/>
          <path class="cls-1" d="M325.47,205.33c-1.46,5.79-4.6,10.03-9.75,12.6,1.07,5.55,7.46,9.98,13.68,9.47,5.44-.45,9.45-3.18,11.61-8.17,2.14-4.92,1.37-9.63-1.84-13.95-.66-.89-1.25-1.16-2.39-.67-3.6,1.54-7.36,1.67-11.31.72Z"/>
          <path class="cls-1" d="M290.38,203.5q.61-7.71,6.07-14.96c-2.89-2.97-4.56-6.53-5.12-10.66-.06-.42-.85-1-1.35-1.07-5.22-.69-9.72.81-12.98,5.02-3.28,4.23-3.94,9-1.75,13.94,2.67,6.02,9.07,9.24,15.14,7.73Z"/>
          <path class="cls-1" d="M311.86,219.62c-2.98-.09-5.73-.18-8.64-.27-.41,1.18-.86,2.62-1.42,4.01-1.37,3.37-3.68,5.98-6.76,7.85-1.03.63-1.26,1.16-.82,2.29,2.19,5.63,8.01,9.24,14.05,8.62,6.14-.63,11.09-5.18,12.05-11.18.09-.58-.16-1.57-.58-1.82-3.82-2.28-6.41-5.52-7.88-9.51Z"/>
          <path class="cls-1" d="M289.96,233.42c-4.76,1.05-9.15.38-13.25-1.96-1.1-.63-1.39.18-1.81.83-3.39,5.35-2.62,12.45,1.84,16.92,4.52,4.54,11.66,5.31,17.06,1.83,2.15-1.39,3.82-3.22,4.86-5.56.18-.41-.07-1.39-.42-1.6-4.05-2.39-6.74-5.82-8.27-10.47Z"/>
        </g>
      </g>
      <g id="NTvrsn-2" data-name="NTvrsn">
        <g>
          <path class="cls-1" d="M208.27,248.99c8.1,4.27,17.7,5.38,26.95,5.91.95.06,1.95.1,2.82-.28,1.03-.45,1.77-1.49,1.85-2.6.28-3.54-3.78-3.31-6.18-3.4-10.78-.42-21.99-3.02-30.01-10.24-1.6-1.44-3.09-2.98-5.16-3.72-.12-.04-.25-.08-.37-.04-.11.04-.19.14-.26.24-.74,1.07-2.51,2.71-1.82,4.25.17.37.47.66.76.95,2.53,2.43,5.08,4.87,7.97,6.86,1.11.76,2.26,1.45,3.44,2.07Z"/>
          <path class="cls-1" d="M209.61,230.87c7.13-2.9,10.39-10.75,7.44-17.91-2.81-6.83-10.92-10.19-17.74-7.35-6.85,2.85-10.26,10.92-7.48,17.73,2.85,7,10.82,10.37,17.78,7.53Z"/>
          <path class="cls-1" d="M186.69,240.09c3.05-1.14,5.31-3.2,6.97-5.97.54-.89.6-1.5-.33-2.29-4.85-4.12-6.99-9.4-6.27-15.73.15-1.36-.61-1.5-1.49-1.76-5.57-1.64-11.82.57-15.03,5.31-3.43,5.06-3.18,11.56.63,16.34,3.66,4.6,9.91,6.25,15.52,4.1Z"/>
          <path class="cls-1" d="M200.03,170.49c-2.67-5.74-6.76-8.74-12.58-8.9-5.76-.15-10.1,2.56-12.58,7.73-2.48,5.18-1.71,10.15,1.86,14.67.71.9,1.43,1.27,2.61.84,3.31-1.19,6.68-1.12,10.04-.19.8.22,1.3.26,1.79-.62,1.88-3.39,4.66-5.86,8.22-7.36,1.18-.5,1.55-1.19,1.34-2.34-.26-1.44-.53-2.88-.71-3.85Z"/>
          <path class="cls-1" d="M188.39,211.06c2.02-4.05,4.86-7,8.83-8.88.49-.23.92-1.23.88-1.84-.41-6.06-5.19-11.19-11.24-12.19-6.17-1.02-12.41,2.27-14.74,7.92-2.07,5.02-1.54,9.78,1.89,14.07.33.42,1.19.86,1.6.72,4.25-1.5,8.46-1.39,12.77.19Z"/>
          <path class="cls-1" d="M171.26,213.24c-3.65-4.72-5.06-9.8-3.91-15.45-5.03-2.58-12.45-.28-15.89,4.93-3,4.56-3.32,9.4-.73,14.18,2.56,4.71,6.74,7.02,12.12,7.15,1.11.03,1.69-.27,2-1.47,1-3.78,3.22-6.82,6.4-9.35Z"/>
          <path class="cls-1" d="M194.34,186.74q5.69,5.24,8.04,14.01c4.12-.45,7.96.44,11.55,2.54.37.22,1.31-.05,1.68-.41,3.76-3.69,5.36-8.15,4.06-13.32-1.31-5.2-4.66-8.65-9.9-9.97-6.38-1.61-12.87,1.44-15.42,7.15Z"/>
          <path class="cls-1" d="M168.4,193.72c1.91-2.28,3.68-4.4,5.54-6.63-.67-1.05-1.54-2.29-2.28-3.59-1.8-3.15-2.44-6.58-2.02-10.17.14-1.2-.14-1.71-1.3-2.06-5.79-1.74-12.21.61-15.45,5.74-3.29,5.22-2.76,11.93,1.37,16.38.4.43,1.33.84,1.79.66,4.15-1.6,8.3-1.65,12.34-.34Z"/>
          <path class="cls-1" d="M171.03,167.97c2.11-4.39,5.34-7.44,9.72-9.22,1.17-.48.72-1.21.46-1.94-2.12-5.97-8.18-9.73-14.46-8.98-6.36.76-11.37,5.91-11.96,12.3-.24,2.55.18,5,1.38,7.25.21.39,1.14.8,1.52.65,4.37-1.71,8.74-1.72,13.34-.06Z"/>
        </g>
      </g>
      <g id="NTvrsn-3" data-name="NTvrsn">
        <g>
          <path class="cls-1" d="M194.13,100.93c-7.24,5.61-12.23,13.89-16.54,22.08-.45.84-.9,1.73-.91,2.69-.02,1.12.62,2.22,1.6,2.77,3.11,1.72,4.58-2.07,5.66-4.22,4.84-9.64,11.85-18.77,21.75-23.08,1.97-.86,3.99-1.58,5.53-3.15.09-.09.18-.19.19-.32.01-.12-.05-.23-.11-.34-.67-1.12-1.42-3.41-3.11-3.42-.41,0-.8.15-1.18.3-3.26,1.3-6.54,2.61-9.55,4.41-1.15.69-2.26,1.45-3.31,2.27Z"/>
          <path class="cls-1" d="M210.07,109.64c-.31,7.69,5.49,13.9,13.22,14.18,7.38.27,13.79-5.72,14.03-13.1.24-7.42-5.69-13.86-13.04-14.15-7.55-.3-13.92,5.55-14.22,13.07Z"/>
          <path class="cls-1" d="M211.17,84.96c-.22,3.25.71,6.16,2.54,8.82.59.86,1.12,1.17,2.22.65,5.76-2.71,11.45-2.47,16.92.81,1.17.7,1.62.07,2.22-.63,3.8-4.39,4.38-10.99,1.39-15.88-3.19-5.22-9.21-7.69-15.14-6.2-5.7,1.43-9.79,6.43-10.16,12.43Z"/>
          <path class="cls-1" d="M269,125.93c6.33-.06,10.76-2.53,13.31-7.76,2.52-5.18,1.86-10.26-1.83-14.65-3.69-4.4-8.53-5.76-14.13-4.38-1.12.27-1.75.77-1.85,2.03-.28,3.51-1.75,6.55-3.99,9.22-.54.64-.77,1.08-.17,1.89,2.31,3.11,3.4,6.67,3.3,10.53-.03,1.28.44,1.9,1.57,2.19,1.42.36,2.84.71,3.79.95Z"/>
          <path class="cls-1" d="M236.89,98.53c2.85,3.52,4.36,7.32,4.42,11.71,0,.54.74,1.35,1.31,1.57,5.68,2.14,12.34-.09,15.75-5.18,3.49-5.19,3.07-12.23-1.11-16.7-3.71-3.96-8.26-5.45-13.59-4.11-.52.13-1.28.73-1.32,1.16-.4,4.49-2.24,8.28-5.47,11.55Z"/>
          <path class="cls-1" d="M242,82.04c5.81-1.37,11.02-.55,15.68,2.84,4.43-3.51,5.41-11.22,2.09-16.5-2.91-4.62-7.18-6.91-12.61-6.53-5.35.37-9.18,3.23-11.52,8.07-.48,1-.46,1.64.5,2.43,3.03,2.48,4.87,5.76,5.86,9.7Z"/>
          <path class="cls-1" d="M256.56,114.01c-7.12,3.01-7.15,3.01-16.08,1.52-1.3,3.93-3.69,7.06-7.09,9.46-.35.25-.5,1.21-.33,1.69,1.8,4.95,5.2,8.25,10.44,9.21,5.27.96,9.81-.66,13.18-4.88,4.11-5.14,4.02-12.31-.12-17Z"/>
          <path class="cls-1" d="M260.95,87.52c1.29,2.68,2.48,5.17,3.74,7.79,1.24-.18,2.72-.45,4.22-.59,3.62-.34,7,.5,10.09,2.37,1.03.62,1.61.58,2.41-.33,3.98-4.55,4.5-11.37,1.17-16.44-3.39-5.16-9.71-7.45-15.48-5.53-.56.18-1.32.87-1.35,1.35-.26,4.44-1.94,8.24-4.8,11.37Z"/>
          <path class="cls-1" d="M283.3,100.57c3.13,3.74,4.56,7.94,4.37,12.66-.05,1.26.8,1.15,1.57,1.22,6.31.54,12.25-3.42,14.16-9.44,1.94-6.1-.67-12.79-6.25-15.98-2.22-1.27-4.62-1.91-7.17-1.75-.45.03-1.2.7-1.22,1.11-.25,4.69-2.05,8.67-5.47,12.17Z"/>
        </g>
      </g>
    </g>
    <g>
      <path class="cls-1" d="M105.64,289.89c2.1,6.12,3.37,20.69,3.37,28.71,0,17.25-6.67,21.08-11.36,21.08-5.83,0-6.65-5.76-6.65-11.98v-37.81h-11.79v31.17c0,12.38-3.27,18.63-9.69,18.63s-6.91-5.63-6.91-11.1v-38.7h-12.83v38.96c0,8.38,2.88,18.37,16.63,18.37,6.61,0,12.67-3.24,15.85-8.45l.65-1.05.52,1.11c2.52,5.63,7.1,8.38,14.01,8.38,14.64,0,24.49-11.72,24.49-31.01,0-7.4-1.51-22.49-3.37-26.32h-12.93Z"/>
      <rect class="cls-1" x="134.13" y="306.34" width="11.65" height="39.96"/>
      <path class="cls-1" d="M140,286.79c-3.83,0-6.96,3.13-6.96,6.96s3.13,6.96,6.96,6.96,6.96-3.13,6.96-6.96-3.13-6.96-6.96-6.96Z"/>
      <path class="cls-1" d="M181.91,305.17c-6.8,0-12.04,3.6-14.86,10.16l-.7-8.99h-10.79v39.96h11.65v-16.26c0-9.07,4.06-16.5,9.93-16.5,4.07,0,5,3.83,5,10.4v22.36h11.65v-26.04c0-10.48-3.75-15.09-11.88-15.09Z"/>
      <path class="cls-1" d="M237.97,315.8c0-7.19-6.41-10.63-14.7-10.63-12.75,0-22.2,8.52-22.2,22.52s9.54,19.78,20.95,19.78c5.86,0,11.1-1.41,15.01-4.38l.23-8.13c-3.75,2.89-8.68,4.07-12.82,4.07-6.57,0-10.08-3.13-11.1-9.07,12.75-.16,24.63-4.38,24.63-14.15ZM213.11,324.24c.47-7.97,4.38-12.2,9.77-12.2,2.19,0,5.08.62,5.08,4.14,0,5.39-7.03,7.66-14.86,8.05Z"/>
      <path class="cls-1" d="M255.89,304.54c0-4.22,4.38-5.78,9.22-5.78,5.08,0,10.71,1.8,15.64,5.24l2.03-8.44c-4.22-3.21-10.32-5.16-17.44-5.16-12.51,0-19.78,6.02-19.78,15.72,0,18.77,27.76,15.25,27.76,26.11,0,4.14-3.83,6.49-10.09,6.49-6.64,0-12.51-2.74-17.44-6.8l-2.03,8.99c4.93,4.22,12.43,6.57,20.1,6.57,12.59,0,20.49-6.33,20.49-16.42,0-19.24-28.46-16.34-28.46-26.51Z"/>
      <path class="cls-1" d="M305.94,330.5v-16.18h10.08v-7.98h-10.08v-10.16h-11.65v10.16h-4.85v7.98h4.85v16.89c0,12.43,4.3,16.26,12.9,16.26,3.67,0,7.11-.94,9.38-2.03v-8.76c-2.11,1.17-3.59,1.41-5.55,1.41-3.91,0-5.08-2.03-5.08-7.58Z"/>
      <path class="cls-1" d="M382.42,326.67c0-8.83,4.93-13.06,12.28-13.06,2.73,0,5.55.62,7.66,1.95l.7-8.29c-2.97-1.49-7.35-2.11-10.79-2.11-12.82,0-21.81,7.5-21.81,21.42,0,12.9,7.66,20.88,20.95,20.88,3.6,0,8.84-.86,11.96-3.21l.16-8.05c-2.74,1.95-5.86,2.73-9.54,2.73-7.97,0-11.57-4.92-11.57-12.28Z"/>
      <path class="cls-1" d="M436.85,317.64c5.86-4.92,10.16-10.94,12.51-17.44h-11.73c-2.5,7.66-7.58,14.23-15.01,18.38v-28.58h-11.65v56.29h11.65v-20.13c2.11-.86,4.07-1.8,5.94-2.89l9.46,23.02h12.2l-13.37-28.65Z"/>
      <path class="cls-1" d="M342.79,305.17c-11.79,0-21.38,9.59-21.38,21.38s9.59,21.38,21.38,21.38,21.38-9.59,21.38-21.38-9.59-21.38-21.38-21.38ZM342.77,312.65c5.86,0,8.76,4.6,8.76,13.72s-2.97,13.8-8.76,13.8-8.76-4.22-8.76-13.8,2.97-13.72,8.76-13.72Z"/>
    </g>
  </g>
  <g>
    <path class="cls-1" d="M146.22,377.98c0,1.27-.99,3.67-1.77,6.96-1.42,6.01-3.58,16.27-3.58,23.42,0,3.63.56,6.46,2.06,7.52.73.51,1.48.76,2.25.76,2.05,0,4.28-1.76,6.61-5.07,6.94-9.84,12.26-30.17,12.26-40.45,0-3.14-.45-5.45-1.69-6.08-.28-.14-.4-.39-.4-.63,0-.4.32-.81.74-.81.26,0,.51.17.68.29,1.6,1.11,2.3,3.97,2.3,7.83,0,11.34-6.02,31.3-12.66,40.72-2.35,3.34-5.09,5.73-7.88,5.73-1.03,0-2.07-.33-3.1-1.05-2.1-1.48-2.83-4.88-2.83-9.02,0-5.65,1.37-12.69,2.54-18.11-4.59,11.09-10.28,21.82-14.91,22.42-.43.06-.86.02-1.25-.11-1.98-.67-2.77-3.57-2.77-7.59,0-7.53,2.75-19,5.58-27.17-.74.27-1.25-.4-1.03-.97,2.22-5.55,5.29-8.59,5.38-8.68.16-.15.33-.22.51-.22.41,0,.78.37.78.78,0,.13-.04.26-.12.39-4.59,7.16-9.45,26.73-9.45,36.46,0,2.84.41,4.84,1.37,5.45.22.14.45.2.81.16,3.91-.5,11.61-15.04,16.42-28.56.67-1.89,1.37-5.34,2.45-5.34.48,0,.7.46.7.98Z"/>
    <path class="cls-1" d="M164.73,407.19c0-.27.01-.54.04-.81.32-3.79,2.53-9.17,4.43-12.99.14-.29.39-.41.63-.41.4,0,.81.31.81.74,0,.11-.03.22-.08.34-.85,1.72-4.36,9.42-4.36,13.26,0,1.47.45,2.19,1.75,2.19,3.49,0,8.4-3.57,15.91-10.53.15-.14.32-.2.49-.2.41,0,.79.38.79.79,0,.18-.07.36-.24.52-7.41,6.87-12.52,10.94-16.9,10.94-2.47,0-3.25-1.68-3.25-3.85ZM171.5,388.85c-.07-.18-.08-.4-.02-.57.21-.59.23-1.26.72-1.81.46-.52,1.2-.14,1.31.35.01.06.04.25.04.53,0,.66-.18,1.83-1.24,2.89-.16.16-.33.22-.5.22-.41,0-.79-.38-.79-.79,0-.33.32-.59.49-.81Z"/>
    <path class="cls-1" d="M155.01,434.53c0-2.48,1.85-5.88,5.56-9.55,6.12-6.06,12.15-10.71,18.88-15.02,2.49-5.95,4.88-12.41,6.29-16.47.12-.34.39-.49.68-.49.39,0,.8.29.8.72,0,.08-.01.17-.05.26-1.29,3.71-3.24,9.04-5.51,14.59,5.28-3.25,10.97-6.34,17.37-9.69.12-.06.24-.09.35-.09.42,0,.75.41.75.81,0,.24-.12.48-.39.62-7.14,3.75-13.27,7.07-19.07,10.77-3.84,9.09-7.71,17.17-12.46,21.94-3.48,3.49-6.9,5.28-9.43,5.28-2.19,0-3.76-1.48-3.76-3.67ZM158.75,436.63c1.84,0,4.82-1.2,8.38-4.78,4.24-4.26,7.57-10.89,11.25-19.39-5.87,3.91-11.3,8.2-16.75,13.6-3.82,3.78-5.05,6.72-5.05,8.49,0,1.45.71,2.08,2.17,2.08ZM187.44,388.84c-.07-.18-.08-.4-.02-.57.21-.59.23-1.26.72-1.81.46-.52,1.2-.14,1.31.35.01.06.04.25.04.53,0,.66-.18,1.83-1.24,2.89-.16.16-.33.22-.5.22-.41,0-.79-.38-.79-.79,0-.33.32-.59.49-.81Z"/>
    <path class="cls-1" d="M209.66,396.67c-2.15,0-7.66,5.14-12.89,13.68,0,0-.27,1.04-1.22.39-.16-.11-.23-.38-.23-.78,0-3.01,4.18-13.29,5.62-15.6.15-.25.38-.35.6-.35.4,0,.81.33.81.75,0,.13-.04.26-.12.39-1,1.61-2.96,6.76-4.23,10.56,4.26-6.12,8.57-10.57,11.62-10.57,2.09,0,2.85,1.71,2.85,4.25,0,1.43-.25,3.18-.69,5.2-.12.55-.17,1.03-.17,1.44,0,1.36.41,2.06,1.63,2.06,2.01,0,6.23-2.09,12.55-9.08.16-.17.34-.25.53-.25.41,0,.8.37.8.78,0,.16-.06.33-.2.48-5.87,6.48-10.55,9.65-13.57,9.65-2.09,0-3.25-1.57-3.25-3.61,0-.57.08-1.18.21-1.8.45-2.06.62-3.61.62-4.74,0-2.13-.51-2.87-1.25-2.87Z"/>
    <path class="cls-1" d="M237.99,392.06c0-.41.39-.78.8-.78.59,0,.93.81.93,1.32,0,2.84-7,6.97-11.04,9.15,1.28,1.47,2.56,3.49,4.14,4.81,1.01.85,1.99,1.51,3.33,1.51,2.38,0,5.91-2.11,12.78-9.06.16-.16.33-.22.51-.22.41,0,.79.38.79.79,0,.17-.06.35-.22.5-6.94,7.02-10.96,9.45-13.94,9.45-4.2,0-6.94-5.08-8.78-7.06-.51.26-1,.49-1.45.69-1.63,4.66-2.85,8.61-3.3,10.94-.08.41-.4.59-.72.59-.39,0-.78-.26-.78-.72,0-2.24,1.55-6.05,2.95-10.13-.72.12-1.58-.24-1.58-1.16,0-1.05,1.71-2.39,2.91-2.62,4.36-12.1,10.77-27.3,13.89-32.05.04-.06.41-.85,1.03-.85s.95.53.95,1.24c0,2.21-2.54,7.36-7.25,14.6-.08.13-.25.25-.41.32-2.29,5.42-4.67,11.5-6.65,16.94.24.1.45.23.65.38,5.5-2.91,10.68-7.02,10.68-8,0-.2-.22-.38-.22-.58Z"/>
    <path class="cls-1" d="M256.68,393.06c.64,0,1.26.51,1.56.76,1.08.9,1.66,2.21,1.88,3.63,1.77,1.19,4.15,1.67,6.67,1.67,1.23,0,2.5-.11,3.74-.32.05,0,.09-.01.14-.01.46,0,.72.4.72.78,0,.33-.19.65-.61.72-1.32.21-2.68.34-4.03.34-2.31,0-4.59-.38-6.53-1.38-.17,5.02-3.73,11.85-8.38,11.85-3.32,0-4.45-2.68-4.45-5.62,0-1.37.24-2.8.61-4.09,1.07-3.68,3.44-7.54,6.52-7.87.03,0,.06,0,.09,0,.46,0,.72.39.72.78,0,.35-.21.69-.65.74-2.62.28-5.8,5.87-5.8,10.49,0,2.34.87,4.08,2.89,4.08,3.44,0,6.93-5.97,6.93-10.68,0-.22,0-.43-.02-.65-1.25-1.01-3.16-3.11-3.16-4.11,0-.56.57-1.11,1.15-1.11Z"/>
    <path class="cls-1" d="M256.7,434.88c0-1.6.89-4.28,1.84-7.29,1.63-5.16,4.61-11.2,7.42-15.9,1.54-4.36,3.45-9.68,4.66-13.38-.38-.16-.57-.6-.42-.99l2.36-5.81c.13-.32.4-.45.67-.45.39,0,.79.28.79.73,0,2.56-2.42,8.28-4.55,14.43,5.09-7.34,10.6-13.24,14.48-13.24,2.98,0,4.17,2.26,4.17,4.92,0,.7-.08,1.43-.23,2.15,4.14-.61,7.45-.97,12.28-1.25.02,0,.04,0,.05,0,.47,0,.72.39.72.77,0,.36-.22.72-.69.75-5.07.3-8.57.68-12.81,1.34-1.76,5.17-6.7,11.09-13.65,11.55-.12,0-.25.01-.37.01-2.14,0-3.51-1.28-3.51-3.16s1.42-4.19,3.91-5.7c3.26-1.98,7.52-3.22,12.43-4.05.24-.9.36-1.75.36-2.5,0-2.14-.83-3.3-2.67-3.3-3,0-9.4,6.53-14.99,15.22-.55.86-1.1,1.74-1.63,2.63-2.05,5.81-4.69,13.18-6.43,18.21-1.01,2.92-1.83,5.85-3.16,5.85-.78,0-1.05-.66-1.05-1.52ZM259.02,431.33c1.1-2.98,2.06-5.89,3.32-9.42-1.37,3.1-2.46,6.21-3.32,9.42ZM274.64,405.64c-2.19,1.33-3.19,3.2-3.19,4.43,0,.94.48,1.63,1.92,1.63.11,0,.22,0,.34-.01,5.77-.38,10.19-5.18,12.03-9.76-4.46.81-8.26,1.98-11.1,3.71Z"/>
    <path class="cls-1" d="M312.1,396.34c0,.18-.02.36-.05.54-.47,2.44-3.73,3.8-8.51,3.8-.93,0-1.91-.05-2.94-.15-.43,1.16-.72,2.35-.72,3.44,0,1.88.86,3.44,3.32,3.92.95.19,1.95.28,3,.28,6.14,0,13.8-3.14,19.43-9.13.16-.17.34-.24.52-.24.41,0,.79.37.79.78,0,.16-.06.33-.21.49-5.81,6.19-13.75,9.62-20.46,9.62-1.16,0-2.29-.1-3.36-.31-3.33-.65-4.51-2.9-4.51-5.45,0-1.59.46-3.29,1.15-4.79,1.6-3.47,4.83-5.76,8.42-5.76,2.37,0,4.14,1.03,4.14,2.97ZM310.59,396.26c0-.51-.26-1.05-1.31-1.25-.45-.08-.9-.13-1.36-.13-2.5,0-5.09,1.29-6.66,4.18.7.05,1.36.07,1.98.07,4.54,0,7.35-1.06,7.35-2.87Z"/>
    <path class="cls-1" d="M327.66,392.97c1.04,0,1.37,1.02,1.37,1.74,0,1.08-.47,2.53-1.4,4.31,1.56.27,2.98.56,2.98,2.27,0,.76-.26,1.71-.75,2.85-2.62,6.14-3.27,9.4-3.27,10.77,0,.61.05.87.44.87,1.99,0,10.57-8.53,16.82-16.7.16-.21.36-.29.56-.29.41,0,.8.35.8.77,0,.14-.05.3-.16.44-5.37,7.02-14.06,17.25-18.11,17.25-1.39,0-1.97-1.15-1.97-2.6,0-2.23,1.25-5.85,3.49-11.11.52-1.23.68-1.88.68-2.24,0-.4-.2-.43-.32-.48-.42-.18-1.43-.23-2.56-.55-1.1-.31-1.45-1.48-1.45-2.69,0-2.07.77-4.61,2.85-4.61ZM327.51,394.51c-.54.17-1.14,1.62-1.14,2.99,0,.2.01.4.04.59.91-1.78,1.16-3.11,1.1-3.58Z"/>
    <path class="cls-1" d="M341.77,407.19c0-.27.01-.54.04-.81.32-3.79,2.53-9.17,4.43-12.99.14-.29.39-.41.63-.41.4,0,.81.31.81.74,0,.11-.03.22-.08.34-.85,1.72-4.36,9.42-4.36,13.26,0,1.47.45,2.19,1.75,2.19,3.49,0,8.4-3.57,15.91-10.53.15-.14.32-.2.49-.2.41,0,.78.38.78.79,0,.18-.07.36-.24.52-7.41,6.87-12.52,10.94-16.9,10.94-2.47,0-3.25-1.68-3.25-3.85ZM348.53,388.85c-.07-.18-.08-.4-.02-.57.21-.59.23-1.26.72-1.81.46-.52,1.2-.14,1.31.35,0,.06.04.25.04.53,0,.66-.18,1.83-1.24,2.89-.16.16-.33.22-.5.22-.41,0-.79-.38-.79-.79,0-.33.32-.59.49-.81Z"/>
    <path class="cls-1" d="M332.04,434.53c0-2.48,1.85-5.88,5.56-9.55,6.12-6.06,12.15-10.71,18.88-15.02,2.49-5.95,4.88-12.41,6.29-16.47.12-.34.39-.49.68-.49.39,0,.8.29.8.72,0,.08-.01.17-.05.26-1.29,3.71-3.24,9.04-5.5,14.59,5.28-3.25,10.97-6.34,17.37-9.69.12-.06.24-.09.35-.09.42,0,.75.41.75.81,0,.24-.12.48-.39.62-7.14,3.75-13.27,7.07-19.07,10.77-3.83,9.09-7.71,17.17-12.46,21.94-3.48,3.49-6.9,5.28-9.43,5.28-2.19,0-3.76-1.48-3.76-3.67ZM335.78,436.63c1.84,0,4.82-1.2,8.38-4.78,4.24-4.26,7.57-10.89,11.26-19.39-5.88,3.91-11.3,8.2-16.75,13.6-3.82,3.78-5.05,6.72-5.05,8.49,0,1.45.71,2.08,2.17,2.08ZM364.48,388.84c-.07-.18-.08-.4-.02-.57.21-.59.23-1.26.72-1.81.46-.52,1.2-.14,1.31.35,0,.06.04.25.04.53,0,.66-.18,1.83-1.24,2.89-.16.16-.33.22-.5.22-.41,0-.79-.38-.79-.79,0-.33.32-.59.49-.81Z"/>
  </g>
</svg>