<?xml version="1.0" encoding="UTF-8"?>
<svg id="Layer_1" data-name="Layer 1" xmlns="http://www.w3.org/2000/svg" viewBox="0 0 500 500">
  <defs>
    <style>
      .cls-1 {
        fill: #fff;
      }
    </style>
  </defs>
  <g>
    <g>
      <rect class="cls-1" x="189.08" y="182.54" width="21.71" height="32.94" transform="translate(-81.17 175.35) rotate(-40.06)"/>
      <rect class="cls-1" x="301.72" y="188.25" width="32.94" height="21.71" transform="translate(-39.16 313.95) rotate(-49.85)"/>
      <polygon class="cls-1" points="258.41 182.29 207.58 225.03 221.55 241.65 259.06 210.35 296.51 241.71 310.51 225.11 259.75 182.29 259.09 181.73 259.08 181.73 259.07 181.73 258.41 182.29"/>
      <rect class="cls-1" x="188.44" y="261.86" width="141.25" height="22.3"/>
      <rect class="cls-1" x="188.41" y="302.63" width="141.25" height="22.3"/>
    </g>
    <g>
      <path class="cls-1" d="M106.29,217.18l-30.66-8.66,2.97-10.52c1.46-5.18,5.27-5.07,8.94-4.03l16.22,4.58c3.67,1.04,6.97,2.93,5.5,8.11l-2.97,10.52ZM86.81,199.65c-2.41-.68-3.62-.5-4.18,1.5l-.91,3.22,21.55,6.09.91-3.22c.57-2-.34-2.77-2.78-3.46l-14.59-4.12Z"/>
      <path class="cls-1" d="M115.27,189.77l-28.71-13.79,5.93-12.34,4.27,2.05-3.48,7.25,7.49,3.6,3.38-7.04,4.27,2.05-3.38,7.04,8.42,4.05,3.48-7.25,4.26,2.05-5.93,12.34Z"/>
      <path class="cls-1" d="M145.69,143.77l-15.87-10.53,11.95,14.82-5.03,5.51-25.86-18.92,4.02-4.4,18.23,14.5-14.7-18.37,3.58-3.92,19.63,12.97-16.1-16.83,4.02-4.4,21.19,24.04-5.06,5.54Z"/>
      <path class="cls-1" d="M161.41,129.16l-18.87-25.68,11.04-8.11,2.8,3.81-6.48,4.76,4.92,6.7,6.3-4.63,2.8,3.81-6.3,4.63,5.54,7.54,6.48-4.76,2.8,3.81-11.04,8.12Z"/>
      <path class="cls-1" d="M192.83,109.7c-.83-.71-2.06-3.19-2.97-5.01l-2.14-4.31c-1.01-2.03-2.21-2.38-3.66-1.66l-3.03,1.51,6.12,12.3-5.06,2.52-14.19-28.53,9.68-4.82c4.79-2.38,7.3.24,8.99,3.65l.48.96c1.29,2.59,2.88,6.22-.74,8.71,4.18-1.52,5.74,1.35,7.08,4.04l2.13,4.27c.79,1.58,1.68,3.29,2.28,3.89l-4.96,2.47ZM181.88,88.63c-1.03-2.07-2.03-2.78-3.82-1.88l-3,1.49,3.86,7.75,3.07-1.53c1.72-.86,1.79-2.01.89-3.83l-.99-2Z"/>
      <path class="cls-1" d="M208.21,103.41l-9.24-30.48,11.85-3.6,1.37,4.53-6.44,1.95,2.41,7.95,6.22-1.89,1.37,4.53-6.22,1.88,4.09,13.47-5.41,1.64Z"/>
      <path class="cls-1" d="M245.34,95.48l-1.53-31.82,13.68-.66.23,4.73-8.03.39.4,8.3,7.8-.38.23,4.73-7.8.38.45,9.34,8.03-.39.23,4.73-13.68.66Z"/>
      <path class="cls-1" d="M282.6,96.67l-4.89-19.68-2.24,18.76-5.15-.66,4.04-31.61,5.42.69,5.04,19.73,2.25-18.8,5.15.66-4.04,31.61-5.57-.71Z"/>
      <path class="cls-1" d="M311.8,103.96l-2.89-14.12-3.85,11.94-5.39-1.74,9.79-30.33,5.38,1.74-3.83,11.87,9.51-10.04,5.46,1.76-12.3,12.69,3.65,18-5.53-1.78Z"/>
      <path class="cls-1" d="M335.92,115.01l6.65-12.37-5.22-2.81-6.65,12.37-4.98-2.68,15.09-28.05,4.98,2.68-6.2,11.52,5.22,2.81,6.2-11.52,4.98,2.68-15.09,28.06-4.98-2.68Z"/>
      <path class="cls-1" d="M379.73,106.65l4.41,3.55-15.4,19.12c-3.19,3.96-7.6,4.1-11.71.8-4.08-3.28-4.9-7.65-1.72-11.61l15.4-19.12,4.4,3.55-14.75,18.31c-1.69,2.1-1.89,3.76-.28,5.07,1.68,1.35,3.25.69,4.89-1.35l14.75-18.31Z"/>
      <path class="cls-1" d="M372.56,143.48l23.44-21.58,3.83,4.16-23.44,21.58-3.83-4.16Z"/>
      <path class="cls-1" d="M383.61,156.1l3.89-2.69,23.99-4.67-5.52-7.97,3.89-2.69,8.82,12.75-3.89,2.69-23.97,4.7,5.49,7.94-3.89,2.69-8.82-12.75Z"/>
      <path class="cls-1" d="M397.94,178.56l28.79-13.64,5.87,12.38-4.28,2.03-3.44-7.27-7.51,3.56,3.34,7.06-4.28,2.03-3.34-7.06-8.45,4,3.44,7.27-4.28,2.03-5.86-12.38Z"/>
      <path class="cls-1" d="M411.13,213.42l16.29-12.06-18.19,5.12-1.37-5.01,30.74-8.39,1.44,5.27-16.29,12.22,18.23-5.13,1.37,5.01-30.74,8.39-1.48-5.42Z"/>
    </g>
    <g>
      <path class="cls-1" d="M79.86,314.31l29.71-11.51,3.95,10.19c1.95,5.02-1.16,7.22-4.72,8.59l-15.72,6.09c-3.55,1.38-7.33,1.85-9.28-3.17l-3.95-10.19ZM105.97,316.62c2.33-.9,3.19-1.77,2.44-3.71l-1.21-3.12-20.88,8.09,1.21,3.12c.75,1.94,1.94,2.02,4.3,1.1l14.14-5.48Z"/>
      <path class="cls-1" d="M99.71,355.48c.63-.88,3-2.33,4.74-3.39l4.11-2.51c1.94-1.18,2.18-2.41,1.34-3.79l-1.76-2.89-11.72,7.15-2.95-4.83,27.19-16.59,5.63,9.22c2.79,4.57.39,7.29-2.86,9.27l-.92.56c-2.46,1.5-5.94,3.4-8.73.01,1.88,4.04-.85,5.84-3.41,7.4l-4.07,2.49c-1.51.92-3.13,1.96-3.68,2.61l-2.89-4.73ZM119.75,342.75c1.97-1.2,2.59-2.26,1.55-3.97l-1.75-2.86-7.39,4.51,1.78,2.92c1,1.64,2.16,1.61,3.9.55l1.9-1.16Z"/>
      <path class="cls-1" d="M111.67,372.16l24.57-20.27,3.6,4.36-24.58,20.27-3.6-4.36Z"/>
      <path class="cls-1" d="M135.23,396.7l7.18-18.96-12.52,14.14-3.86-3.47,21.31-23.68,4.06,3.66-7.09,19.09,12.55-14.17,3.86,3.47-21.31,23.68-4.17-3.76Z"/>
      <path class="cls-1" d="M163.75,417.16l.56-14.39-6.59,10.67-4.81-2.97,16.73-27.11,4.81,2.97-6.55,10.61,11.62-7.48,4.88,3.01-14.97,9.39-.74,18.35-4.94-3.05Z"/>
      <path class="cls-1" d="M199.99,419.12l1.42-4.47,11.66,3.69-1.42,4.47-11.66-3.69Z"/>
      <path class="cls-1" d="M239.68,441.89l2.13-31.79,13.67.92-.32,4.72-8.02-.54-.56,8.29,7.79.52-.32,4.72-7.8-.52-.62,9.33,8.03.54-.32,4.72-13.67-.92Z"/>
      <path class="cls-1" d="M280.34,441.56l-1.52-6.62-5.48.52-.24,6.79-5.59.53,1.61-32.16,9.19-.88,7.62,31.28-5.59.53ZM274.11,414.37l-.64,16.37,4.29-.41-3.65-15.96Z"/>
      <path class="cls-1" d="M301.73,437.84l-6.58-26.32-4.26,1.06-1.15-4.59,14.04-3.51,1.15,4.59-4.29,1.07,6.58,26.32-5.49,1.37Z"/>
      <path class="cls-1" d="M333.48,412.54l-2.15-4.17,10.87-5.62,2.16,4.17-10.87,5.62Z"/>
      <path class="cls-1" d="M377.88,400.55l-21.14-23.84,8.18-7.25c4.03-3.57,7.17-1.42,9.7,1.43l3.37,3.8c2.53,2.85,4.29,6.23.26,9.8l-3.94,3.5,7.81,8.81-4.23,3.75ZM370.95,375.27c-1.66-1.87-2.77-2.37-4.33-1l-2.51,2.22,7.05,7.95,2.51-2.22c1.56-1.38,1.19-2.55-.5-4.45l-2.22-2.51Z"/>
      <path class="cls-1" d="M401.25,377.81l-24.67-20.16,3.58-4.38,21.01,17.16,4.55-5.57,3.67,2.99-8.13,9.95Z"/>
      <path class="cls-1" d="M423.33,346.26l-6.26-2.63-2.78,4.75,5.37,4.16-2.83,4.85-25.16-20.09,4.66-7.97,29.84,12.08-2.83,4.85ZM397.61,335.44l12.92,10.08,2.17-3.72-15.09-6.36Z"/>
      <path class="cls-1" d="M433.27,325.54l-9.32-3.64-22.59-2.25,1.96-5.02,15,2.1-12.45-8.62,1.97-5.05,18.38,13.74,9.07,3.54-2.03,5.2Z"/>
    </g>
  </g>
  <path class="cls-1" d="M93.71,275.36l-.36-.18-.23-.45-.45-.27-.95-.91v-.18l-1-.95.09-.14-.64-.36h-.41l-.32-.32-.27.09v-.41l-.36.18v-.18h-.59l-.18-.18-.5.82-.27-.09v-.23h-.27l-1,.59v.45h-.36l-.5.73v.27l-.64.45-.14.54h-.36v.27l-.36.27h-.59l-.14.18h-1.04l-.36-.27v-.14l-.23-.23.09-.09-.23-.18v-.18l.27-.27-.23-.5.32-.27v-.59l-.09-.09.09-.36.36-.27v-.64l.18-.23v-.36l.32.05.09-.45-.18-.14.18-.41-.09-.77.23-.41h-.41v-.27l.27-.14-.82-.59-.5.09-.41-.27-.27.14-.77-.41-.23.18v-.23h-.23l-.27-.23h-.36l-.59-.36-.09-.27-.59-.23-.05-.36-.59-.59v-.64l-.23-.14.23-.36v-.64l1-1.14h1.45l.14.14,1.82.27h.86l.68-.18.09.32h.18v-.41l.5-.14-.41-.18v-.18l.41-.27.09.36.14-.09-.14-.45.5-.18.64.09v-.32l.64-.5-.14-.41.45-.14.32-1.27v-1.36l.09-.09v-.5l.27-.32v-.59l.64-.64h.91l.09.09h.64l.41.23.68,1.59-.36.14.36.09-.18.41.14.09v.86h.18l-.09.41.27.27-.27-.09v.5h.23l.36-.32-.09.86.18.45.23-.36.32.09v.27l.82.18.27-.18.64.5,1.91-1.18v-.41h.36l.23-.23.14.23v-.32h.23l.68-.45.86.45h.36l.45,1.09-.18.54.14.23-.36.54h.18v.41l-.36-.14.14.5-.36.32v.27l-.73.77.14.41-.68.82-.91,1.36-.27-.18-.09.64.18.18-.45.27v.14h.32v.23h-.32l-.14.59-.18.14v.36l.45.18-.14.23.45.41-.09.23h.54l1,.73h.23l.09.36.95.41v.18l.23.14v.32l.36.5.05.5-.14,1.23-.5.32v.27l-.91.54v-.18l-.59.27.23.14-.23.18h-1l-.09-.14-.27.14-.32-.32h-.5ZM83.91,261.74h.27l-.36-.09.09.09ZM87.17,271.36l.27-.09-.18-.23-.09.32Z"/>
  <path class="cls-1" d="M429.27,257.2l.24.33v.51s.28.45.28.45l.44,1.24-.08.16.46,1.3-.14.08.4.61.37.19.14.43.28.04-.19.36h.41s-.08.16-.08.16l.53.27.08.24.81-.5.2.2-.1.2.24.12,1.16-.07.2-.41.32.16.77-.42.12-.24.77-.12.37-.42.32.16.12-.24.45-.08.53.27.2-.1.93.47.2.41-.06.12.1.31-.12.04.12.27-.08.16-.37.12-.03.55-.41.1-.27.53.04.12-.25.28-.45.08-.29.57-.27.12-.17.32-.26-.19-.29.36.1.2-.35.28-.27.73-.39.26.37.19-.12.24h-.31s.46.89.46.89l.49.15.24.43h.3s.5.72.5.72l.28-.06-.1.2.2.1.14.32.32.16.36.59-.04.28.42.47-.12.34.26.79-.29.57.14.23-.37.22-.29.57-1.4.56-1.3-.66-.06-.18-1.5-1.07-.77-.39-.69-.15.06-.32-.16-.08-.19.36-.51-.11.28.35-.08.16-.49.06.08-.37-.16.02-.09.47-.53-.06-.53-.37-.14.28-.79.16-.06.43-.47-.08-.86.99-.62,1.21-.12.04-.23.45-.39.16-.27.53-.85.28-.81-.41-.04-.12-.57-.29-.26-.39.11-1.73.39.04-.28-.24.35-.28-.08-.14.39-.77-.16-.08.27-.32-.12-.37.2.2.23-.45-.2-.1-.47.12.47-.73.05-.49-.37.22-.24-.23.12-.24-.65-.53-.32.04-.34-.73-2.23.19-.19.36-.32-.16-.31.1-.02-.26-.14.28-.2-.1-.81.1-.56-.8-.32-.16.09-1.18.41-.41-.02-.26.57-.32-.16-.08.19-.36.26.28.11-.51.47-.12.12-.24,1-.36.06-.43.98-.42,1.43-.8.16.28.37-.53-.08-.24.53-.04.06-.12-.28-.14.1-.2.28.14.39-.46.22-.04.16-.32-.32-.37.23-.14-.22-.57.19-.16-.49-.25-.56-1.1-.2-.1.08-.37-.66-.8.08-.16-.14-.23.14-.28-.1-.61.19-.46.68-1.03.59-.06.12-.24,1.06-.07-.08.16.65.03-.14-.22.28-.06.89.45.02.16h.3s.14.43.14.43l.45.23ZM431.83,273.78l-.24-.12.28.25-.04-.12ZM433.29,263.72l-.28-.04.06.28.23-.24Z"/>
</svg>