<?xml version="1.0" encoding="UTF-8"?>
<svg id="Layer_1" data-name="Layer 1" xmlns="http://www.w3.org/2000/svg" viewBox="0 0 500 500">
  <defs>
    <style>
      .cls-1 {
        fill: #fff;
      }
    </style>
  </defs>
  <g id="BUu7yB.tif">
    <g>
      <path class="cls-1" d="M88.62,322.74c-.59-.09-1.16-.17-1.73-.26-.11-.02-.22-.05-.32-.08-.43-.13-.85-.32-1.29-.4-.87-.16-1.68-.44-2.45-.86-.3-.16-.65-.24-.93-.43-.56-.38-1.14-.69-1.76-.95-.04-.02-.07-.06-.11-.08-.27-.19-.45-.51-.8-.58-.03,0-.05-.04-.07-.06-.53-.49-1.07-.98-1.59-1.48-.53-.51-1.04-1.04-1.54-1.57-.36-.38-.75-.72-1.03-1.16-.28-.45-.58-.9-.85-1.36-.1-.16-.13-.36-.2-.53-.09-.21-.18-.42-.27-.63-.04-.09-.11-.16-.14-.25-.21-.64-.42-1.29-.63-1.93-.07-.2-.12-.42-.23-.6-.3-.48-.31-1.01-.35-1.54-.03-.36-.02-.73-.03-1.1,0-.2,0-.4-.02-.6-.03-.45-.04-.9.11-1.35.1-.31.06-.66.11-.99.03-.16.12-.32.18-.47.02,0,.04.01.07.02-.03-.17-.07-.34-.08-.52-.03-.28.09-.38.37-.41.59-.05,1.19-.13,1.78-.2,0-.03,0-.06,0-.08-.46-.19-.92-.38-1.38-.56-.47-.19-.95-.39-1.43-.56-.53-.18-1.06-.34-1.6-.5-.39-.11-.8-.18-1.18-.32-.47-.17-.93-.4-1.39-.61-.11-.05-.22-.09-.32-.15-.5-.26-1.01-.51-1.51-.77-.38-.19-.79-.35-1.11-.6-.62-.49-1.38-.77-1.92-1.37-.41-.45-.9-.84-1.29-1.31-.36-.44-.65-.94-.93-1.43-.29-.5-.58-1.02-.78-1.56-.21-.58-.43-1.17-.38-1.81.02-.27-.02-.54-.02-.8,0-.47-.02-.95.04-1.42.04-.33.19-.65.31-.97.06-.16.13-.33.21-.48.25-.45.52-.89.78-1.33.06-.11.14-.21.19-.32.09-.19.33-.32.52-.24.8.32,1.65.33,2.49.42.5.05,1,.14,1.51.21.43.05.86.08,1.28.14,1.11.16,2.22.34,3.34.5.32.05.65.06.97.08.86.05,1.7.26,2.53.48,1.42.36,2.84.75,4.27,1.12,1.29.34,2.57.68,3.86,1.02,1.16.31,2.33.62,3.49.93,1.57.42,3.14.84,4.72,1.25.04,0,.08.01.15.02-.13-.51-.26-1.01-.39-1.5-.01-.05-.08-.1-.13-.11-.6-.17-1.2-.34-1.8-.48-.49-.11-1-.15-1.47-.29-1.47-.44-2.72-1.25-3.83-2.3-.84-.81-1.41-1.81-2.02-2.78-.04-.06-.04-.18,0-.24.3-.54.6-1.07.91-1.6.13-.22.28-.42.44-.66.2.24.38.47.57.69.7.81,1.48,1.53,2.37,2.12.33.21.74.34,1.14.41.79.13,1.33-.46,1.15-1.23-.18-.79-.26-1.59-.26-2.4,0-1.56.57-2.9,1.53-4.09.03-.04.06-.08.1-.1.5-.31.99-.64,1.52-.9.33-.16.72-.19,1.08-.28.06-.02.12-.03.19-.04.28-.05.56-.1.84-.16.06-.01.16-.06.17-.11.34-1.2,1.19-1.95,2.24-2.49,1.63-.84,3.36-1.36,5.19-1.53.67-.06,1.35-.14,2.02-.19.21-.02.42.04.63.06.83.07,1.67,0,2.49.22.64.17,1.3.25,1.94.39,1.1.24,2.08.77,3.04,1.34.16.1.32.21.49.29,1.37.68,2.36,1.78,3.27,2.96.04.06.09.11.14.19.28-.13.56-.27.84-.4,1.74-.79,3.54-1.27,5.47-1.19,2.36.1,4.28,1.12,5.91,2.77,1.21,1.22,2.2,2.61,3.05,4.1,1.23,2.14,2.12,4.42,2.81,6.79.3,1.03.54,2.09.74,3.14.16.84-.28,1.58-1.1,1.88-.56.2-1.15.34-1.73.49-.94.25-1.89.49-2.83.73-.94.24-1.89.49-2.83.73-.56.15-1.12.29-1.71.44.1.42.19.82.28,1.23.39,1.85.58,3.72.6,5.61.02,2.19-.2,4.35-.66,6.49-.22,1.02-.49,2.02-1.01,2.92-.47.82-1.07,1.56-1.77,2.22-.27.26-.52.54-.75.83-.58.72-1.32,1.22-2.11,1.66-.95.52-1.9,1.03-2.8,1.65-.41.28-.82.55-1.27.77-.42.21-.88.33-1.32.51-.26.11-.49.27-.75.37-.48.2-.98.39-1.46.58-.12.05-.26.07-.35.14-.47.4-1.05.48-1.62.6-.29.06-.58.11-.87.16-.15.02-.22.09-.24.24-.05.51-.12,1.01-.16,1.52-.05.61-.06,1.23-.15,1.84-.06.39-.22.77-.34,1.16-.02.06-.03.12-.05.18-.17.5-.33,1-.5,1.5-.13.39-.27.78-.41,1.17-.03.08-.06.16-.1.24-.17.37-.31.75-.52,1.1-.34.57-.73,1.12-1.1,1.68-.14.2-.32.38-.47.57-.42.57-.94,1.03-1.5,1.45-.53.4-1.08.75-1.61,1.15-.73.54-1.53.89-2.41,1.11-.46.12-.92.26-1.38.38-.41.11-.82.23-1.23.29-.34.05-.7.02-1.05.01-.39-.01-.78-.03-1.17-.09-.49-.07-.98-.19-1.47-.29-.08-.02-.16-.03-.23-.03-.39,0-.69-.19-.89-.52-.07-.12-.08-.3-.08-.45,0-.41.05-.83.01-1.23-.03-.4-.15-.78-.2-1.18-.05-.44-.06-.88-.1-1.32-.02-.27-.07-.54-.11-.8-.2-1.14-.17-2.31-.32-3.46-.05-.42-.18-.83-.2-1.25-.04-.75-.04-1.49-.03-2.24,0-.58.05-1.16.08-1.76ZM94.43,289.25c.03.09.06.18.09.27.26.82.52,1.63.76,2.45.09.3.11.63.2.93.14.47.33.93.47,1.4.09.33.11.68.19,1.01.4,1.64.77,3.28,1.39,4.85.12.31.24.62.36.94-.11.04-.17.07-.23.09-.86.26-1.71.52-2.57.78-.83.25-1.67.5-2.5.75-.02,0-.05,0-.07.01-.66.17-1.33.3-1.97.51-1.6.53-3.22,1.01-4.88,1.31-2.55.46-5.1.86-7.65,1.3-.51.09-1.04.08-1.51.32-.09.05-.21.06-.15.22.15.42.3.84.45,1.27.1.29.18.58.28.86.13.38.28.76.42,1.14.06.15.15.28.2.43.23.77.71,1.38,1.29,1.9.67.6,1.35,1.19,2.04,1.78.33.28.65.58,1.03.78,1.28.69,2.48,1.56,3.92,1.94.98.26,1.95.53,2.95.81.18-3.44.36-6.83.54-10.27,1.4-.24,2.85-.49,4.3-.74.05,0,.14.05.15.09.05.21.12.42.11.63-.04.99-.09,1.99-.15,2.98-.25,4.26-.49,8.53-.75,12.79-.07,1.11-.1,2.21.12,3.31.12.58.24,1.16.28,1.75.1,1.6.16,3.2.24,4.8,0,.15.01.3.02.5.53-.14,1.02-.25,1.51-.39.23-.07.47-.15.65-.29.93-.74,1.93-1.42,2.61-2.43.28-.42.59-.83.83-1.28.25-.46.43-.96.63-1.44.13-.32.29-.64.37-.98.14-.58.21-1.17.46-1.72.02-.04.01-.09.02-.14.07-.55.1-1.11.21-1.65.46-2.21.96-4.41,1.43-6.62.24-1.1.46-2.2.69-3.31.01-.06.07-.13.12-.15.44-.17.89-.3,1.36-.18.32.08.64.19.94.34.48.24.96.27,1.46.09.07-.03.15-.04.23-.06.07.33.13.63.21.93.15.64.3,1.28.05,1.92-.01.03,0,.07-.01.12.04,0,.06,0,.08,0,1.3-.38,2.52-.93,3.65-1.67,1.18-.77,2.12-1.79,2.92-2.94,1.17-1.67,2.13-3.48,3.09-5.28.71-1.33.9-2.74.69-4.23-.27-1.91-.5-3.83-.75-5.75-.02-.19-.04-.39-.06-.61.15.08.27.15.39.21-.35-1.14-.68-2.27-1.05-3.38-.5-1.51-1.1-2.99-1.83-4.41-.9-1.76-1.84-3.5-3.02-5.09-.43-.58-.81-1.2-1.22-1.79-.41-.59-.77-1.23-1.25-1.76-.78-.83-1.63-1.59-2.47-2.37-.28-.26-.58-.51-.91-.69-.64-.35-1.28-.69-1.96-.95-1.29-.5-2.65-.81-4.04-.6-.97.15-1.93.43-2.88.7-.39.11-.77.31-1.12.53-.58.36-.63,1-.15,1.48.09.1.2.19.31.26,1.02.66,1.64,1.62,2.03,2.74.22.63.4,1.28.56,1.93.13.5.22,1.01.11,1.54-.11.51-.19,1.03-.33,1.54-.11.41-.25.81-.43,1.18-.1.21-.34.34-.46.54-.41.69-1.06,1.11-1.71,1.52-.41.26-.86.44-1.32.67ZM92.04,298.1c-.12-.43-.24-.84-.35-1.24-.12-.45-.24-.91-.36-1.36-.06-.21-.11-.42-.2-.61-.05-.1-.17-.19-.28-.22-.44-.13-.9-.23-1.34-.35-4.73-1.27-9.46-2.54-14.19-3.81-1.37-.37-2.73-.78-4.16-.84-1.7-.07-3.37-.36-5.03-.69-1-.2-2-.4-3.03-.6,0,.6-.03,1.18-.02,1.76,0,.25.03.53.13.74.25.5.56.97.82,1.47.29.56.76.96,1.17,1.42.57.64,1.25,1.14,2.02,1.51.09.05.17.11.26.17.44.26.87.53,1.32.76.49.25,1,.46,1.5.69.06.03.13.06.2.08.63.21,1.26.4,1.88.63.44.16.87.35,1.3.53,1.25.52,2.5,1.03,3.75,1.55.82.34,1.64.7,2.47,1.03.22.09.44.2.71.12.49-.13.99-.25,1.49-.36.55-.13,1.1-.27,1.66-.38,1.18-.24,2.37-.45,3.54-.72.66-.15,1.29-.41,1.94-.61.28-.09.58-.2.86-.19.71.03,1.3-.34,1.95-.47ZM115.75,279.23c.16.26.31.5.45.75.59,1.05,1.18,2.1,1.75,3.16.35.65.68,1.32.97,2,.22.51.38,1.05.56,1.58.62,1.8,1.23,3.6,1.85,5.4.08.24.16.48.23.72,2.39-.62,4.75-1.24,7.13-1.86-.23-.79-.44-1.54-.67-2.29-.52-1.65-1.18-3.25-2-4.77-.75-1.39-1.62-2.69-2.69-3.86-1.37-1.48-3.01-2.15-5.03-1.77-.89.17-1.71.5-2.54.92ZM91.99,285.4c.58-.27,1.21-.46,1.64-.99.36-.45.71-.9.73-1.5.01-.4.01-.8-.02-1.2-.04-.5-.15-.99-.46-1.42-.5-.69-1.16-1.03-2.03-.45-.58.38-.93.94-1.24,1.53-.23.44-.38.91-.42,1.41-.07.85.2,1.63.52,2.39.15.36.54.5.91.38.13-.04.25-.1.38-.14Z"/>
      <path class="cls-1" d="M81.84,322.18c-.31.25-.59.5-.9.72-.78.57-1.55,1.18-2.37,1.69-1.12.69-2.38,1.1-3.62,1.51-.51.17-1.03.29-1.55.42-.3.08-.54-.03-.76-.24-.24-.24-.49-.47-.74-.71-.02-.02-.05-.03-.05-.05.03-.33-.25-.48-.43-.68-.42-.49-.26-1.1.45-1.29.52-.14,1.06-.25,1.55-.46,1.49-.65,3.04-1.18,4.37-2.15.23-.17.47-.34.68-.53.15-.13.28-.13.4-.01.41.42.94.64,1.47.87.36.15.67.42,1,.64.15.09.3.17.48.27Z"/>
      <path class="cls-1" d="M74,315.68c-.56.13-1.08.3-1.61.37-1.2.16-2.4.28-3.61.4-.4.04-.81,0-1.06-.4-.08-.14-.15-.28-.23-.42-.06-.1-.12-.19-.19-.27-.12-.13-.24-.24-.18-.45.02-.06-.05-.14-.08-.21-.06-.11-.12-.21-.18-.31-.35-.58-.06-1.14.75-1.18.69-.03,1.38-.07,2.06-.18.81-.12,1.61-.32,2.41-.49.15-.03.23-.02.3.13.27.6.53,1.2.84,1.79.18.35.43.67.65,1.01.04.06.07.12.14.22Z"/>
      <path class="cls-1" d="M103.49,285.82c.63-.14,1.25-.32,1.89-.41.58-.09,1.14.1,1.65.39.15.09.31.16.47.24,1.66.82,2.96,1.97,3.42,3.86.19.8.43,1.6.49,2.41.11,1.7-.48,3.18-1.68,4.38-.63.64-1.39.97-2.34.91-.73-.05-1.47-.02-2.17-.3-1.35-.54-2.43-1.36-3.06-2.73-.5-1.07-.89-2.18-1.17-3.31-.27-1.12-.24-2.26.12-3.36.27-.84.92-1.34,1.68-1.72.24-.12.48-.21.72-.32,0-.01,0-.03,0-.04ZM108.34,292.06c-.18-.38-.3-.65-.44-.91-.66-1.19-1.58-2.04-3.01-2.19-.3-.03-.58,0-.86.12-.33.15-.7.67-.63.97.1.43.07.89.35,1.29.17.24.25.55.4.81.44.76,1.2,1.13,1.95,1.46.66.29,1.35.16,1.98-.2.23-.13.39-.33.37-.6-.01-.29-.09-.57-.12-.75Z"/>
      <path class="cls-1" d="M78.88,309.15c.23.5.46,1,.7,1.5-.48-.38-.65-.92-.8-1.45.04-.01.07-.03.11-.04Z"/>
    </g>
  </g>
  <g>
    <path class="cls-1" d="M438.27,309.19c.06.14.15.28.16.43.05.63.13,1.27.09,1.9-.06.93-.22,1.86-.34,2.78-.03.22-.05.45-.12.65-.12.33-.28.65-.42.97-.11.24-.23.46-.33.7-.31.7-.54,1.44-.92,2.09-.63,1.06-1.11,2.22-2.03,3.08-.21.2-.39.43-.58.65-.01.01-.03.03-.04.04-.63.29-1.01.89-1.54,1.3-.69.52-1.31,1.13-1.99,1.65-.38.29-.84.49-1.26.74-.09.05-.18.11-.26.18-.4.35-.89.52-1.38.7-.47.17-.89.47-1.36.64-1.37.51-2.74,1.07-4.24,1.13-.4.02-.8.18-1.2.27-.1.02-.21.06-.31.07-.74.04-1.48.06-2.22.13-.63.06-1.26.16-1.9.25-.11.01-.21.01-.32.01-.86,0-1.72-.02-2.57.03-1.71.11-3.36-.24-5.01-.6-.47-.1-.96-.14-1.44-.19-1.03-.1-2.01-.41-2.99-.71-2.28-.68-4.56-1.37-6.84-2.07-.33-.1-.67-.2-.99-.34-.24-.11-.45-.28-.68-.42-.29-.16-.57-.32-.87-.45-.51-.23-1-.48-1.47-.8-.51-.35-1.11-.59-1.66-.88-.2-.11-.4-.23-.59-.36-.59-.43-1.16-.88-1.75-1.3-.99-.72-2-1.41-2.99-2.13-.7-.51-1.31-1.12-1.76-1.87-.12-.2-.25-.4-.42-.56-.67-.65-1.11-1.46-1.62-2.23-.25-.38-.47-.79-.6-1.22-.25-.84-.48-1.69-.63-2.55-.13-.71-.14-1.44-.19-2.17-.13-1.98-.1-3.96.12-5.93.31-2.8.93-5.52,1.94-8.15.63-1.63,1.28-3.24,1.92-4.86.04-.09.07-.18.12-.29-.12-.07-.24-.13-.34-.21-.09-.07-.28-.09-.19-.3.01-.02-.11-.12-.18-.16-1.81-1-3.61-2-5.42-2.99-.43-.23-.9-.39-1.34-.62-.73-.37-1.45-.77-2.18-1.15-.51-.27-1.03-.53-1.54-.8-.31-.17-.37-.28-.15-.54.5-.61.78-1.33,1.13-2.01.09-.17.24-.31.35-.47.06-.08.12-.19.12-.28-.02-.28.11-.45.35-.53.93-.34,1.86-.72,2.81-1.01,1.39-.42,2.78-.8,4.19-1.15.86-.21,1.75-.31,2.62-.5,1.25-.28,2.5-.59,3.74-.91,1.02-.26,2.02-.55,3.03-.83.47-.13.93-.1,1.37.08.18.07.26.02.37-.1.91-.92,1.8-1.84,2.73-2.74.72-.7,1.63-1.1,2.54-1.51,1.02-.46,2.02-1.01,3.13-1.22.74-.14,1.5-.18,2.25-.27.54-.06,1.07-.19,1.61-.2.75-.02,1.51.05,2.26.07,2.73.07,6.19,1.14,8.52,2.64.94.6,1.73,1.34,2.17,2.4.09.21.12.45.2.66.04.09.14.18.24.22.32.11.66.2.99.3.33.1.68.14.98.29.37.18.7.44,1.04.68.28.19.54.4.81.61.06.05.14.08.18.14.51.89,1.06,1.77,1.23,2.8.26,1.58.11,3.14-.43,4.64-.36,1,.28,1.72,1.29,1.65.65-.05,1.22-.28,1.75-.65.55-.39,1.1-.76,1.62-1.19.51-.42.98-.91,1.53-1.41.41.87.81,1.74,1.21,2.6.1.21.05.39-.11.58-.56.65-1.06,1.37-1.65,1.99-1.45,1.51-3.21,2.49-5.25,2.95-.72.16-1.48.15-2.22.25-.6.08-1.2.21-1.79.34-.08.02-.15.19-.19.3-.41,1.12-.81,2.24-1.21,3.36-.19.54-.35,1.08-.53,1.62,0,.03-.01.06-.02.08-.28.67-.57,1.35-.86,2.02-.03.07-.07.14-.09.21-.19.54-.38,1.08-.59,1.68.64.2,1.24.62,1.98.72.33.04.66.15.98.25.4.14.8.3,1.19.46.28.12.55.29.84.39.73.25,1.47.47,2.21.7,1.32.42,2.64.81,3.96,1.25.82.27,1.63.6,2.45.89.24.09.51.13.76.19.13.03.27.06.39.11.52.25,1.03.49,1.62.54.08,0,.16.06.24.1,1.26.56,2.54,1.06,3.88,1.36.2.05.4.08.6.09.38.04.52.23.43.61-.05.2-.11.39-.16.59h.1ZM388.49,295.19c-.01.09-.01.14-.02.18-.45,2.06-.84,4.14-1.38,6.18-.54,2.06-.61,4.05.28,6.02.69,1.52,1.35,3.05,2.06,4.55.58,1.22,1.28,2.37,2.12,3.43,1.27,1.59,2.89,2.74,4.73,3.53,2.05.89,4.15,1.68,6.22,2.52.41.17.81.25,1.24.09.06-.02.13,0,.19.02,1.83.47,3.65.93,5.48,1.4.1.03.21.04.32.05.73.06,1.46.12,2.19.18.08,0,.16.02.23,0,.75-.16,1.5-.12,2.25-.1.25,0,.5,0,.75.02.93.09,1.85,0,2.77-.17.36-.07.72-.21,1.07-.2,1.1,0,2.15-.27,3.21-.5,1.05-.24,2-.77,2.99-1.17.95-.38,1.82-.85,2.64-1.45.76-.56,1.53-1.09,2.28-1.65.78-.58,1.44-1.27,1.79-2.2.04-.11.12-.2.18-.3.21-.4.42-.8.62-1.21.17-.36.3-.73.46-1.09.22-.49.46-.97.68-1.44-.51-.44-1.12-.48-1.68-.63-2.85-.76-5.71-1.5-8.56-2.27-2.09-.57-4.07-1.43-6.08-2.22-.49-.2-.98-.39-1.48-.57-.42-.15-.86-.27-1.28-.44-1.54-.63-3.08-1.27-4.62-1.9-.09-.04-.17-.08-.26-.12.03-.08.05-.14.08-.19.76-1.47,1.32-3.03,1.93-4.56.53-1.33.71-2.77,1.43-4.04.25-.44.32-.97.5-1.44.28-.72.59-1.43.89-2.15.11-.26.22-.51.34-.77-.08-.05-.14-.09-.2-.12-1.23-.69-2.4-1.45-3.07-2.77-.03-.05-.07-.09-.11-.13-.45-.48-.61-1.06-.67-1.7-.04-.47-.12-.94-.16-1.41-.03-.41-.1-.84-.02-1.24.26-1.29.74-2.51,1.38-3.68.55-1.02,1.31-1.78,2.3-2.36,1.12-.65,1.12-1.57.01-2.26-.02-.01-.03-.02-.05-.03-2.23-1.11-4.5-2-7.07-1.59-1.9.3-3.69.88-5.24,2.04-1.42,1.07-2.88,2.08-3.96,3.54-.93,1.26-2.04,2.4-3.01,3.63-1.8,2.27-3.39,4.68-4.67,7.28-.73,1.48-1.35,3.02-2.02,4.53-.15.34-.3.68-.47,1.07.18-.07.31-.13.48-.19ZM420.54,283.65c0-1.01-.38-1.9-.91-2.74-.27-.43-.61-.81-1.09-1.02-.22-.1-.48-.19-.71-.16-.9.12-1.44.72-1.69,1.53-.21.66-.32,1.36-.36,2.05-.06,1.05.51,1.86,1.28,2.49.44.36,1,.59,1.51.85.46.24.85.13,1.11-.34.46-.82.84-1.68.84-2.66ZM389.3,280.51c-.07-.05-.13-.13-.2-.14-.12-.02-.25-.01-.37,0-.92.18-1.84.36-2.75.54-1.75.35-3.51.69-5.26,1.04-.14.03-.26.12-.39.18.12.1.22.24.35.31,1.42.74,2.85,1.47,4.28,2.2.4.2.79.41,1.18.62.18.1.31.05.41-.11.31-.51.63-1.02.93-1.54.18-.32.32-.66.51-.97.36-.59.75-1.17,1.13-1.76.07-.1.11-.22.19-.38Z"/>
    <path class="cls-1" d="M383.6,319.39c.96.73,1.9,1.47,2.85,2.17.52.38,1.07.71,1.63,1.09-.24.31-.43.58-.63.84-1.34,1.67-2.2,3.59-2.93,5.58-.38,1.02-.8,2.03-1.15,3.07-.22.65-.33,1.34-.49,2.01-.11.47-.25.92-.74,1.15-.33.16-.67.15-.97-.04-.27-.17-.51-.41-.78-.6-.14-.1-.32-.16-.48-.25-.12-.06-.25-.1-.35-.19-.32-.28-.6-.6-.93-.86-.48-.38-.71-.84-.58-1.45.73-3.45,1.69-6.82,3.62-9.82.58-.9,1.24-1.76,1.86-2.63.03-.05.08-.08.06-.07Z"/>
    <path class="cls-1" d="M396.41,327.42c1.77.53,3.54,1.05,5.25,1.56-.35,1.07-.75,2.09-1,3.14-.29,1.23-.45,2.49-.65,3.74-.13.79-.24,1.59-.34,2.38-.04.32-.03.64-.04.96,0,.51.01,1.02-.02,1.53-.07.92-.81,1.36-1.65,1-.23-.1-.44-.25-.66-.35-.13-.06-.3-.12-.43-.08-.17.05-.26,0-.39-.09-.35-.24-.7-.49-1.08-.66-.61-.28-.97-.7-.96-1.38.01-.96-.01-1.92.06-2.87.09-1.29.22-2.59.4-3.87.24-1.73.77-3.39,1.53-5Z"/>
    <path class="cls-1" d="M410.14,317.14c-.04-3.13.05-6.23.64-9.32,1.02.13,2.05.27,3.09.4.01.06.03.09.03.13-.09.88-.2,1.76-.27,2.64-.06.76-.08,1.53-.14,2.29-.05.63-.12,1.25-.17,1.88-.04.5-.05,1-.1,1.5-.04.41-.14.82-.16,1.24-.03.41-.01.83.02,1.24.02.26-.1.43-.35.49-.43.11-.84.27-1.27.36-.5.11-1,.22-1.51.25-.95.06-1.85-.23-2.77-.43-.65-.14-1.24-.38-1.8-.71-.3-.17-.58-.38-.85-.6-.64-.52-1.36-.99-1.89-1.61-.69-.82-1.4-1.65-1.76-2.71-.26-.76-.61-1.5-.88-2.26-.21-.62-.34-1.27-.54-1.89-.26-.81-.24-1.64-.29-2.47-.03-.52-.09-1.03-.15-1.63,1.26.37,2.43.71,3.61,1.07.07.02.15.14.15.22.06.67.14,1.34.37,1.98.1.28.13.59.21.87.17.54.35,1.08.54,1.61.17.47.34.95.57,1.39.44.86,1.03,1.61,1.74,2.27.26.24.55.43.79.68.64.66,1.47.86,2.33.97.25.03.49.09.79.14Z"/>
    <path class="cls-1" d="M397.43,287.27c.06-.38.07-.78.18-1.14.24-.77.52-1.54.83-2.28.28-.68.81-1.17,1.39-1.61.71-.54,1.53-.87,2.35-1.17.54-.2,1.09-.22,1.65-.04.84.28,1.66.6,2.35,1.17.53.44.85.99.93,1.69.12,1.04,0,2.05-.39,3.02-.37.92-.76,1.84-1.32,2.67-.92,1.38-2.26,1.98-3.85,2.09-.49.03-.99-.03-1.47-.13-.73-.15-1.24-.64-1.66-1.23-.64-.91-.95-1.92-.99-3.03ZM401.81,287.64c.52-.05,1.3-.44,1.56-.86.19-.3.31-.65.48-.97.22-.4-.15-.89-.57-.93-.23-.02-.47.01-.69.07-.95.25-1.43.97-1.77,1.81-.1.24,0,.49.26.6.24.1.48.18.73.26Z"/>
  </g>
  <g>
    <path class="cls-1" d="M75.6,241.99c-.11-.45-.22-2.12-.22-4.91v-8.04c.11-.78.11-1.34.11-1.79v-4.24c-.11-2.01-.11-3.35-.11-4.36v-5.03c0-1.9,0-3.69.22-5.36,0-.22.11-.56.11-.67,0-.34-.11-.56-.67-.67q0-.11-.22-.22c-.34-.11-.45-.22-.56-.22-.22-.11-.56-.22-1.01-.45-.11,0-.22,0-.45-.22-.33,0-.45-.11-.56-.22l-.89-.45c-.78-.33-1.67-1.01-2.79-2.12-2.57-2.57-3.13-5.25-3.13-8.26,0-1.67.34-3.24,1-4.58,1.45-2.9,4.13-5.25,6.14-6.48.45-.22,1-.67,1.9-1.01,1.01-.33,1.56-.67,1.68-.89v-8.82c-.11-3.35-.11-5.7-.11-7.15v-3.02c0-1.56,0-2.57.11-2.9.11-.33.11-.78.11-1.56,0-1.12.34-1.67.89-1.67h.34c1.56,0,4.36.11,6.7.22.78.11,1.34.22,1.56.22h.89l.11.22c0,.11.11.11.11.22l-.11.11c0,.56,0,1.23-.11,1.79-.11,1.23-.22,2.68-.22,4.36,0,2.68,0,4.36-.11,5.02-.11.67-.11,2.23-.11,4.69v2.57c-.11,1.23-.11,1.79-.11,1.9v2.23c.11.89.11,1.34.22,1.45.11.11.78.11,2.23.11.89,0,1.79.11,2.68.33.45.11,1,.34,1.79.45.33.11.78.22,1.34.45.56.34,1.23.56,1.9.78.67.22,1.12.33,1.45.45.45.11,1.01.33,1.56.78l1.34.89c.11.11.22.22.56.22.34.22.45.22.56.33.45.45.78.67,1.12.67.11,0,.22,0,.33-.11.33-.11.56-.67.89-1.68.22-.67.45-1.23.67-1.67.11-.11.22-.33.22-.67.22-.33.22-.45.22-.56v-.34c.11,0,.11-.22.22-.33.11-.11.11-.22.11-.33l.45-1.34c0-.11,0-.22.11-.33s.11-.34.22-.45c0-.11,0-.33.11-.45l.22-.45c.34-.78.45-1.12.45-1.23s.11-.34.22-.67c1.34-4.36,1.9-9.16,1.9-14.18v-1.56c-.11-.56-.11-.89-.11-1.01-.11-.67-.22-1.23-.22-1.67,0-.56.11-.89.34-1.12.22-.22.78-.33,1.56-.33,2.57,0,4.36-.11,6.92-.11.78,0,1.12,0,1.23.11.11.11.22.89.22,2.12v2.68c0,2.01,0,3.24-.11,3.57-.11.45-.22,1.34-.22,2.68l-.11,1.79c-.11.56-.11,1.12-.22,1.56-.11,2.79-.56,4.91-1.12,6.37-.11.11-.22,1.23-.45,3.24-.11.78-.78,2.79-2.01,6.03-.11.22-.34.56-.56,1.12-.11.56-.22.89-.33,1.01-.11.22-.34.78-.78,1.56-.45.89-.78,1.67-1,2.23l-.56.89c0,.11.22.45.67.89.34.33.67.67.78,1.01.11.11.33.56.78,1.12,2.01,3.46,3.24,6.25,3.8,8.15.11.45.34,1.01.67,1.79.22.56.22,1.12.33,1.56,1.79,8.04,4.24,20.32,4.24,30.04v1.56c0,.78-.34,1.23-.89,1.34-.11,0-.45.11-.89.33s-1.34.33-2.68.33c-1.01,0-2.23.11-3.8.33-1.34.22-2.34.34-2.9.34-.45,0-.67-.11-.67-.22,0-.22-.11-.67-.22-1.23-.11-1.23-.22-2.23-.22-3.24,0-7.59-.22-16.75-2.12-24.23-.67-2.79-1.79-5.36-2.9-7.48-.11-.22-.34-.56-.56-1-.11-.11-.56-.67-1.34-1.68-.11-.11-.22-.22-.34-.22s-.34.11-.45.22c-1.9,1.34-3.69,2.23-5.36,2.79l-1.34.45c-.11,0-.22.11-.67.22-.22.11-.56.22-.67.33-.56.11-1.23.33-2.01.45-.56.11-1.79.45-3.69.78-.89.11-1.45.11-2.01.11h-.78v15.52c-.11.78-.11,1.23-.11,1.34v6.81c0,4.69.11,7.59.22,8.6,0,.45-.11.78-.22.89-.11.11-.34.22-.67.22h-2.01c-.56,0-.89-.11-1.23-.11s-.67.11-.78.11l-.89.22c-.33,0-.78.11-1.34.22h-1.56c-.45,0-.78.11-1.12.22-.11.11-.33.11-.45.11s-.22,0-.22-.11l-.45-.45ZM75.94,195.42v-1.45c-.11-.56-.11-1.01-.11-1.34,0-.78-.11-1.23-.22-1.34,0,0-.11-.11-.22-.11,0,0-.11.11-.22.11-.89.56-1.34,1.01-1.45,1.12-.11.33-.22.56-.22.89s.11.78.22,1.12c.11.45.45,1.01,1.23,1.79.22.22.45.33.56.33.22,0,.33-.11.33-.33.11-.33.11-.56.11-.78ZM95.59,194.3c-.45-.22-.67-.33-.78-.45-3.8-1.79-6.37-2.68-7.71-2.68-.33,0-.45.11-.45.34-.11.11-.11.78-.11,1.9,0,3.91.22,6.37.56,7.26.11.45.56.67,1.34.67,1.56,0,3.57-.67,6.03-2.01,2.46-1.23,3.69-2.35,3.69-3.24,0-.56-.67-1-1.9-1.34-.11-.11-.45-.22-.67-.45Z"/>
    <path class="cls-1" d="M129.88,242.44c-.34-.11-.56-.11-.67-.11s-.78,0-2.01.11h-3.13c-.45,0-.67-.11-.67-.22l1.12-2.23.56-1.12c0-.56.22-1.23.67-1.9.67-1.9,1.56-4.69,2.57-8.15,1.01-3.46,1.68-5.58,1.9-6.25.11-.22.22-.67.33-1.34.11-.56.22-1.01.22-1.12.22-.78.56-2.12,1.23-4.02.45-1.79.89-3.13,1.12-3.91.34-1.45.89-3.57,1.68-6.14.78-2.68,1.34-4.58,1.56-5.58.11-.78.22-1.12.34-1.23.22-.45.56-1.23.89-2.34,0-.34.11-.56.22-.67.45-1.34.78-2.57,1.12-3.57,2.57-7.15,4.58-14.74,6.59-22.56.33-1.01.56-1.9.67-2.68.11-.34.56-1.56,1.23-3.69.78-2.12,1.12-3.35,1.23-3.57l.11-.22c.11-.11.11-.33.22-.56,0-.11,0-.34.11-.45.33-1,.78-1.56,1.12-1.56,1.34-.22,4.58-.56,6.59-.56.22,0,.45,0,.67.11h1.34c.11-.11.22-.11.33-.11.56,0,.89.11.89.56,0,.11.11.45.22,1.34l.33,2.01c.11.11.11.34.22.78s.11.67.11.78l.34,1.56c.22.45.22.89.45,1.12,0,.45.11.67.22.78.45,1.56,1.01,3.91,1.79,7.26.78,3.13,1.34,5.7,1.9,7.59,1.67,5.7,2.79,9.94,3.24,12.62.11.33.22.89.45,1.9.34.89.45,1.45.56,1.67.11.56.45,1.45.78,2.57.34,1.34.56,2.12.67,2.57.11.22.22.56.33,1.12.11.56.22.78.22.89.22.67.45,1.12.56,1.45.78,2.12,1.79,5.14,2.9,8.93,1.01,3.91,1.79,6.7,2.35,8.38.33,1.12.78,2.68,1.23,4.58.11.11.22.33.33.56s.22.45.34.56c.11.33.22.67.22,1.23l.11.34v.45c0,.11.11.34.33.67.11.45.22.78.33.89,0,.11,0,.33.11.67,0,.33,0,.56.11.67.22.67.33,1.12.45,1.45.11.22.22.67.33,1.23.22.56.45,1.34.89,2.46.22.89.56,1.79.78,2.57.11.45.22.78.22.89,0,.33-.11.56-.45.67-.34.11-.67.22-1.01.22-.11,0-.33,0-.45-.11h-.33c-.34-.11-.67-.11-1.23-.11h-.67c-.11,0-.45,0-.78.11h-1.01c-1.01,0-2.01.11-3.02.22-1.01.11-1.45.22-1.56.22-.33,0-.67-.33-1-.89,0-.11,0-.45-.22-.89,0-.45-.11-.89-.22-1.12-.11-.45-.11-.56-.11-.67-2.46-8.71-3.57-14.85-5.03-19.88v-.45c0-.11-.11-.34-.22-.56v-.56l-.45-.89h-.22s-.11.11-.22.11c-2.57.22-5.25.22-8.04.22h-5.58c-.33,0-.89-.11-1.34-.11-.67-.22-.89-.22-1.01-.22-.33.11-1,.11-2.01.11-.78,0-1.56,0-2.12-.11h-.78c-.33-.11-.56-.11-.67-.11-1.01,0-1.45,0-1.68.34-.22.11-.45,1.12-.67,1.67-.11.22-.22,1.23-.67,2.9-.34,1.68-.67,2.68-.78,2.9l-.56,1.34c-.11.33-.22,1.01-.45,1.79,0,.78-.11,1.34-.22,1.45,0,.11,0,.22-.22.34,0,.11-.22.33-.34.45l-.11.22c-.11.34-.11.56-.22.67-.11.11-.11.22-.22.56-.11.22-.11.33-.11.45-.11.22-.22.67-.34,1.34-.22.67-.34,1.12-.45,1.34-.11.11-.11.45-.11.78v.78l-.34,1.01c-.11.22-.22.67-.45,1.45-.11.33-.22.78-.45,1.45,0,.11,0,.22-.11.34l-.22.45-.11.22c-.11.45-.22.67-.56.67l-.22.11c-.11.11-.22.11-.33.11l-2.79.22h-1.12ZM162.93,206.59v-.11l-.22-.89c-.11-.56-.11-.89-.22-1.12-.11-.22-.11-.56-.22-.89-.11-.33-.11-.56-.11-.67-1.23-3.91-1.9-6.37-2.01-7.26-.11-.22-.22-.56-.22-1.23-.22-.45-.22-.78-.22-.89-.56-1.23-.89-2.23-1.01-3.02-.11-.56-.56-2.12-1.34-4.8-.78-2.79-1.23-4.69-1.45-5.92-.11-.11-.11-.34-.22-.67s-.11-.67-.11-.78c-.11-.22-.11-.56-.22-1.01-.11-.45-.11-.89-.34-1.45,0-.56-.11-.78-.11-.89-.11-.33-.22-.45-.34-.45s-.45.89-.89,2.46c-.45,1.79-.89,3.57-1.45,5.36-.56,2.01-.78,3.02-.89,3.35,0,.11-.11.45-.34,1.12-.11.56-.22,1.23-.34,1.79l-.11.78c0,.34-.11.78-.45,1.34-.11.56-.45,1.23-.78,2.12-.33,1.01-.67,1.68-.78,2.23-.22,1-.33,1.56-.45,1.9-.11.11-.22.33-.33.67-.11.33-.22.67-.22.78-.11.11-.11.45-.22.89-.11.45-.11.78-.11.89s0,.33-.11.45c-.11.22-.11.45-.22.56v.22c0,.11-.11.45-.45,1.23-.78,1.9-1.23,3.24-1.23,4.02,0,.11.34.22.89.22h1.56c.89-.11,1.56-.11,2.12-.11.34,0,.67,0,1.23.11h1c.78.11,1.68.11,2.68.11h.89c.22,0,.67,0,1.23-.11h3.24c1.01-.11,1.68-.11,2.01-.11.11,0,.33,0,.56-.11h.45l-.11-.11Z"/>
    <path class="cls-1" d="M187.28,229.93v-.56c.11-.56.11-1.01.11-1.34v-.56c0-.22,0-.45-.11-.56v-5.58c-.11-.33-.11-.67-.11-1.01,0-.78,0-2.46.11-4.91l.11-3.57c.11-.78.11-1.45.11-1.9s0-.78-.11-.89c-.11-.22-.11-1.12-.11-2.57v-1.34c-.11-.45-.11-.78-.11-1.01,0-1.23.11-2.68.22-4.36,0-.45,0-.78-.11-.89v-2.12c.11-1.45.22-3.35.45-5.47.11-.67.11-1.34.11-2.01v-1.45c.11-.78.22-1.79.33-3.13,0-.11,0-.67-.11-1.68v-9.94c0-4.02,0-7.82.11-11.73.11-.67.11-1.23.11-1.56.11-1.23.22-2.01.56-2.12.45-.11.78-.11,1.12-.11.67,0,1.34.11,2.12.11h3.35c.33.11.78.11,1.23.11s1.01,0,1.56-.11h.45c.34.22.56.78.56,1.56,0,1.01.34,1.9,1.12,2.9,2.9,3.69,4.8,8.93,7.04,13.51,1.01,2.12,1.67,3.13,2.68,5.14.22.33.45.89.78,1.56.11.56.45,1.01.78,1.34l.34.67c.56,1,1.45,3.91,2.34,4.47.45.56.67,1,.67,1.12l.33.67c0,.11.11.22.34.67.22.22.34.56.45.67.11.11.22.45.34.78.11.33.22.67.33.78,2.23,3.57,3.69,7.37,5.7,11.06,1.12,2.12,1.56,4.24,3.02,6.14.34.56.56,1.12.67,1.45l2.12,4.24c.11.22.22.22.34.22,0,0,.11,0,.11-.11v-.45c0-.22,0-.56.11-.89v-1c0-1.45,0-2.35.11-2.57s.11-.56.11-.78v-1.01c-.11-.33-.11-.45-.11-.56s0-.34.11-.56v-.89c.11-.45.11-.89.11-1.23,0-.45,0-.89.11-1.23v-1c.11-.22.11-.45.11-.56v-12.4c0-.34,0-1.01-.11-1.9-.11-.78-.11-1.34-.11-1.56v-2.46c0-1.56-.11-2.46-.22-2.79v-.67c.11-.22.11-.78.11-1.56,0-.67,0-1.12.11-1.45.11-.22.11-.67.11-1.12s0-1.12-.11-1.79c-.11-.33-.11-1.12-.11-2.35.11-1.79.11-3.24.11-4.58,0-4.13-.33-6.59-.33-11.28,0-.45,0-.67.11-.78.22-.22.45-.33.78-.33l1.23-.11h2.79c.89-.11,1.67-.11,2.23-.11s1.12-.11,1.56-.22c.34-.11.67-.11,1-.11.56,0,.89.11,1.12.34.11.11.22.56.22,1.12v1.9c0,1.23,0,2.12.11,2.57v2.9c.11.33.11.56.11.78l.11.33.11.56v.67c0,.11,0,.45.11.89v6.25c.11,1,.11,1.9.11,2.57v2.46c0,.11,0,.34.11.67v4.58c.11.78.11,1.45.11,1.9s0,1.12-.11,2.12v9.6c.11.67.11,2.01.11,4.02,0,.22,0,.56.11,1.12v13.29c-.11.33-.11.45-.11.56v2.01c0,.11,0,.67.11,1.56v4.58c0,.11,0,.22.11.56.11.22.11.45.11.56v1.67c0,1.9-.11,3.8-.34,5.81,0,1.79,0,2.68.11,2.79,0,0,.11.22.11.56,0,.11,0,.34-.11.56,0,.67,0,1.12-.11,1.34l-.11.56c-.11,0-.22.22-.34.22-.11.22-.45.22-.78.22-.33.11-.78.11-1.34.22l-1.12.22h-.67c-.22.11-.67.11-1.45.11h-2.23c-1.45,0-2.46-.11-2.9-.33l-.11-.11-.11-.22-.78-.78c-.56-.56-1.01-1.01-1.12-1.23-.67-1.01-1.23-1.9-1.79-2.46-.11-.11-.34-.56-.56-1.23-.11-.33-.34-.67-.67-1.23-.11-.11-.22-.22-.33-.56-.22-.33-.33-.45-.45-.56-.45-.67-1.01-1.56-1.34-2.12l-.45-.89-.45-.45-.11-.22c-.11-.22-.22-.45-.33-.78l-.56-1.12c-.56-1.12-1.56-3.46-2.46-4.36l-.34-.67c-.22-.45-.45-.78-.67-1.01-.11-.11-.22-.45-.56-1.01-.22-.78-.78-1.79-1.79-3.24,0-.11-.11-.22-.22-.45s-.22-.33-.34-.45l-.45-.89c-.45-.45-.67-1.01-.67-1.67-.11-.22-.11-.34-.22-.45-.22-.22-.45-.56-.56-.89-1.68-3.46-3.24-6.7-5.03-10.39-.22-.56-.45-.89-.56-1.12-.11-.11-.22-.22-.33-.56,0-.11-.11-.22-.33-.56-.22-.33-.45-.56-.56-.78-.45-.67-.78-1.23-.89-1.67-.33-1.23-.56-1.9-.89-2.23-.22-.22-.33-.45-.45-.67-.22-.56-.45-1.12-.67-1.45-.22-.33-.45-.89-.67-1.45-.22-.56-.33-.89-.45-1l-.67-1.01c-.11-.11-.22-.34-.34-.78-.11-.45-.33-.78-.45-1.01-.45-.78-.67-1.23-.67-1.56,0-.22-.11-.45-.22-.56,0-.11-.11-.22-.22-.22-.22,0-.45.45-.45.67v4.36c0,.33,0,.78.11,1.23v1.12c0,.11,0,.45.11.89.11.56.11.89.11,1.01.22,6.7.33,12.28.45,19.43,0,2.12.11,3.8.11,5.92v1.79c0,3.8.22,9.6.45,13.18.11,1.23.11,1.9.11,2.23v2.46c0,.22.11.33.11.56,0,.45-.22.78-.45,1.01-.11.11-.33.22-.56.22-.34,0-.67.11-1,.22-.11.11-.45.11-1.01.11-.22,0-.67.11-1.23.22-.78.11-1.34.22-1.9.22-1.01,0-1.79.11-2.57.33-.89.22-1.68.33-2.01.33s-1.23,0-1.34-.11c-.22-.22-.78-9.27-.78-12.06Z"/>
    <path class="cls-1" d="M250.04,242.44c-.34-.11-.56-.11-.67-.11s-.78,0-2.01.11h-3.13c-.45,0-.67-.11-.67-.22l1.12-2.23.56-1.12c0-.56.22-1.23.67-1.9.67-1.9,1.56-4.69,2.57-8.15,1.01-3.46,1.68-5.58,1.9-6.25.11-.22.22-.67.33-1.34.11-.56.22-1.01.22-1.12.22-.78.56-2.12,1.23-4.02.45-1.79.89-3.13,1.12-3.91.34-1.45.89-3.57,1.68-6.14.78-2.68,1.34-4.58,1.56-5.58.11-.78.22-1.12.34-1.23.22-.45.56-1.23.89-2.34,0-.34.11-.56.22-.67.45-1.34.78-2.57,1.12-3.57,2.57-7.15,4.58-14.74,6.59-22.56.33-1.01.56-1.9.67-2.68.11-.34.56-1.56,1.23-3.69.78-2.12,1.12-3.35,1.23-3.57l.11-.22c.11-.11.11-.33.22-.56,0-.11,0-.34.11-.45.33-1,.78-1.56,1.12-1.56,1.34-.22,4.58-.56,6.59-.56.22,0,.45,0,.67.11h1.34c.11-.11.22-.11.33-.11.56,0,.89.11.89.56,0,.11.11.45.22,1.34l.33,2.01c.11.11.11.34.22.78s.11.67.11.78l.34,1.56c.22.45.22.89.45,1.12,0,.45.11.67.22.78.45,1.56,1.01,3.91,1.79,7.26.78,3.13,1.34,5.7,1.9,7.59,1.67,5.7,2.79,9.94,3.24,12.62.11.33.22.89.45,1.9.34.89.45,1.45.56,1.67.11.56.45,1.45.78,2.57.34,1.34.56,2.12.67,2.57.11.22.22.56.33,1.12.11.56.22.78.22.89.22.67.45,1.12.56,1.45.78,2.12,1.79,5.14,2.9,8.93,1.01,3.91,1.79,6.7,2.35,8.38.33,1.12.78,2.68,1.23,4.58.11.11.22.33.33.56s.22.45.34.56c.11.33.22.67.22,1.23l.11.34v.45c0,.11.11.34.33.67.11.45.22.78.33.89,0,.11,0,.33.11.67,0,.33,0,.56.11.67.22.67.33,1.12.45,1.45.11.22.22.67.33,1.23.22.56.45,1.34.89,2.46.22.89.56,1.79.78,2.57.11.45.22.78.22.89,0,.33-.11.56-.45.67-.34.11-.67.22-1.01.22-.11,0-.33,0-.45-.11h-.33c-.34-.11-.67-.11-1.23-.11h-.67c-.11,0-.45,0-.78.11h-1.01c-1.01,0-2.01.11-3.02.22-1.01.11-1.45.22-1.56.22-.33,0-.67-.33-1-.89,0-.11,0-.45-.22-.89,0-.45-.11-.89-.22-1.12-.11-.45-.11-.56-.11-.67-2.46-8.71-3.57-14.85-5.03-19.88v-.45c0-.11-.11-.34-.22-.56v-.56l-.45-.89h-.22s-.11.11-.22.11c-2.57.22-5.25.22-8.04.22h-5.58c-.33,0-.89-.11-1.34-.11-.67-.22-.89-.22-1.01-.22-.33.11-1,.11-2.01.11-.78,0-1.56,0-2.12-.11h-.78c-.33-.11-.56-.11-.67-.11-1.01,0-1.45,0-1.68.34-.22.11-.45,1.12-.67,1.67-.11.22-.22,1.23-.67,2.9-.34,1.68-.67,2.68-.78,2.9l-.56,1.34c-.11.33-.22,1.01-.45,1.79,0,.78-.11,1.34-.22,1.45,0,.11,0,.22-.22.34,0,.11-.22.33-.34.45l-.11.22c-.11.34-.11.56-.22.67-.11.11-.11.22-.22.56-.11.22-.11.33-.11.45-.11.22-.22.67-.34,1.34-.22.67-.34,1.12-.45,1.34-.11.11-.11.45-.11.78v.78l-.34,1.01c-.11.22-.22.67-.45,1.45-.11.33-.22.78-.45,1.45,0,.11,0,.22-.11.34l-.22.45-.11.22c-.11.45-.22.67-.56.67l-.22.11c-.11.11-.22.11-.33.11l-2.79.22h-1.12ZM283.1,206.59v-.11l-.22-.89c-.11-.56-.11-.89-.22-1.12-.11-.22-.11-.56-.22-.89-.11-.33-.11-.56-.11-.67-1.23-3.91-1.9-6.37-2.01-7.26-.11-.22-.22-.56-.22-1.23-.22-.45-.22-.78-.22-.89-.56-1.23-.89-2.23-1.01-3.02-.11-.56-.56-2.12-1.34-4.8-.78-2.79-1.23-4.69-1.45-5.92-.11-.11-.11-.34-.22-.67s-.11-.67-.11-.78c-.11-.22-.11-.56-.22-1.01-.11-.45-.11-.89-.34-1.45,0-.56-.11-.78-.11-.89-.11-.33-.22-.45-.34-.45s-.45.89-.89,2.46c-.45,1.79-.89,3.57-1.45,5.36-.56,2.01-.78,3.02-.89,3.35,0,.11-.11.45-.34,1.12-.11.56-.22,1.23-.34,1.79l-.11.78c0,.34-.11.78-.45,1.34-.11.56-.45,1.23-.78,2.12-.33,1.01-.67,1.68-.78,2.23-.22,1-.33,1.56-.45,1.9-.11.11-.22.33-.33.67-.11.33-.22.67-.22.78-.11.11-.11.45-.22.89-.11.45-.11.78-.11.89s0,.33-.11.45c-.11.22-.11.45-.22.56v.22c0,.11-.11.45-.45,1.23-.78,1.9-1.23,3.24-1.23,4.02,0,.11.34.22.89.22h1.56c.89-.11,1.56-.11,2.12-.11.34,0,.67,0,1.23.11h1c.78.11,1.68.11,2.68.11h.89c.22,0,.67,0,1.23-.11h3.24c1.01-.11,1.68-.11,2.01-.11.11,0,.33,0,.56-.11h.45l-.11-.11Z"/>
    <path class="cls-1" d="M341.84,242.66c-.45-.11-.67-.11-.78-.11s-.33,0-.67-.11h-.56c-.45-.11-.89-.22-1.34-.22s-.89.11-1.23.22c-.45.11-.89.22-1.23.22h-.22c-.22,0-.33,0-.45-.22-.22-.11-.22-.22-.22-.45v-.22c.11-.89.11-2.12.11-3.24v-9.16c0-.33,0-.78-.11-1.45v-2.35c-.11-.56-.11-1-.11-1.34s0-.78-.11-1.23c-.11-.67-.11-.89-.11-1.01-.11-.67-.11-1.67-.11-2.9,0-1.45-.89-5.58-1.45-7.48-.22-.78-.34-1.23-.34-1.56s-.11-.56-.45-.56c-.11,0-.45.11-.89.22-1.45.56-2.57.78-3.24.89-.11,0-.34,0-.56.11h-.45c-2.12,0-3.69.78-6.03.78-1.12,0-1.68.11-1.68.33,0,1.45.11,2.01.11,5.92,0,2.9,0,5.36.11,8.38v3.8c0,1.9,0,3.91.11,5.92,0,2.57,0,4.02.22,4.47.11.34.11.78.11,1.34,0,.11-.11.22-.22.33-.11,0-.45.11-.67.11h-.56c-2.35,0-4.13.45-6.14.45-.67,0-1.45-.11-2.35-.22-.11-.22-.45-.22-.89-.22-.56-.11-1.01-.22-1.01-.67v-.11c0-.33.11-.67.11-.89v-.22c-.11-.11-.11-.78-.11-1.67v-2.68c.11-2.12.22-4.58.22-7.37,0-.78,0-1.56-.11-2.46,0-2.57.22-4.24.22-6.59v-2.46c-.11-1.34-.11-2.57-.11-3.57,0-.33,0-.89-.11-1.67v-1.56c-.33,0-.78-.11-1.34-.45-2.12-.78-4.13-2.57-6.03-5.25-.34-.56-.67-1.34-.89-2.23-.11-.56-.22-1.12-.22-1.79.11-1.01.45-2.01.78-3.02l.56-1.12c0-.11.45-.78,1.34-1.79,1.01-1.23,1.79-1.9,2.46-2.12l1.12-.56.22-.33c.22,0,.22-.11.34-.11.33,0,.67-.11.78-.45v-.89c-.11-.78-.22-2.79-.22-6.14v-9.38c-.11-1.23-.11-2.01-.11-2.12v-2.68c0-.45,0-1.23-.11-2.34-.11-1.01-.11-2.23-.11-3.91,0-1.9.11-3.24.22-3.8.11-.33.22-.67.22-1.12,0-.33.11-.56.22-.67.11-.11.45-.22.78-.22.56,0,.89,0,1.12.11h2.68c1.23,0,2.01,0,2.23-.11l.45-.11h.67c2.46,0,5.81-.56,8.6-.56,4.13,0,8.82,1,12.51,2.46,2.57,1.01,4.58,2.12,5.81,3.35.11.11.45.33.89.56.56.34,1.23,1.01,2.23,1.9,3.46,3.24,5.14,8.82,5.25,14.85v.78c0,4.69-.89,9.6-2.23,13.74-.89,2.35-1.79,4.24-2.57,5.7-.56.78-1.23,1.67-2.23,2.68-.78.78-1.12,1.23-1.12,1.34l.11.67c.22.67.33,1.12.45,1.23,0,.11.11.45.45.89,2.23,6.48,2.79,18.76,2.79,27.03,0,.56,0,1.12.11,1.79v1.56c.11.22.11.56.11.89s0,.78-.11,1.34c-.11.56-.11,1-.11,1.23,0,.78-.11,1.34-.11,1.45-.22.11-.56.22-1.34.33l-.78.22c-.34-.11-.56-.11-.78-.11-.67,0-1.23-.11-1.79-.22ZM322.3,201.9c2.12,0,3.91-.45,5.14-1.23.45-.33.56-.67.56-.89v-.22c-.11-.34-.67-.78-1.68-1.45-.33-.33-1.23-.56-2.68-.89-1.12-.22-2.12-.33-3.13-.33-.78,0-1.23.11-1.23.22l-.31,2.51c0,.34.16,1.38.16,1.61l.27.68s.47.32.58.32c.34,0,.54-.21.99-.21h.34c.22-.11.34-.11.45-.11h.56ZM336.48,193.19l.78-1.56c.11-.33.33-.67.45-1.23l.22-.67c0-.11.22-.78.67-1.79.11-.45.22-.67.22-.78s0-.11.11-.22c0-.11,0-.34.11-.56.11-.45.11-.78.22-1.23.11-.11.11-.45.11-.89,0-.89-.11-1.79-.33-2.68-.11-.11-.11-.56-.11-1.23,0-.56-.11-.89-.22-1-.11-.11-.22-.45-.34-1.01-.11-.33-.45-1.23-1.23-2.68-.11-.22-.33-.67-.67-1.23-1.12-2.23-6.7-5.03-11.5-5.92-.78-.11-1.56-.22-2.34-.22s-1.56.11-2.23.22c-.11,0-.22.11-.45.33-.11.11-.11.89-.11,2.12,0,5.7-.34,10.39-.34,15.63,0,1.45-.11,2.35-.11,2.79,0,.34,0,.45.11.45.11.11.22.11.45.11h.22c.11-.11.22-.11.33-.22h.45c.11,0,.34,0,.56-.11.33-.11.56-.11.78-.11.22-.11.34-.11.45-.11.22-.11.56-.11.89-.11.45,0,1.45.11,2.9.45.89.11,1.45.33,1.79.45.11.11.22.11.56.22.34.11.45.11.56.11,1.01.11,1.9.45,2.68,1.01.34.33.56.45.89.56,1.34.56,2.12,1.01,2.46,1.23l.45.33c.11-.11.22-.11.33-.22l.22-.22Z"/>
    <path class="cls-1" d="M370.32,242.21h-4.47c-5.25,0-7.59-.11-8.15-.22h-.78c-.56-.11-1.01-.11-1.34-.11-1.01,0-1.67-.11-1.79-.22-.33-.33-.45-1.67-.45-4.24v-3.8c.11-.22.11-.45.11-.56,0-.56.11-.78.33-.89.11-.11.67-.11,1.67-.11h6.59c.56,0,.89-.11,1-.22.11-.11.11-.22.11-.33v-.67c0-.11,0-.34.11-.67.11-.45.11-.78.11-.89v-3.8c.22-1.68.34-2.68.34-2.79v-1.12c.22-1.12.33-2.9.33-5.36v-2.34c.11-2.23.22-3.46.22-3.8v-2.23c.11-.33.11-.67.11-.89,0-6.14-.11-9.49-.22-10.05v-.89c0-1.68,0-2.57.11-2.79v-.45c.11-.22.11-.45.11-.56v-1.45c0-.11,0-.33.11-.89v-2.12c.11-.45.11-.67.11-.78.11-.56.22-2.79.22-6.59,0-1.12,0-1.79-.11-2.12-.11-1.45-.22-3.24-.22-5.14v-4.69c0-.45,0-.67-.11-.78-.11-.11-.22-.11-.45-.11h-.45c-.45.11-.78.22-1,.22-.45.11-2.34.22-5.7.22-.11,0-.33,0-.67-.11h-.78c-.34,0-.67-.11-1-.22l-.34-.33c0-.34,0-.56-.11-.67-.34-1.12-.45-3.35-.56-6.81v-.67c0-.56,0-.89.22-.89,0-.22.34-.22.89-.33.56,0,1,0,1.12-.11.67-.22,2.01-.33,4.02-.33h13.96c.11,0,.22,0,.56.11,3.13,0,6.48-.34,9.6-.34l1.67-.11.22.22c.11.11.22.45.22.89v.78c0,.67,0,1.23.11,1.56.22,2.01.33,3.13.33,3.35,0,.56,0,.89-.11,1.12-.11.67-.34,1.23-.89,1.56-.11.11-.56.11-1.23.11h-.56c-.22-.11-.89-.11-2.01-.11-.78,0-1.34,0-1.67.11-.56.11-1.34.11-2.35.11h-.89c-.45,0-.67.22-.67.56v1c0,2.23-.22,4.91-.22,7.71v1.56c.11,1.34.11,2.9.11,4.58.11,3.69.11,7.15.33,10.5,0,3.35.11,5.7.22,7.26v4.47c-.11.45-.11.78-.11,1.01,0,.11,0,.56-.11,1.34v5.47c0,1.12,0,1.9-.11,2.46,0,.22,0,.67-.11,1.34-.11.67-.11,1.12-.11,1.45s0,.78-.11,1.34c-.11.56-.11,1.01-.11,1.12s0,.56-.11,1.12v3.91c0,.22,0,.67-.11,1.56-.11.67-.11,1.34-.11,1.67v1.9l.33.22c.11.11.34.22.67.22h.56l1.12-.33c.89,0,1.9,0,2.9-.11,2.12-.11,3.24-.22,3.46-.22h.45c.33,0,.67.56.89,1.67.11.33.11,1.01.11,1.79,0,1.34,0,2.68-.11,3.91,0,2.12-.11,3.35-.22,3.8-.11.22-.45.45-1.12.67-.34.11-.78.11-1.45.11h-1.01c-3.02,0-5.36.11-6.92.33-1.34.11-2.12.22-2.35.22h-.67c-.34-.11-.56-.11-.67-.11s-.45,0-.89-.11Z"/>
    <path class="cls-1" d="M399.8,237.86c-3.13-3.02-5.14-6.14-6.03-9.27,0-.11,0-.22-.22-.45,0-.34-.11-.45-.22-.56-.11-.33-.22-.56-.22-.67s-.11-.45-.22-.89c-.34-.56-.56-2.12-.78-4.69,0-.22,0-.67-.11-1.23v-1.56c0-1.67.11-2.9.22-3.8v-.45c.11-.22.11-.45.11-.56.33-2.01.89-3.69,1.45-5.03.34-.78,1.34-2.35,3.02-4.69.56-1.01,1.34-1.9,2.34-2.9.34-.33.67-.78,1.12-1.12.22-.45.56-.78.89-1.12.33-.33.67-.67,1.12-.89.34-.45.78-.67,1.12-.89l.45-.33c.11-.11.11-.22.11-.34s0-.11-.11-.22c-.78-.56-1.34-1.23-1.67-2.01,0-.11-.22-.34-.56-.67-.67-.78-1.23-1.56-1.56-2.23-1.45-3.02-2.34-4.69-2.9-7.15-.33-1.56-.67-3.13-.67-5.03,0-.78,0-1.67.11-2.57.11-.67.34-1.45.45-2.46,0-.33.11-.56.22-.89.11-.33.22-.56.22-.78.11-.56.45-1.45,1.01-2.9,1.9-3.8,3.13-6.25,6.81-8.6.11,0,.22-.11.56-.33.22-.22.34-.33.45-.33,2.68-1.9,5.92-3.02,10.05-3.35h.56l.33-.11h.45c1.79,0,3.13.11,3.91.33l1.23.34c.11.11.34.11.78.11.11,0,.22,0,.33.22.22,0,.45.22.67.22l.56.34c.45.22.67.45.78.56v.11c0,.22-.11.45-.34.78-.22.45-.45,1.9-.78,4.47-.11.34-.11.78-.11,1.34l-.11.22c0,.11,0,.33-.11.45-.11.22-.11.45-.11.56-.11.33-.22.56-.22.78-.22,0-.22.11-.45.11,0,0-.22-.11-.56-.33-.34-.11-.56-.22-.67-.34-1-.45-2.01-.67-3.02-.67-.78,0-1.34.11-1.9.22-.11.11-.45.11-.78.22-.45.11-.89.22-1.34.45-.45.22-1.01.56-1.56,1.01-2.12,1.67-3.46,3.02-4.13,4.13-1.45,2.57-2.35,4.91-2.46,7.04v1.01c0,1.9.45,3.69,1.45,5.14,0,.11.11.33.22.56.11.45.22.56.34.67.33.45.89,1.12,1.67,2.01.78,1,1.34,1.45,1.45,1.45.22,0,.45-.11.56-.33.34-.56.89-1.12,1.45-1.45,1.34-.89,2.23-1.34,2.57-1.34.34-.11.56-.11.67-.22.78-.34,2.01-.67,3.46-1.01.34-.11,1.23-.11,2.68-.11h.89c1.68,0,3.02.45,3.91,1.34.45.33.78.89.89,1.45.34.67.45,1.56.45,2.79,0,.78-.11,1.9-.34,3.46-.33,1.34-.78,2.46-1.56,3.46-1.01,1.56-2.12,2.79-3.46,3.57-1.23.89-3.02,1.56-5.14,1.9-.45.11-1.12.11-2.01.11-1.68,0-2.79-.22-3.57-.67-.45-.22-.67-.33-.78-.33s-.45-.11-.89-.45c-.67-.33-1.23-.56-1.45-.56h-.11l-.56.56c-.11.11-.22.22-.45.56-.11.33-.22.45-.33.56-2.12,1.9-3.8,4.47-4.91,7.59-.78,2.12-1.23,4.8-1.23,8.15v.89c.11.33.11.67.11.89.22,2.68.89,5.25,2.12,7.82,1.45,1.9,2.9,3.24,4.47,3.8,1.45.56,3.8.89,6.81.89,2.01,0,3.69-.33,4.91-.89l.67-.33c.56,0,1.79-.67,3.57-1.9.11,0,.22-.11.33-.22.22-.11.45-.22.56-.33,1.67-1.01,3.02-2.23,4.24-3.69.45-.56,1.34-1.56,2.68-2.9q.11-.11.22-.11c.22,0,.45.11.78.45.33.33.78.67,1.45,1.12,1.23.78,2.12,1.45,2.9,2.23.11.11.34.33.56.67.33.34.45.45.56.45.22.22.33.33.33.45,0,.56-.33,1.23-1.01,2.01-.67.67-1.12,1.12-1.23,1.45-1.34,1.9-2.35,3.02-3.02,3.57l-.89.89c-3.57,4.13-9.38,7.93-16.86,7.93-2.57,0-5.14-.33-7.82-.89-3.35-.78-6.59-2.68-9.83-5.7ZM420.24,195.09h.34c1,0,1.68-.34,2.12-.89.11-.11.11-.45.11-.89-.11-.56-.45-.89-.78-.89-.89,0-1.83.08-3.51,1.42-.11.11,0,1.08-.12,1.08-.52,1.2,1.51.18,1.84.18Z"/>
    <path class="cls-1" d="M155.23,322.78c-.11-.33-.45-1.23-.78-2.9-.56-1.67-.78-2.46-1.12-5.14l-.33-1.67v-.56c-.11-.33-.11-.78-.22-1.23v-1.56l-.22-3.02-.11-1c-.11-.78,0-1.68-.11-2.68-.11-1.12-.11-2.01-.11-2.79-.11-2.01-.11-5.03-.11-8.93.33-15.86,2.46-22.67,10.83-30.26l.67-.67c.34-.33.56-.45.67-.56.11-.11.22-.22.56-.33l.45-.45c.34-.11.56-.33.78-.56.11-.11.45-.22,1-.56.34-.11.56-.33.67-.45.33-.34,1.12-.67,2.57-1.01.11,0,.45-.11.89-.45,2.01-1.01,4.13-1.01,7.26-1.23.11,0,.33-.11.67-.11h.45c.22.11.45.11.67.11s.33,0,.45-.11c5.36,0,11.06,3.02,13.74,5.7.67.89,1.23,1.67,1.68,2.46l.78.78c.33.33.56.67.67,1.12.11.11.22.33.34.56.22.22.34.33.34.45,1.34,2.9,2.01,4.47,2.12,4.8,0,.11,0,.22.22.56,0,.33.11.56.22.67.45,1,.78,2.23.89,3.46,0,.22.11.67.33,1.34.34.89.45,2.12.45,3.57,0,1.23-.11,2.01-.45,2.35l-.22.22h-4.58c-1.12.11-1.79.11-2.01.11s-.45,0-.67.11h-1.01c-.22.11-.45.11-.67.11-.34,0-.56-.11-.67-.22-.11-.11-.11-.22-.11-.33v-.22l.11-.22v-.33c0-.11,0-.33-.11-1v-1.12c-.78-5.25-1.68-8.49-5.14-10.39-.22-.11-.89-.56-2.12-1.12-.22-.11-.56-.34-1.01-.56-.56-.33-.78-.45-.89-.45-.33-.11-.56-.22-.78-.22-.11,0-.45-.11-1.12-.33-.22-.11-.56-.11-1-.11-.34,0-.78,0-1.34.11-.34.11-.56.11-.89.22-.22.11-.45.11-.67.11-.11.11-.22.11-.33.11-.67,0-2.46.56-3.69,1.12l-.67.33c-.22,0-.34,0-.45.11l-.22.11c-.11.11-.33.22-.45.45-.11,0-.33.11-.45.22-1.01.78-1.67,1.45-2.23,2.01-.33.34-.67,1.01-1.12,1.9-.22.45-.34.67-.45.78-.11.11-.34.67-.89,1.56-.45,1.12-.67,1.56-.67,1.67l-.22.67c0,.11-.11.33-.22.67-.11.34-.22.67-.33.78,0,.11,0,.22-.11.45-.11.22-.11.45-.22.56v.34c-.34.56-.45.89-.45,1,0,.33-.11.67-.22,1.01-.33,1.67-.78,4.13-1.12,7.59-.22,1.34-.34,2.46-.34,3.24,0,3.02-.11,4.58-.22,4.91v.78c-.11.45-.11.89-.11,1.23v1.34c.11.56.11.89.11,1.01.11.33.11.89.11,1.67,0,.34.22,1.9.67,4.58.56,3.13,1.23,7.15,2.57,9.83.22.45.34.89.34,1.23s.11.56.45.89c.34.33.56.67.67,1.12.11.11.22.33.45.56.11.22.22.33.22.45.56.56.89,1.23,1.23,1.9l1.34,1.79c.45.56,1.34,1.23,2.57,2.01.11,0,.45.22,1.23.78,2.12,1.45,3.8,2.12,5.25,2.12.34,0,.89-.11,1.56-.11.56-.22,1.12-.22,1.56-.22,1-.11,1.79-.33,2.34-.45.11-.11.34-.11.67-.11.22,0,.67-.11,1.23-.22.11,0,.33,0,.56-.11l.67-.22c.22,0,.56-.11,1.01-.33.11,0,.22,0,.45-.11.22-.11.33-.11.45-.22s.22-.22.45-.33c.33-.22,1.01-.45,2.01-.78.34-.11.78-.22,1.34-.56,2.12-1.45,3.46-2.46,3.8-3.24.22-.45.45-.67.78-.67h.22c.22.11.56.56.89,1.45,0,.11.11.33.11.33.22.22.34.34.56.67.22.22.45.56.67,1.01.11.22.33.56.56,1,.11.11.22.22.45.56.11.33.22.45.34.56.11.22.33.67.67,1.23,0,.11.11.22.22.56l.33.67c.22.45.33.78.33.89v.11l-.11.11c-.11.33-.78.78-1.79,1.45-1,.56-1.68,1.12-2.01,1.45-.22.22-.56.45-1.01.67l-1,.67c-1.23.78-2.01,1.12-2.34,1.12l-.45.22c-.11,0-.22,0-.34.22-.11,0-.34.22-.56.22l-.56.34c-.11.11-.33.11-.56.22-.22.11-.45.11-.56.22-.11.11-.22.11-.34.11-.11.11-.33.11-.56.22-.45.11-.56.11-.67.11-.11.11-.33.11-.56.22-.22.11-.33.11-.45.22-.45.11-.78.22-1.12.22-.22,0-.45.11-.78.22-2.9.78-4.58.56-7.71.67l-1.12.11c-.56.11-1,.11-1.56.11-2.46,0-4.91-.67-7.15-1.23-1.45-.45-2.9-1-4.13-1.79-3.24-1.67-4.8-4.69-7.04-7.71-2.01-2.68-2.68-5.47-3.69-8.71Z"/>
    <path class="cls-1" d="M236.31,343.44c-.89-.11-2.46-.22-4.69-.33-.45,0-.89,0-1.45-.11h-1.12l-.45-.11-.67-.11h-2.23c-.45-.11-.78-.11-.89-.11-1.12-.11-1.68-.22-1.79-.22s-.22,0-.45-.11h-1.12c-.11.11-.22.11-.33.11-.11.11-.34.11-.56.11h-.89c-.33-.11-.56-.11-.78-.11-.89,0-2.23-.11-4.02-.45h-.22c-.11,0-.33,0-.56-.11h-1.34c-.22-.11-.45-.11-.67-.22l-.22-.11-.22-.22c-.11-.34-.45-1.45-.45-3.35v-4.13c.11-.22.11-.33.11-.45v-7.59c0-.11,0-.67-.11-1.56v-4.13c-.11-1-.11-1.56-.11-1.67v-3.69c0-8.82-.22-11.28-.45-14.74-.11-2.57-.22-6.25-.22-11.73,0-7.48,0-11.39-.11-11.73v-1.56c-.11-.78-.11-2.01-.22-3.69v-4.24c0-.33,0-.89-.11-1.67-.11-.78-.11-1.12-.11-1.23-.11-.78-.11-1.79-.11-3.13,0-1.68.11-2.9.34-3.46.34-.56.67-.78,1-.78h.22c.11.11.22.11.33.11s.22,0,.22.11h1.12c.22-.11.56-.11.78-.11s.45,0,.78-.11c.34-.11.56-.11.78-.22h.33c.56-.11,1.12-.22,1.67-.22h.56c.33.11.45.11.56.11s.33,0,.45.11h.33c.11,0,.33,0,.45-.11s.33-.11.45-.11c.22,0,.33.22.45.78.33,3.69.56,6.14.56,7.37v1.56c0,.56,0,1.23.11,2.01v21.33l.11,8.82c0,.34,0,.78.11,1.45v1.23c.33,4.8.33,8.82.45,11.84v2.79c.11,1.23.11,2.01.11,2.46,0,.56,0,1.23-.11,2.12v7.48c-.11.78-.11,1.12-.11,1.23s0,.33-.11.78v.78c0,1.01.11,1.56.22,1.67.11.11.67.22,1.79.22,1.23,0,2.12.11,2.46.22.56.22,1.45.33,2.46.33h2.9c.22,0,.56,0,.89.11h.67l.67.11c.45.11.78.11,1.12.11h3.02c1.23,0,1.9,0,2.23-.11.11,0,.22,0,.34-.11h.45q.11.11.22.11c.11.11.56.11,1.34.11,1.34,0,2.68-.11,4.13-.33.33-.11.89-.11,1.45-.11.89,0,1.34.11,1.45.33l.11.34v.67c0,.33.11.78.22,1.56.11.78.22,1.23.22,1.34v3.02c0,1.79-.22,2.9-.67,3.24-.34.33-.67.45-1.23.45h-1.23c-.33-.11-.67-.11-.89-.11-.67,0-1.56.11-2.79.22h-3.02c-.78,0-2.12-.11-3.91-.33Z"/>
    <path class="cls-1" d="M275.73,343.44c-.67,0-1.23-.11-1.67-.33-.11,0-.56-.11-1.56-.34-.56-.11-1.12-.33-1.68-.45-.11,0-.22,0-.45-.22-.22,0-.33-.11-.45-.11-.33,0-.67-.11-1.12-.45-.22-.11-.67-.33-1.23-.67-.89-.45-1.79-1.01-2.68-1.68-.45-.33-.78-.56-1.12-.67-.11,0-.33-.11-.67-.45-.22-.22-.45-.45-.78-.56-1.56-.89-4.91-5.02-5.47-6.03-.11-.11-.11-.22-.22-.34-.56-1.45-1.56-2.57-1.67-3.35-.11-.11-.11-.56-.34-1.12,0-.67-.22-1.23-.34-1.56-.22-.67-.22-1.12-.33-1.45-1.12-4.02-3.13-18.98-3.13-30.6v-13.07c-.11-1.34-.11-2.35-.11-3.13v-8.15c0-.22,0-.67-.11-1.45v-2.46c0-.89,0-1.56.11-1.9,0-.22,0-.56.11-.89v-1.34c-.11-.22-.11-.33-.11-.45s0-.22-.11-.33v-.45c0-.56.11-.89.34-1.12.11-.11.22-.11.45-.11h.67c.67,0,1.23,0,1.56-.11,2.9,0,5.58-.11,8.71-.45l.56.22c.33.11.45,2.68.45,3.57-.56,5.25-.56,8.04-.56,13.74v1.12c0,1.68-.11,3.46-.11,5.47,0,.89-.11,1.67-.11,2.46,0,1.56.11,3.02.11,4.36v3.46c.11.89.11,1.56.11,2.01,0,.56,0,1.12-.11,1.79v4.8c-.11.67-.11,1.12-.11,1.23s0,.45-.11.78v2.35c.11.67.11,1.23.11,1.79.11,2.79.33,5.14.78,7.26.22.67.33,1.12.33,1.23,0,.33.11.78.34,1.23.11.11.11.22.11.45s0,.34.11.45c.22.78.67,1.9,1.45,3.35l.33.56c0,.22.22.45.22.56.22.11.22.22.22.33.33.89,1.12,1.9,2.12,3.13.56.78.78,1.12.89,1.23.11.11.22.22.45.33l.45.45c.11.11.22.11.45.22l.22.22.22.22c.11.11.11.33.34.45,0,.11.22.22.34.34,1,.78,1.67,1.23,2.12,1.23.22,0,.45.11.78.22.11,0,.34.11.78.22.34.11.67.22.78.33.67.22,1.12.33,1.45.33.56,0,1.12-.11,1.79-.45,8.6-4.36,10.5-14.74,10.5-27.47,0-1.01-.11-3.8-.33-8.26-.11-2.68-.22-4.47-.22-5.36,0-.22,0-.89-.11-1.9v-2.46c0-1.9-.11-3.46-.22-4.69-.45-8.15-.67-12.84-.78-14.07v-6.14c0-.11,0-.22-.11-.45v-.67c-.11-.34-.11-.56-.11-.67,0-.22,0-.45-.11-.67v-.45c0-.34.22-.56.56-.67h.34c1,0,1.79.11,2.34.22.34.22,3.69,0,4.58.45.11.11.22.11.56.22.33.11.45.11.56.11.78.11,1.23.45,1.34,1,.11.11.11.34.11.67v.89l.11.45c0,.78,0,1.56.11,2.57,0,.45,0,.89.11,1.23,0,.45,0,.78.11,1.12v.33c.11.45.22,2.01.34,4.8,0,.33.11,2.57.34,6.7.33,7.48.56,14.96.56,22.45,0,1.01.11,2.01.22,3.02.22,3.35.33,7.15.33,11.28v1.12c-.67,8.93-2.79,16.86-7.37,21.44l-1.56,1.34c-.11.22-.33.45-.45.56-.78,1-1.45,1.56-2.01,1.79-.45.22-1.01.56-1.56,1-.78.56-1.34.89-1.9,1.01-.11,0-.22,0-.45.11-.34.11-.56.11-.67.11-.11.11-.22.11-.33.11s-.22,0-.34.11h-.67c-.33.11-.56.11-.78.11-2.12.11-3.24.33-3.57.45q-.11,0-.34.11h-.67c-.11-.11-.33-.11-.45-.11-.22-.11-.89-.11-1.9-.11Z"/>
    <path class="cls-1" d="M312.47,339.31c0-1.23,0-2.01-.11-2.46-.11-1.9-.22-4.02-.22-6.14,0-1.23,0-1.9-.11-2.12-.56-10.72-.89-16.42-.89-16.97v-1.9c0-.56,0-.89-.11-1,.11-.11,0-.22,0-.45-.11-.11-.22-.11-.45-.22s-.45-.11-.56-.11c-.11-.11-.22-.11-.34-.22-.78-.33-1.9-1.45-3.35-3.13-1.67-2.01-1.79-3.91-1.79-6.48v-.78c0-1.9.89-3.91,2.01-5.14,1-1.56,2.23-2.79,3.57-3.8.45-.11.67-.22.78-.22,0-.11,0-.56.11-1.45v-1.79c0-1.23.11-2.35.11-3.35,0-.67,0-1.23.11-1.68.22-4.8.22-8.71.22-13.74v-6.59c0-1.23.11-1.9.22-2.01.22-.33,2.12-.67,5.7-.78,2.68,0,5.58-.89,8.26-.89h1.79c3.8,0,7.59.45,11.28,1.34.22,0,.45.11.78.22l.45.22c.33.22.56.33.67.45.11.11.45.22.78.45l.45.22.45.22c.22.11.45.22.56.33,1.56.89,2.79,1.9,3.69,3.02.11.11.45.45.67.89.45.34.56.67.67.78.33.33,1.12,1.56,2.35,3.46.11.11.11.33.33.67,0,.45.11.78.22.89,0,.11.11.45.34.89.22.67.33,1,.45,1.12.33.78.45,1.23.45,1.45v1.01c.11.33.11,1,.11,2.01,0,2.12-.22,4.36-.67,6.7-.22,1.23-.67,2.9-1.45,5.25-.67,2.12-1.23,3.57-1.79,4.36l-.67,1.34c-.11.11-.22.45-.45.78-.22.33-.34.67-.45.78-.34.56-.45,1.01-.45,1.23v.11c.33.22.67.33.89.45.33.11.78.33,1.34.67.11.11.33.22.78.45.22.33.45.45.56.56,1,.78,2.01,1.9,3.02,3.35.11.33.33.67.67,1.12.22.45.67,1.67,1.34,3.57.11.34.22.78.22,1.45.22.56.22,1.01.33,1.23.45,1.67.67,3.57.67,5.47,0,1.23-.11,2.35-.34,3.57-.78,3.69-1.79,6.37-3.02,8.15-.78,1.01-1.12,1.56-1.12,1.9-.11.33-.34.67-.45,1l-.34.67c-.11.33-.22.45-.22.56-.22.45-.78,1.12-1.56,1.9l-1.56,1.56c-.56.89-1.45,1.79-2.46,2.68-1.68,1.45-3.35,2.46-5.14,3.02-1.9.56-4.47,1.12-7.82,1.67-1.12.22-1.68.34-1.79.34h-5.03c-.22-.22-.45-.22-.56-.22h-.22c-.11.11-.34.11-.45.11-.22,0-.45,0-.67-.11-2.68.33-5.25.45-7.71.45-.11,0-.33,0-.67.11l-.11.11c-.11,0-.22-.11-.33-.11-.45.11-.89.22-1.34.22-.22,0-.34.11-.45.11-.11-.11-.22-1.12-.22-2.79ZM339.38,290.84c.11-.11.22-.33.22-.56v-.11c.11-.11.22-.22.34-.45s.33-.45.45-.78c.22-.33.33-.56.33-.89,0-.11.11-.22.22-.56.56-1.34.89-2.57,1.23-3.69.33-1.23.45-2.79.45-4.58-.11-2.9-.89-5.03-2.35-6.48-.56-.56-.78-.89-.89-1-.33-.45-1.01-1.01-2.23-1.79-1.45-1.01-2.9-1.68-4.36-2.01-.56-.11-1.12-.33-1.56-.45-.22-.11-.56-.11-1-.11-.34,0-.67,0-.78-.11-.67-.22-1.34-.34-1.9-.34h-3.69c-.34,0-.56,0-.78.11-.11,0-.11.22-.11.45v.33c.33,2.12.45,5.25.45,9.6v1.79c0,.11,0,.45.11,1v6.7l.34.22c.11.11.67.22,1.45.22h.78c1.23,0,2.23.11,3.13.45.45.11.78.22,1.12.22s.67.11,1.12.33c.33.11.67.22,1,.22.11,0,.45.11,1.12.33.45.11.67.22.78.22.34,0,1.01.34,1.9.89l.33.22.45.45.45.45c.22.11.34.22.45.33.22.22.34.33.45.33s.22-.11.34-.33l.67-.67ZM331.23,332.72c.11,0,.34-.11.78-.33.34-.11.56-.22.78-.22s.56-.11,1-.33c.34-.11.67-.22,1-.22.22,0,.67-.22,1.23-.56.11-.11.34-.22.67-.33.45-.22.67-.34.78-.45.67-.45,1.01-.67,1.12-.78.11-.11.45-.22,1-.56.11,0,.22-.11.45-.45.11-.22.34-.45.67-.78.22-.33.45-.56.56-.67,2.12-2.12,3.46-5.14,4.13-9.05.11-.56.22-1.45.22-2.57v-1.23c-.11-.67-.11-1-.11-1.23-.11-1.23-.33-2.35-.78-3.24-.11-.11-.22-.45-.33-.78-.11-.33-.22-.56-.34-.67s-.22-.34-.45-.78c-.22-.22-.34-.45-.34-.56l-.45-.89c-.11-.33-.45-.89-1.23-1.68-.67-.67-1.23-1-1.67-1-.34,0-.56.11-.78.33-.56.56-1.68,1.23-3.13,2.01-1.12.56-4.02,2.34-6.03,2.57-.33.11-1.34.33-3.35.78-1.79.22-2.9.45-3.02.56v2.68c.11,1,.22,3.24.22,6.59,0,.22,0,.67.11,1.23v1.12c0,1.23.11,3.24.34,5.81.22,2.57.33,4.69.45,6.14,0,.22,0,.33.11.45.11.11.22.11.45.11h.45c2.68-.33,4.47-.67,5.47-1.01ZM328.89,300.22c.56-.11,1.45-.56,2.46-1.23l.78-.45v-.11c0-.11-.22-.34-.56-.67-.45-.33-.78-.45-1.12-.56-.11,0-.22,0-.33-.11-.11-.11-.34-.11-.34-.11q-.22-.11-.34-.11c-.33-.11-1-.22-2.01-.22h-1.12c-.89.11-1.45.22-1.56.33-.45.33-.67.89-.78,1.9v.67c0,.45,0,.67.11.67.11.11.67.33,1.68.45h.78c.67,0,1.23-.11,1.45-.22.34-.11.56-.22.89-.22Z"/>
  </g>
</svg>